<?xml version="1.0" encoding="utf-8"?>
<!-- Generator: Adobe Illustrator 23.0.5, SVG Export Plug-In . SVG Version: 6.00 Build 0)  -->
<svg version="1.1" id="Layer_1" xmlns="http://www.w3.org/2000/svg" xmlns:xlink="http://www.w3.org/1999/xlink" x="0px" y="0px"
	 viewBox="0 0 480 640" style="enable-background:new 0 0 480 640;" xml:space="preserve">
<style type="text/css">
	.st0{fill:#C8B5DD;}
	.st1{fill:#0A0A0A;}
	.st2{fill:#FFC54D;}
	.st3{fill:#5E68B4;}
	.st4{fill:#F9D8B7;}
	.st5{opacity:0.55;}
	.st6{fill:#C0925F;}
	.st7{fill:#98662E;}
	.st8{opacity:0.5;}
	.st9{fill:#D76B2A;}
	.st10{fill:#EFCA9D;}
	.st11{fill:#D92231;}
	.st12{fill:#0AC3C8;}
	.st13{fill:#B78547;}
	.st14{fill:#CD9C5A;}
</style>
<g>
	<g>
		<g>
			<path class="st0" d="M153.8,301.02c0,0,14.29-28.87,24.35-28.87c10.06,0-5.82,29.3-7.95,35.66
				C168.09,314.17,153.8,304.84,153.8,301.02z"/>
			<path class="st1" d="M166.9,310.82c-5.56,0-14.17-6.51-14.17-9.81l0.07-0.31c1.5-3.02,14.86-29.42,25.35-29.42
				c1.38,0,2.5,0.46,3.25,1.32c3.41,3.89-1.53,15.83-7.35,28.8c-1.28,2.85-2.38,5.3-2.82,6.63
				C170.63,309.83,169.08,310.82,166.9,310.82z M154.87,301.17c0.29,2.5,7.84,7.95,12.03,7.95c1.22,0,1.93-0.47,2.28-1.53
				c0.46-1.4,1.53-3.77,2.88-6.78c3.73-8.3,10.67-23.74,7.6-27.24c-0.34-0.4-0.81-0.58-1.51-0.58
				C170.54,272.99,158.84,293.16,154.87,301.17z"/>
		</g>
		<g>
			<path class="st2" d="M185.56,438.59c0,0,3.71,28.03,4.24,30.15c0.53,2.12,8.47,6.36,36,3.39c27.54-2.98,33.89-2.56,38.13-5.94
				c4.23-3.4,4.23-21.23,4.23-21.23s4.77,20.37,9,21.66c4.25,1.26,47.13-14.44,49.78-17.42c2.64-2.97-4.77-42.03-6.89-50.53
				C317.92,390.2,185.56,438.59,185.56,438.59z"/>
			<path class="st1" d="M208.93,474.02c-13.95,0-19.58-2.76-20.17-5.11c-0.53-2.14-4.1-29.07-4.25-30.22l-0.08-0.62l0.69-0.24
				c4.57-1.67,112.31-41,132.01-41c2.35,0,3.68,0.58,3.96,1.69c1.33,5.32,9.92,47.58,6.7,51.19c-3.12,3.5-43.27,17.84-49.96,17.84
				l0,0c-0.42,0-0.76-0.04-1.04-0.12c-3.08-0.92-5.98-8.94-7.85-15.39c-0.45,5.55-1.54,12.6-4.26,14.78
				c-3.41,2.73-7.96,3.16-21.46,4.45c-4.58,0.43-10.24,0.97-17.26,1.73C219.62,473.66,213.88,474.02,208.93,474.02z M186.69,439.11
				c1.31,9.84,3.73,27.85,4.14,29.46c0.24,0.97,4.09,3.74,18.09,3.74c4.86,0,10.49-0.35,16.73-1.02c7.04-0.77,12.71-1.3,17.3-1.73
				c12.96-1.23,17.32-1.66,20.22-3.98c3.22-2.58,3.92-15.76,3.92-20.63l2.1-0.16c2.25,9.58,6.07,20.34,8.34,21.01l0,0
				c0,0,0.08,0.02,0.29,0.02c6.8,0,46.01-14.62,48.24-17.12c2.15-2.72-4.49-39.55-7.06-49.88c-0.02-0.05-0.4-0.32-1.88-0.32
				C298.69,398.52,196.18,435.67,186.69,439.11z"/>
		</g>
		<g>
			<g>
				<path class="st3" d="M299.39,331.16c-9-29.3-17.99-42.89-15.36-60.3c0,0-21,6.41-49.98,6.71c-7.52,6.05-16.2,7.72-16.2,7.72
					c-10.47-1.35-18.12-7.18-22.3-11.24c-5.23-1.06-10.52-2.39-15.82-4.05c0,0-46.59,55.63-8.47,166.46
					c0,0,101.97,18.08,149.83-39.5C328.51,388.06,308.4,360.46,299.39,331.16z"/>
				<path class="st1" d="M207.86,440.02L207.86,440.02c-21.28,0-36.68-2.69-36.83-2.71l-0.62-0.12l-0.17-0.49
					c-37.81-109.93,8.14-166.59,8.62-167.15l0.47-0.56l0.79,0.25c5,1.57,10.28,2.91,15.7,4l0.34,0.07l0.22,0.21
					c4.39,4.27,11.66,9.6,21.44,10.93c1.31-0.3,8.92-2.16,15.5-7.46l0.3-0.24l0.44-0.01c28.45-0.3,49.41-6.6,49.61-6.66l1.64-0.5
					l-0.21,1.4c-1.8,11.88,1.85,21.82,7.38,36.86c2.43,6.62,5.19,14.12,7.96,23.14c3.47,11.29,8.63,22.39,13.18,32.18
					c7.39,15.91,13.23,28.48,8.38,34.3C292.74,432.63,243.78,440.02,207.86,440.02z M172.11,435.74c3.06,0.5,17.11,2.57,35.75,2.57
					c35.4,0,83.64-7.25,112.36-41.8c4.24-5.1-1.72-17.93-8.61-32.77c-4.58-9.83-9.75-20.98-13.25-32.38
					c-2.75-8.98-5.51-16.46-7.94-23.06c-5.19-14.15-9.01-24.52-7.62-36.2c-5.46,1.47-24.22,6.02-48.31,6.32
					c-7.57,5.96-16.03,7.64-16.39,7.7l-0.21,0.04l-0.22-0.02c-10.36-1.35-18.05-6.86-22.72-11.32c-5.09-1.05-10.06-2.32-14.8-3.75
					C175.51,277.22,136.89,332.81,172.11,435.74z"/>
			</g>
			<g>
				<path class="st4" d="M217.86,285.3c0,0,8.68-1.67,16.2-7.72c-11.8,0.13-24.92-0.77-38.5-3.52
					C199.74,278.12,207.39,283.95,217.86,285.3z"/>
			</g>
		</g>
		<g class="st5">
			<path class="st2" d="M307.33,410.56c0,0,16.42,36.1-32.83,51.4l2.64,4.67c0,0,40.77-11.9,49.78-17.42l-6.89-50.53
				C320.04,398.68,314.21,404.19,307.33,410.56z"/>
		</g>
		<g class="st5">
			<path class="st3" d="M252.1,276.81c0,0,73.41,125.13-45.9,156.26l-3.88,5.09c0,0,84.72,6.23,120.01-45.29
				c0,0-1.06-11.04-11.3-31.14c-10.24-20.09-21.89-60.29-21.89-60.29l-8.11-29.72L252.1,276.81z"/>
		</g>
		<g>
			<path class="st0" d="M278.73,298.9c0,0-4.23-28.03,7.95-29.31c12.17-1.27,23.82,21.24,24.35,23.78
				C311.57,295.93,285.1,305.69,278.73,298.9z"/>
			<path class="st1" d="M286.54,302.1c-4.06,0-6.97-0.9-8.65-2.69l-0.16-0.19l-0.04-0.21c-0.17-1.19-4.21-28.89,8.85-30.25
				c12.99-1.4,24.98,21.78,25.54,24.48c0.11,0.48-0.12,0.97-0.69,1.51C308.47,297.51,295.35,302.1,286.54,302.1z M279.76,298.55
				c1.3,1.22,3.58,1.84,6.78,1.84c9.91,0,22.88-5.57,23.46-7.01c-0.46-2.03-11.82-24.1-23.18-22.96
				C277.78,271.39,278.63,290.83,279.76,298.55z"/>
		</g>
		<g>
			<path class="st0" d="M199.33,280.21c0,0,3.7,18.27,6.34,19.96c2.65,1.7,14.83-11.46,14.83-11.46s12.17,7.65,19.59,7.65
				c7.41,0-0.53-18.27-0.53-18.27l-19.59,8.5C219.97,286.58,201.44,283.18,199.33,280.21z"/>
			<path class="st1" d="M206.26,301.17c-0.47,0-0.9-0.12-1.24-0.34c-2.75-1.76-5.85-16.11-6.75-20.48l1.97-0.57
				c1.35,1.9,12.56,4.58,19.58,5.9l20.33-8.81l0.41,0.94c0.63,1.45,6.05,14.24,2.59,18.15c-0.72,0.81-1.77,1.24-3.06,1.24
				c-6.6,0-16.42-5.54-19.39-7.3C217.53,293.27,209.74,301.17,206.26,301.17z M200.84,282.33c1.75,8.04,4.1,16.11,5.45,17.14
				c1.87-0.06,8.38-5.88,13.37-11.28l0.64-0.7l0.85,0.54c0.12,0.08,11.98,7.46,18.94,7.46c0.6,0,1.01-0.16,1.34-0.53
				c2-2.25-0.32-10.41-2.47-15.66l-18.84,8.17l-0.38-0.07C217.15,286.93,206.04,284.8,200.84,282.33z"/>
		</g>
		<g>
			<path class="st6" d="M60.78,124.8c0,0,40.94,32.28,68.12,37.37c0,0,9.18-35.38,32.48-38.78
				C161.38,123.39,119.73,112.34,60.78,124.8z"/>
			<path class="st1" d="M129.72,163.19l-1.06-0.19c-27.16-5.09-66.94-36.27-68.62-37.59l-1.33-1.05l1.8-0.38
				c18.7-3.95,37.59-5.95,56.15-5.95c27.54,0,44.88,4.52,45.06,4.56l-0.15,1.64c-22.32,3.26-31.53,37.76-31.62,38.11L129.72,163.19z
				 M62.88,125.24c7.2,5.49,41.43,30.88,65.23,35.89c1.51-5.28,10.04-31.94,29.32-37.74c-6.39-1.29-20.85-3.67-40.77-3.67
				C98.9,119.72,80.81,121.58,62.88,125.24z"/>
		</g>
		<g>
			<g>
				<path class="st4" d="M225.79,98.89c-91.07,0.42-103.77,81.53-103.77,81.53c-2.64,49.68,29.12,91.72,95.3,96.81
					c66.18,5.09,101.66-25.05,101.66-25.05l15.35-18.26C318.98,163.01,318.98,98.47,225.79,98.89z"/>
				<path class="st1" d="M232.25,278.67L232.25,278.67c-4.94,0-9.99-0.19-15.02-0.58c-61.39-4.73-99.18-43.09-96.26-97.7
					c0.13-0.9,13.88-81.93,104.82-82.33h0.93c82.27,0,92.2,51.44,103.7,111.04c1.56,8.04,3.16,16.35,4.97,24.69
					c0.06,0.2-0.01,0.43-0.17,0.61l-15.35,18.26C319.45,253.02,288.63,278.67,232.25,278.67z M226.71,99.74h-0.92
					c-89.07,0.41-102.6,79.99-102.72,80.79c-2.85,53.58,34.18,91.24,94.35,95.87c4.97,0.38,9.95,0.58,14.82,0.58h0
					c55.44,0,85.66-25.12,85.97-25.38l15.01-17.87c-1.78-8.25-3.36-16.44-4.9-24.39C316.5,148.1,307.16,99.74,226.71,99.74z"/>
			</g>
			<g>
				<path class="st7" d="M266.04,69.6C96.07,55.58,122.02,180.43,122.02,180.43s12.7-81.12,103.77-81.53
					c93.19-0.42,93.19,64.12,108.54,135.03l-15.35,18.26C424.34,230.53,435.99,83.61,266.04,69.6z"/>
				<path class="st1" d="M316.55,253.57l16.67-19.84c-1.78-8.25-3.36-16.46-4.9-24.4C316.5,148.1,307.17,99.74,226.71,99.74h-0.92
					c-89.11,0.41-102.6,79.99-102.72,80.79l-2.1,0.04c-0.1-0.5-10.01-50.44,24.93-83.52c24.56-23.25,65.21-32.83,120.23-28.29
					c90.97,7.5,127.29,52.24,130.93,91.62c4.04,43.58-28.69,82.53-77.82,92.63L316.55,253.57z M226.71,98.06
					c82.27,0,92.2,51.44,103.7,111c1.55,8.05,3.16,16.37,4.97,24.73l0.08,0.33l-14.01,16.65c46.62-10.75,77.4-48.32,73.52-90.26
					c-3.6-38.69-39.38-82.67-129.04-90.07c-54.29-4.48-94.33,4.91-118.4,27.7c-27.45,26-26.7,62.65-25.26,76.53
					c5.02-18.56,26.8-76.26,103.52-76.61H226.71z"/>
			</g>
			<g class="st8">
				<path class="st9" d="M284.57,162.45c0,0,31.77,44.16,0.71,78.12c-31.07,33.97-79.78,36.8-119.31,21.52
					c0,0,37.72,28.94,118.07,8.77c25.95-6.5,50.3-36.94,50.3-36.94l-11.65-56.2L284.57,162.45z"/>
			</g>
		</g>
		<g>
			<path class="st10" d="M67.14,126.21c0,0,82.59-20.38,179.3,20.96c96.72,41.33,152.49,62.27,173.67,56.61
				c6.35-1.7-2.11-29.45-16.94-39.07l-4.94-17.55c0,0,9.58-21.16,11.3-34.25c2.12-16.15-35.99-52.1-120.72-71.34
				c-84.71-19.25-133.42-5.95-144.01,5.94c-4.95,5.54-7.76,30-7.76,30s-5.65,13.6-5.65,15.3C106.67,95.63,41.02,127.91,67.14,126.21
				z"/>
			<path class="st1" d="M412.06,205.54c-26.15,0-80.71-21.13-166.11-57.62c-50.05-21.4-96.21-25.88-126.11-25.88
				c-31.78,0-52.18,4.92-52.38,4.98c-0.93,0.08-1.56,0.11-2.14,0.11h0c-3.34-0.01-5.11-0.78-5.25-2.32
				c-0.62-6.99,48.7-29.84,70.38-32.74c0.75-3.11,4.72-12.75,5.58-14.81c0.07-0.82,2.86-24.56,7.91-30.23
				C150.51,39.63,171.9,31,210.48,31c23.68,0,50.13,3.29,78.6,9.76C370.98,59.35,412.9,95.27,410.58,113
				c-1.62,12.3-10.19,31.85-11.25,34.21l4.79,17.03c13.04,8.7,20.6,29.91,18.95,37.2c-0.39,1.72-1.28,2.78-2.62,3.14
				C418.08,205.22,415.26,205.54,412.06,205.54z M119.83,120.33c30.16,0,76.68,4.52,127.11,26.08
				c85.12,36.37,139.41,57.43,165.12,57.43c2.96,0,5.57-0.3,7.72-0.87c0.55-0.15,0.98-0.81,1.21-1.85
				c1.54-6.81-6.05-27.67-18.49-35.75l-0.28-0.19l-5.1-18.08l0.11-0.24c0.09-0.21,9.54-21.21,11.24-34.05
				c1.86-14.16-32.38-50.54-119.96-70.43c-28.29-6.43-54.54-9.68-78.03-9.68c-35.37,0-58.05,7.69-64.84,15.3
				c-4.73,5.3-7.54,29.36-7.57,29.59c-2.76,6.71-5.64,14.2-5.64,15.22v0.73l-0.91,0.11c-22.04,2.53-69.78,26.24-69.36,31.05
				c0.04,0.43,1.25,0.72,3.14,0.72h0.01c0.52,0,1.1-0.02,1.74-0.06C67.03,125.34,87.71,120.33,119.83,120.33z"/>
		</g>
		<g>
			<path class="st3" d="M266.91,112.06c64.19,24.58,125.98,48.41,136.17,52.35l-4.87-17.25c0,0-70.24-37.65-111.54-49.55
				c-41.3-11.87-68.12-19.81-149.66-20.1c0,0-5.65,13.6-5.65,15.3C131.38,92.82,196.68,85.17,266.91,112.06z"/>
			<path class="st1" d="M404.6,165.95l-1.98-0.76c-11.65-4.51-73.02-28.18-136.15-52.36c-43.55-16.67-85.07-20.18-112.24-20.18
				c-14.03,0-22.62,0.99-22.71,1l-1.21,0.14v-0.98c0-1.75,4.75-13.26,5.7-15.56l0.24-0.59h0.77c81.02,0.29,108.04,8.07,148.96,19.85
				l1.06,0.3c40.95,11.78,111.07,49.25,111.78,49.63l0.35,0.19L404.6,165.95z M154.23,90.96c27.39,0,69.25,3.53,113.14,20.34
				c60.17,23.04,118.72,45.62,134.19,51.59l-4.28-15.2c-5.44-2.9-71.74-37.97-110.96-49.27l-1.07-0.31
				c-40.57-11.68-67.42-19.41-147.48-19.74c-2.19,5.29-4.43,11.09-5.13,13.45C135.68,91.55,143.35,90.96,154.23,90.96z"/>
		</g>
		<g>
			<path d="M257.41,185.87c0,4.41-3.36,7.99-7.48,7.99c-4.12,0-7.47-3.58-7.47-7.99c0-4.42,3.35-8,7.47-8
				C254.05,177.87,257.41,181.45,257.41,185.87z"/>
		</g>
		<g>
			<path d="M168.94,176.26c-0.74,4.71-4.33,8.33-8.02,8.08c-3.69-0.25-6.06-4.24-5.31-8.94c0.74-4.71,4.34-8.33,8.01-8.09
				C167.32,167.56,169.69,171.57,168.94,176.26z"/>
		</g>
		<g>
			<g>
				<path class="st1" d="M196.19,248.24c-0.66,0-1.32-0.01-1.99-0.02c-40.77-0.58-42.77-25.68-42.78-25.94
					c-0.04-0.47,0.42-0.86,1-0.89c0.61-0.02,1.08,0.34,1.11,0.81c0.07,0.97,1.97,23.78,40.7,24.32
					c38.95,0.63,46.21-15.69,46.28-15.84c0.18-0.44,0.78-0.68,1.34-0.53c0.55,0.13,0.85,0.62,0.67,1.07
					C242.21,231.93,234.99,248.24,196.19,248.24L196.19,248.24z"/>
			</g>
			<g>
				<path class="st1" d="M250.94,233.45c-15.95,0-18.74-10.92-18.76-11.05c-0.11-0.46,0.26-0.9,0.83-0.99
					c0.58-0.08,1.13,0.2,1.24,0.67c0.11,0.46,2.87,11.1,20.02,9.5c0.62-0.06,1.11,0.28,1.18,0.75c0.07,0.47-0.35,0.88-0.94,0.94
					C253.25,233.4,252.06,233.45,250.94,233.45L250.94,233.45z"/>
			</g>
			<g>
				<path class="st11" d="M197.02,247.66c0,0,4.66,11.73,14.48,12.74c13.77,1.42,14.81-17.27,14.81-17.27
					S207.62,248.51,197.02,247.66z"/>
				<path class="st1" d="M212.96,261.33c-0.52,0-1.05-0.03-1.6-0.09c-10.35-1.06-15.14-12.81-15.34-13.32
					c-0.11-0.26-0.04-0.57,0.18-0.78c0.23-0.22,0.58-0.34,0.92-0.32c10.29,0.84,28.67-4.43,28.84-4.48
					c0.33-0.09,0.71-0.05,0.98,0.12c0.29,0.17,0.45,0.43,0.43,0.72C227.34,243.91,226.2,261.33,212.96,261.33z M198.58,248.58
					c1.46,2.91,5.82,10.23,13.05,10.98c10.46,1.07,12.97-11.16,13.5-15.21C220.66,245.55,207.63,248.85,198.58,248.58z"/>
			</g>
			<g>
				<path class="st1" d="M216.09,261.23c-0.4,0-0.77-0.17-0.96-0.48c-6.34-10.72-5.47-14.1-5.35-14.45c0.15-0.46,0.73-0.71,1.3-0.6
					c0.55,0.12,0.88,0.58,0.74,1.03c-0.01,0.1-0.67,3.32,5.23,13.32c0.25,0.42,0.02,0.92-0.5,1.11
					C216.39,261.22,216.25,261.23,216.09,261.23L216.09,261.23z"/>
			</g>
		</g>
		<g>
			<path class="st1" d="M365.13,371.66c-3.49,0-6.77-2.3-9.72-6.88c-24.55-37.87-49.74-66.89-49.99-67.18l3.47-1.95
				c0.25,0.3,25.59,29.49,50.26,67.57c2.25,3.44,4.45,5.22,6.32,5.02c3.45-0.42,7.08-7,8.08-11.34l4.16,0.6
				c-0.76,3.38-4.54,13.22-11.6,14.09C365.78,371.64,365.46,371.66,365.13,371.66L365.13,371.66z"/>
		</g>
		<g>
			<path class="st1" d="M197,594.13l-4.18-0.53c9.77-50.31,16.86-120.32,16.93-121.03l4.22,0.28
				C213.9,473.55,206.78,543.7,197,594.13L197,594.13z"/>
		</g>
		<g>
			<path class="st1" d="M317.05,586.63c-3.49-43.09-13.31-128.19-13.42-129.04l4.22-0.33c0.1,0.85,9.93,86.02,13.43,129.13
				L317.05,586.63L317.05,586.63z"/>
		</g>
		<g>
			<path class="st12" d="M198.45,592.17c0,0-50.83-21.52-59.31-1.13C130.67,611.42,206.91,601.8,198.45,592.17z"/>
			<path class="st1" d="M162.11,603.92L162.11,603.92c-6.7,0-18.58-0.74-22.99-5.64c-1.86-2.07-2.18-4.59-0.97-7.5
				c2.58-6.21,9.04-9.36,19.2-9.36c17.75,0,40.62,9.6,41.58,10.01l0.37,0.26c1.01,1.15,1.13,2.38,0.34,3.59
				C196.36,600.37,177.22,603.92,162.11,603.92z M157.35,583.11c-9.15,0-14.94,2.76-17.2,8.2c-1,2.39-0.77,4.35,0.69,5.96
				c2.83,3.16,10.58,4.95,21.27,4.95h0c15.48,0,33.14-3.82,35.67-7.74c0.38-0.58,0.36-1.09-0.06-1.65
				C195.2,591.8,173.63,583.11,157.35,583.11z"/>
		</g>
		<g>
			<path class="st12" d="M318.45,581.41c0,0-55.76,1.15-45.88,15.86C282.45,611.98,345.98,601.23,318.45,581.41z"/>
			<path class="st1" d="M294,604.96L294,604.96c-11.1,0-19.25-2.66-22.36-7.29c-1.65-2.46-1.74-4.76-0.24-6.82
				c6.77-9.36,45.39-10.25,47.03-10.29l0.42-0.01l0.31,0.22c7.87,5.66,7.89,10.24,6.54,13.09C322.26,601.07,306.8,604.96,294,604.96
				z M318.06,582.27c-4.24,0.12-39.01,1.36-44.84,9.43c-1.11,1.53-1.03,3.22,0.27,5.15c2.69,4.01,10.36,6.4,20.5,6.4
				c12.26,0,26.73-3.74,29.72-9.98C325.32,589.91,323.41,586.21,318.06,582.27z"/>
		</g>
		<g>
			<g>
				<polygon class="st7" points="266.67,363.98 419.94,340.71 419.94,344.5 274.2,379.16 				"/>
				<path class="st1" d="M273.57,380.2l-8.35-16.85l155.78-23.65v5.46L273.57,380.2z M268.13,364.63l6.7,13.49l144.05-34.25v-2.15
					L268.13,364.63z"/>
			</g>
			<g>
				<polygon class="st7" points="266.67,360.19 415.2,330.6 419.94,340.71 274.2,375.36 				"/>
				<path class="st1" d="M273.57,376.39l-8.33-16.8l150.63-30l5.46,11.68L273.57,376.39z M268.1,360.78l6.73,13.56l143.71-34.17
					l-3.99-8.57L268.1,360.78z"/>
			</g>
			<g>
				<path class="st13" d="M84.06,394.37c0,0,0.82,25.73,14.4,41.29c25.48,29.18,87.6,34.91,109.95-7.53c0,0,27.19,4.04,46.96-4.32
					c26.48-11.18,29.28-34.22,22.09-57.02L84.06,394.37z"/>
				<path class="st1" d="M153.8,459.61L153.8,459.61c-22.03,0-43.57-8.99-56.2-23.46c-13.61-15.6-14.56-40.7-14.6-41.76l-0.02-0.74
					l0.9-0.12l194.36-27.72l0.24,0.76c8.69,27.57,0.65,48.16-22.63,57.99c-10.53,4.45-23.12,5.37-31.82,5.37
					c-7.28,0-12.92-0.62-14.98-0.88C198.54,448.49,178.43,459.61,153.8,459.61z M85.17,395.07c0.26,4.29,2.19,26.4,14.17,40.1
					c12.25,14.03,33.11,22.75,54.46,22.75c24,0,43.56-10.98,53.63-30.12l0.34-0.63l0.83,0.12c0.06,0.02,6.6,0.97,15.43,0.97
					c8.46,0,20.69-0.91,30.84-5.19c28.22-11.92,27.54-36.48,21.79-55.3L85.17,395.07z"/>
			</g>
			<g>
				<path class="st14" d="M185.13,355.46c0,0-64.71-32.8-92.44,9.95c-43.24,66.71,89.18,110.01,113.06,48.38
					c0,0,70.58,16.75,72-38.87C278.94,328.35,201.15,325.12,185.13,355.46z"/>
				<path class="st1" d="M155.31,444.32c-25.3,0-50.87-11.32-63.63-28.16c-11.48-15.18-11.45-33.34,0.07-51.14
					c9.66-14.88,24.73-22.43,44.79-22.43c21.94,0,43.22,9.36,48.11,11.65c6.85-11.8,23.83-19.37,43.64-19.37
					c14.76,0,28.51,4.31,37.69,11.83c8.69,7.1,13.11,16.87,12.83,28.24c-0.93,36.62-32.08,42.08-50.56,42.08h0
					c-10.39,0-18.94-1.59-21.79-2.17C198.81,433.6,180.22,444.32,155.31,444.32z M136.54,344.29c-19.21,0-33.65,7.23-42.91,21.52
					c-14.33,22.11-7.99,39.1-0.14,49.48c12.38,16.35,37.22,27.34,61.82,27.34c24.26,0,42.28-10.6,49.45-29.07l0.3-0.8l1.01,0.23
					c0.1,0.02,9.98,2.34,22.18,2.34c21.63,0,47.6-7.01,48.44-40.42c0.28-10.91-3.94-20.25-12.21-27.01
					c-8.79-7.19-21.98-11.32-36.19-11.32c-19.46,0-36.01,7.55-42.18,19.23l-0.49,0.92l-1.06-0.53
					C184.34,356.07,160.81,344.29,136.54,344.29z"/>
			</g>
			<g>
				<polygon class="st1" points="208.87,428.39 205.09,414.24 207.16,413.88 210.94,428.05 208.87,428.39 				"/>
			</g>
			<g>
				<path class="st7" d="M179.07,383.09c8.03,13.36,3.01,28.65-11.22,34.15c-14.23,5.52-32.28-0.84-40.32-14.19
					c-8.03-13.36-3.01-28.63,11.22-34.14C152.98,363.39,171.04,369.75,179.07,383.09z"/>
				<path class="st1" d="M156.93,420.08c-12.34,0-24.26-6.53-30.35-16.66c-8.27-13.75-3.02-29.59,11.71-35.28
					c3.55-1.38,7.38-2.08,11.38-2.08c12.35,0,24.26,6.55,30.35,16.67c8.28,13.74,3.03,29.57-11.71,35.27
					C164.76,419.39,160.94,420.08,156.93,420.08z M149.67,367.77c-3.68,0-7.2,0.63-10.47,1.89c-13.68,5.3-18.49,20.11-10.72,33.03
					c5.74,9.53,16.9,15.69,28.45,15.69c3.69,0,7.21-0.63,10.47-1.91c13.68-5.29,18.49-20.11,10.72-33.01
					C172.37,373.93,161.21,367.77,149.67,367.77z"/>
			</g>
			<g>
				<path class="st7" d="M124.11,409.87c0.46,0.91-0.1,1.94-1.22,2.3l0,0c-1.14,0.36-2.43-0.08-2.87-0.98l-9.74-19.49
					c-0.45-0.91,0.09-1.94,1.22-2.3l0,0c1.14-0.36,2.43,0.08,2.88,0.98L124.11,409.87z"/>
				<path class="st1" d="M122.07,413.16c-1.35,0-2.54-0.65-3.04-1.66l-9.73-19.49c-0.32-0.65-0.32-1.34,0.02-1.99
					c0.35-0.64,0.98-1.15,1.79-1.4c1.65-0.53,3.6,0.13,4.25,1.46l9.74,19.48c0.67,1.33-0.13,2.87-1.8,3.4
					C122.89,413.09,122.49,413.16,122.07,413.16z M112.33,390.11c-0.15,0-0.29,0.03-0.43,0.09c-0.29,0.08-0.51,0.26-0.62,0.49
					c-0.12,0.22-0.12,0.47-0.01,0.69l9.74,19.49c0.23,0.47,0.91,0.71,1.5,0.52c0.59-0.19,0.87-0.71,0.64-1.19l-9.75-19.49
					C113.21,390.34,112.8,390.11,112.33,390.11z"/>
			</g>
			<g>
				<polygon class="st1" points="112.09,394.41 111.57,392.76 415.26,331.29 415.79,332.94 112.09,394.41 				"/>
			</g>
			<g>
				<polygon class="st1" points="115.25,399.46 114.71,397.82 417.15,333.33 417.69,334.96 115.25,399.46 				"/>
			</g>
			<g>
				<polygon class="st1" points="117.15,403.51 116.6,401.86 417.77,335.85 418.33,337.5 117.15,403.51 				"/>
			</g>
			<g>
				<polygon class="st1" points="119.38,408.3 118.8,406.68 418.08,338.13 418.66,339.77 119.38,408.3 				"/>
			</g>
		</g>
		<g>
			<path class="st4" d="M374.22,332.87c-9.41,4.25-14.82,25.47,4.24,25.47C397.52,358.34,385.52,327.77,374.22,332.87z"/>
			<path class="st1" d="M378.46,359.18c-6.94,0-11.64-2.72-13.27-7.68c-2.19-6.7,2.1-16.49,8.51-19.39c1-0.45,2.05-0.67,3.12-0.67
				c6.84,0,12.7,9.47,12.7,17.24c0,2.98-0.85,5.5-2.48,7.29C385.14,358.08,382.17,359.18,378.46,359.18z M376.83,333.13
				c-0.71,0-1.4,0.16-2.08,0.48c-5.59,2.52-9.45,11.49-7.5,17.46c0.96,2.93,3.68,6.41,11.22,6.41c3.04,0,5.35-0.85,6.87-2.52
				c1.36-1.5,2.08-3.68,2.08-6.29C387.42,341.27,381.87,333.13,376.83,333.13z"/>
		</g>
		<g>
			<path class="st4" d="M151.74,406c-3.21-2.16-11.73-7.38-11.73-7.38s3.35,4.72,5.34,8.77c1.99,4.07-0.02,6.39-2.64,4.19
				c-2.61-2.2-7.8-10.71-7.8-10.71l-0.13,5.43c-0.66,8.25-4.39,8.9-4.69,4.91c-0.31-3.98-1.66-11.03-1.66-11.03s-2.67,9.43-6.55,9.8
				c-3.88,0.36-0.41-4.94,0.06-9.35c0.24-2.17,0.87-4.29,1.1-6.48c0.34-3.12,0.57-6.69,4.77-7.92c5.34-1.59,11.32-0.21,16.96-0.79
				c0.96-0.1,5.59-0.47,5.05,1.43c-0.78,2.74-6.48,3.88-7.46,5.86c-0.97,1.98,6.21,4.72,10.76,8.22
				C157.63,404.47,154.95,408.17,151.74,406z"/>
			<path class="st1" d="M131.57,414.44c-0.54,0-2.33-0.23-2.56-3.16c-0.15-1.99-0.58-4.77-0.95-7.05c-1.27,2.92-3.32,6.33-6.09,6.58
				c-1.37,0.12-2.08-0.3-2.43-0.66c-1.04-1.07-0.46-2.96,0.28-5.35c0.42-1.35,0.89-2.87,1.04-4.25c0.12-1.1,0.35-2.2,0.57-3.29
				c0.21-1.05,0.43-2.12,0.54-3.18l0.04-0.35c0.33-3.08,0.74-6.91,5.42-8.3c1.98-0.58,4.15-0.85,7.05-0.85
				c1.16,0,2.33,0.04,3.5,0.08c2.37,0.08,4.81,0.13,6.66-0.07c0.34-0.03,1.12-0.09,1.99-0.09c1.91,0,3.16,0.32,3.81,0.98
				c0.31,0.3,0.61,0.82,0.4,1.59c-0.52,1.85-2.72,3-4.67,4.03c-1.23,0.64-2.52,1.33-2.84,1.95c-0.31,0.65,2.82,2.47,4.9,3.7
				c1.82,1.07,3.9,2.29,5.6,3.6c2.81,2.17,3.07,4.39,2.44,5.64c-0.81,1.62-3.24,2.01-5.23,0.68c-1.74-1.18-5.12-3.3-7.79-4.97
				c1.01,1.61,2.17,3.57,3.08,5.4c1.08,2.21,1.16,4.21,0.21,5.33c-0.47,0.55-1.17,0.86-1.95,0.86c-0.61,0-1.56-0.2-2.66-1.12
				c-1.68-1.4-4.29-5.17-6.06-7.89l-0.05,2.05C135.42,411.43,133.83,414.44,131.57,414.44z M128.41,399.34c0.01,0,0.02,0,0.03,0
				c0.51,0.02,0.94,0.31,1.02,0.71c0.06,0.3,1.36,7.15,1.67,11.13c0.08,0.92,0.34,1.37,0.48,1.54c0.46-0.29,1.74-1.88,2.11-6.45
				l0.13-5.41c0-0.39,0.35-0.73,0.83-0.81c0.47-0.07,0.96,0.1,1.18,0.46c0.05,0.08,5.15,8.42,7.63,10.5c0.66,0.57,1.05,0.6,1.12,0.6
				c0.62-0.63,0.68-2.02-0.24-3.88c-1.94-3.95-5.24-8.63-5.28-8.67c-0.24-0.34-0.15-0.79,0.23-1.06c0.38-0.26,0.94-0.27,1.34-0.03
				c0.34,0.22,8.57,5.26,11.76,7.43c0.83,0.55,1.58,0.59,1.9-0.02c0.4-0.81-0.04-2.29-1.95-3.77c-1.6-1.24-3.61-2.41-5.39-3.44
				c-3.64-2.15-6.53-3.83-5.61-5.7c0.56-1.13,2.06-1.92,3.65-2.75c1.68-0.89,3.43-1.8,3.76-2.98c-0.11-0.26-0.72-0.5-2.16-0.5
				c-0.75,0-1.43,0.06-1.73,0.08c-1.96,0.22-4.52,0.18-7.01,0.09c-1.14-0.04-2.28-0.09-3.4-0.09c-2.64,0-4.58,0.24-6.31,0.75
				c-3.42,1.01-3.72,3.84-4.04,6.84l-0.04,0.36c-0.12,1.12-0.34,2.2-0.57,3.29c-0.21,1.05-0.43,2.11-0.54,3.18
				c-0.16,1.5-0.66,3.1-1.09,4.52c-0.43,1.37-1.07,3.47-0.67,3.88c0.02,0.02,0.11,0.05,0.28,0.05c2.38-0.22,4.88-5.59,5.87-9.16
				C127.48,399.6,127.91,399.34,128.41,399.34z"/>
		</g>
		<g>
			<path class="st1" d="M128.54,387.91l-4.21-0.26c5.62-59.82,28.4-84.25,29.37-85.26l3.36,2.07
				C156.83,304.7,134.07,329.23,128.54,387.91L128.54,387.91z"/>
		</g>
	</g>
	<g class="st8">
		<path class="st14" d="M248.92,339.94c0,0,40.11,23.15,6,56.91c-16.58,16.42-51.89,5.09-51.89,5.09s-8.47,37.08-63.53,30.86
			c-55.07-6.23-52.6-52.38-52.6-52.38s-16.59,32,32.12,54.63c48.71,22.65,84.72-7.08,86.13-22.36c0,0,39.88,12.18,62.83-11.6
			C290.92,377.31,270.09,341.09,248.92,339.94z"/>
	</g>
	<g>
		<path class="st4" d="M178.15,585.94c0,0-17.47-4.25-17.47,5.1c0,9.34,38.12,2.96,38.12,2.96L178.15,585.94z"/>
		<path class="st1" d="M175.36,596.97c-10.45,0-15.75-1.99-15.75-5.93c0-4.46,3.7-6.91,10.42-6.91c4.27,0,8.25,0.96,8.42,1
			l20.82,8.12c0.41,0.15,0.64,0.51,0.58,0.87c-0.05,0.36-0.39,0.65-0.84,0.72C198.88,594.86,186.09,596.97,175.36,596.97z
			 M170.03,585.83c-8.29,0-8.29,3.92-8.29,5.21c0,3.51,7.41,4.24,13.63,4.24c7.33,0,15.67-1.01,20.09-1.64l-17.77-6.95
			C177.74,586.69,173.94,585.83,170.03,585.83z"/>
	</g>
	<g>
		<path class="st4" d="M318.39,582.12c0,0-46.95,7.22-21.16,14.87C323.02,604.63,318.39,582.12,318.39,582.12z"/>
		<path class="st1" d="M306.64,599.42L306.64,599.42c-2.82,0-6.12-0.55-9.78-1.65c-5.9-1.74-8.64-3.64-8.42-5.84
			c0.6-5.86,24.88-9.88,29.74-10.63c0.28-0.05,0.58,0.01,0.82,0.13c0.23,0.13,0.39,0.34,0.43,0.57c0.08,0.36,1.84,9.29-3.41,14.24
			C313.79,598.35,310.63,599.42,306.64,599.42z M317.48,583.12c-10.67,1.73-26.57,5.51-26.92,8.95c-0.07,0.73,0.74,2.24,7.04,4.1
			c3.43,1.02,6.47,1.54,9.05,1.54l0,0c3.34,0,5.95-0.87,7.76-2.58C318.15,591.6,317.76,585.41,317.48,583.12z"/>
	</g>
</g>
</svg>
