<?xml version="1.0" encoding="utf-8"?>
<!-- Generator: Adobe Illustrator 23.0.5, SVG Export Plug-In . SVG Version: 6.00 Build 0)  -->
<svg version="1.1" id="Layer_1" xmlns="http://www.w3.org/2000/svg" xmlns:xlink="http://www.w3.org/1999/xlink" x="0px" y="0px"
	 viewBox="0 0 480 640" style="enable-background:new 0 0 480 640;" xml:space="preserve">
<style type="text/css">
	.st0{fill:#A85802;}
	.st1{fill:#0A0A0A;}
	.st2{fill:#98672F;}
	.st3{fill:#D92231;}
	.st4{fill:#FFC54D;}
	.st5{fill:#DD5B4E;}
	.st6{fill:#5F69B5;}
	.st7{opacity:0.5;}
	.st8{fill:#D76B2A;}
</style>
<g>
	<g>
		<g>
			<g>
				<path class="st0" d="M274.56,217.21C312.54,139.07,289,75.55,289,75.55c-79.87,50.62-162.52,9.5-162.52,9.5
					c-48.47,89.63,21.72,131.96,21.72,131.96c13.1,8.62,40.33,19.62,81.49,21.9c45.89,2.55,65.34-16.88,65.34-16.88
					C288.56,221.35,274.56,217.21,274.56,217.21z"/>
				<path class="st1" d="M237.86,239.98L237.86,239.98c-2.7,0-5.48-0.08-8.23-0.23c-49.13-2.72-75.22-17.58-82.04-22.06
					c-0.68-0.41-70.28-43.73-22.02-132.99c0.12-0.22,0.33-0.38,0.61-0.44c0.25-0.08,0.55-0.05,0.79,0.06
					c0.32,0.17,31.96,15.66,74.26,15.66c0.01,0,0.01,0,0.01,0c31.58,0,60.91-8.44,87.16-25.1c0.25-0.16,0.59-0.2,0.89-0.12
					c0.31,0.08,0.54,0.29,0.64,0.56c0.24,0.63,23.06,64.25-14.05,141.38c3.29,0.95,13.95,3.93,19.28,4.51
					c0.35,0.04,0.66,0.24,0.79,0.53c0.13,0.29,0.07,0.62-0.17,0.86C295.07,223.3,277.91,239.98,237.86,239.98z M126.93,86.24
					c-46.67,87.38,21.16,129.66,21.85,130.1c6.74,4.42,32.42,19.04,80.97,21.73c2.73,0.16,5.45,0.23,8.11,0.23
					c33.09,0,50.47-11.94,55.13-15.69c-6.93-1.13-18.23-4.45-18.76-4.6c-0.25-0.08-0.47-0.24-0.57-0.46
					c-0.11-0.2-0.12-0.44-0.02-0.66c34.64-71.28,17.68-130.99,14.79-139.92c-26.3,16.38-55.64,24.69-87.19,24.69h-0.01
					C162.51,101.66,132.58,88.82,126.93,86.24z"/>
			</g>
			<g>
				<path class="st2" d="M331.53,224.17c0,0,60.5-178.58-74.32-182.57c0,0-42.37-31.57-98.6-7.02
					C102.4,59.12,30.01,173.08,30.01,173.08s54.24,34.41,118.2,43.93c0,0-70.2-42.32-21.72-131.96c0,0,82.65,41.12,162.52-9.5
					c0,0,23.54,63.52-14.44,141.65c0,0,14,4.14,20.48,4.82C295.04,222.03,322.25,226.76,331.53,224.17z"/>
				<path class="st1" d="M323.5,225.79L323.5,225.79c-11.66,0-28.49-2.91-28.66-2.93c-6.44-0.7-20.02-4.69-20.61-4.86
					c-0.25-0.08-0.47-0.24-0.57-0.46c-0.11-0.2-0.12-0.44-0.02-0.66c34.64-71.28,17.68-130.99,14.79-139.92
					c-26.31,16.38-55.64,24.69-87.19,24.69c-38.72,0-68.67-12.84-74.32-15.42c-45.61,85.4,18.15,127.74,21.7,130
					c0.35,0.12,0.61,0.43,0.61,0.77c0,0.47-0.48,0.92-1.01,0.85c-0.07-0.01-0.14,0-0.19-0.01c-63.46-9.44-118.08-43.74-118.62-44.08
					c-0.39-0.25-0.52-0.71-0.29-1.07c0.73-1.15,73.19-114.48,129.04-138.86c14.34-6.27,29.07-9.44,43.77-9.44
					c31.3,0,52.98,14.5,55.64,16.38c29.31,0.93,51.7,10.22,66.57,27.64c43.3,50.71,8.69,154.94,8.33,155.98
					c-0.09,0.27-0.33,0.49-0.64,0.58C329.9,225.51,327.09,225.79,323.5,225.79z M275.89,216.7c3.29,0.95,13.95,3.93,19.28,4.51
					c0.24,0.04,16.88,2.9,28.33,2.9l0,0c3.08,0,5.49-0.21,7.22-0.61c2.41-7.44,33.12-105.72-8.18-154.09
					C307.99,52.38,286,43.3,257.17,42.44c-0.23-0.01-0.45-0.07-0.61-0.2c-0.23-0.16-22.11-16.16-54.63-16.16
					c-14.38,0-28.81,3.11-42.87,9.25C105.94,58.52,37.27,163.56,31.29,172.84c6.39,3.91,55.78,33.24,113.3,42.75
					c-13.01-9.68-61.31-52.63-19.01-130.9c0.12-0.22,0.33-0.38,0.61-0.44c0.25-0.08,0.55-0.05,0.79,0.06
					c0.32,0.17,31.97,15.66,74.27,15.66c31.58,0,60.91-8.44,87.16-25.1c0.25-0.16,0.59-0.2,0.89-0.12c0.31,0.08,0.54,0.29,0.64,0.56
					C290.17,75.94,312.99,139.56,275.89,216.7z"/>
			</g>
		</g>
		<g>
			<path d="M224.57,138.12c0.7,4.62-2.05,8.75-6.14,9.19c-4.07,0.45-7.95-2.94-8.65-7.58c-0.71-4.64,2.04-8.76,6.13-9.19
				C219.98,130.09,223.86,133.48,224.57,138.12z"/>
		</g>
		<g>
			<path d="M148.9,131.62c0.01,5.26-3.12,9.65-6.98,9.8c-3.85,0.15-6.99-3.98-6.99-9.25c-0.01-5.24,3.12-9.63,6.98-9.78
				C145.76,122.23,148.9,126.36,148.9,131.62z"/>
		</g>
		<g>
			<path class="st1" d="M180.93,212.42c-29.81-4.54-39.28-22.19-39.39-22.41c-0.22-0.42,0.02-0.92,0.51-1.1
				c0.49-0.19,1.08,0,1.3,0.44c0.12,0.22,12.01,22.24,51.6,22.44c37.35,0.2,40-28.64,40.03-28.92c0.04-0.47,0.51-0.81,1.04-0.79
				c0.52,0.04,0.96,0.44,0.92,0.9c-0.03,0.31-2.82,30.71-42.01,30.49C189.82,213.44,185.17,213.07,180.93,212.42L180.93,212.42z"/>
		</g>
		<g>
			<path class="st3" d="M196.14,212.55c0,0,4.81,11.52,14.03,12.27c12.94,1.04,11.07-18.31,11.07-18.31S210.54,213.44,196.14,212.55
				z"/>
			<path class="st1" d="M211.16,225.7c-0.35,0-0.7-0.01-1.09-0.05c-9.72-0.8-14.67-12.32-14.87-12.81c-0.11-0.27-0.06-0.57,0.15-0.8
				c0.2-0.23,0.53-0.36,0.86-0.32c13.93,0.86,24.34-5.81,24.43-5.88c0.28-0.19,0.67-0.23,1-0.1c0.34,0.13,0.56,0.39,0.59,0.69
				c0.05,0.48,1.07,11.73-4.44,16.81C216.04,224.88,213.81,225.7,211.16,225.7z M197.65,213.47c1.48,2.88,5.84,9.95,12.62,10.49
				c2.54,0.23,4.48-0.41,6.06-1.86c3.82-3.52,4.08-10.89,4-14.04C217,209.86,208.52,213.7,197.65,213.47z"/>
		</g>
		<g>
			<path class="st1" d="M213.87,224.79c-0.3-0.04-0.57-0.2-0.71-0.44c-6.18-10.21-6.29-12.59-6.26-12.96
				c0.05-0.47,0.54-0.81,1.07-0.77c0.47,0.04,0.92,0.43,0.9,0.87c0.01,0.17,0.22,2.49,6.05,12.08c0.25,0.41,0.05,0.93-0.43,1.14
				C214.29,224.8,214.07,224.83,213.87,224.79L213.87,224.79z"/>
		</g>
		<g>
			<path class="st4" d="M152.91,340.23l-37.01,17.9c0,0,6.2,73.29,95,82.11c88.81,8.83,112.82-62,112.82-62l-29.5-17.77
				L152.91,340.23z"/>
			<path class="st1" d="M225.86,441.85L225.86,441.85c-4.9,0-9.96-0.26-15.08-0.77c-88.6-8.81-95.82-82.15-95.89-82.89l-0.04-0.53
				l37.87-18.3l0.34,0.04l141.54,20.28l30.25,18.22l-0.19,0.57C324.45,379.1,302.29,441.85,225.86,441.85z M116.94,358.59
				c0.81,6.6,11.06,72.58,94.07,80.81c5.05,0.51,10.03,0.76,14.85,0.77c71.07,0,94.3-55.35,96.69-61.6l-28.73-17.3l-140.74-20.16
				L116.94,358.59z"/>
		</g>
		<g>
			<g>
				<path class="st5" d="M281.56,230.26c0,0-5.2,2.46-14.07,4.73l-15,16.8l-16.76-13.09c-5.32-0.08-10.91-0.48-16.77-1.43
					c0,0-129.79,113.79-26.08,157C296.61,437.47,331.2,314.88,281.56,230.26z"/>
				<path class="st1" d="M233.05,404.08L233.05,404.08c-12.53,0-26.19-3.06-40.61-9.06c-22.78-9.49-36.15-23.17-39.75-40.66
					c-10.35-50.44,64.78-117.01,65.55-117.67l0.37-0.34l0.54,0.09c5.35,0.86,10.79,1.32,16.6,1.41h0.38l16.24,12.7l14.53-16.29
					l0.32-0.07c8.64-2.22,13.81-4.64,13.88-4.67l0.9-0.43l0.46,0.78c28.25,48.15,29.93,111.42,3.91,147.16
					C273.45,394.72,255.03,404.08,233.05,404.08z M219.3,238.18c-5.68,5.1-74.45,68.08-64.64,115.9
					c3.47,16.92,16.48,30.2,38.66,39.43c14.14,5.89,27.51,8.87,39.73,8.87c21.27,0,39.1-9.07,51.6-26.23
					c25.55-35.1,23.99-97.18-3.54-144.74c-1.85,0.79-6.37,2.58-13.03,4.31l-15.46,17.33l-17.29-13.5
					C229.75,239.44,224.48,238.98,219.3,238.18z"/>
			</g>
			<g>
				<path class="st0" d="M267.49,235c-7.97,2.04-18.96,3.9-31.75,3.71l18.25,15.6L267.49,235z"/>
				<path class="st1" d="M253.46,254.73c-0.25,0-0.48-0.08-0.68-0.22l-17.72-15.19c-0.31-0.23-0.41-0.6-0.25-0.93
					c0.15-0.33,0.52-0.59,0.93-0.53c13.38,0.22,24.58-1.91,31.46-3.67c0.4-0.11,0.86,0.03,1.09,0.32c0.26,0.31,0.26,0.71-0.02,1
					l-14.03,18.89c-0.18,0.19-1.39-1.78-1.68-1.76C252.54,252.64,253.49,254.73,253.46,254.73z M238.29,239.56l15.03,13.09
					l11.58-16.15C258.36,237.99,249.13,239.5,238.29,239.56z"/>
			</g>
		</g>
		<g>
			<path class="st4" d="M236.49,257.64c0,0-4.47-13.82-2.23-18.04c2.21-4.24,15.81,12.97,19.27,14.06
				c3.48,1.1,10.75-16.34,17.25-18.49c6.5-2.15-1.09,25.8-1.09,25.8s-2.42,1.92-15.71-6.68
				C253.98,254.31,237.36,264.62,236.49,257.64z"/>
			<path class="st1" d="M268.76,262.01c-2.01,0-6.2-1.16-14.8-6.66c-2.19,1.31-9.71,5.56-14.32,5.56c-2.41,0-3.9-1.14-4.14-3.18
				c-0.44-1.31-4.47-14.1-2.17-18.47c0.4-0.76,1.11-1.16,2.03-1.16c2.55,0,6.36,3.55,11.88,8.98c2.61,2.57,5.56,5.47,6.63,5.81
				c1.06,0,3.95-4.25,5.88-7.07c3.25-4.77,6.94-10.19,10.65-11.43c1.11-0.37,2.14-0.14,2.83,0.6c3.33,3.55-1.55,22.44-2.58,26.19
				l-0.07,0.25l-0.22,0.18C270.18,261.75,269.72,262.01,268.76,262.01z M255.32,254.12c9.07,5.76,12.54,6.26,13.53,6.2
				c2.24-8.42,4.92-22.06,2.83-24.29c-0.25-0.25-0.25-0.17-0.55-0.06c-3.06,1-6.72,6.38-9.66,10.69
				C258.81,250.55,257,253.14,255.32,254.12z M235.36,239.78c-0.08,0-0.12,0-0.21,0.17c-1.72,3.24,1.07,13.71,2.29,17.46
				c0.18,1.33,0.81,1.8,2.2,1.8c3.49,0,9.81-3.27,12.86-5.05c-1.46-0.83-3.62-2.89-6.76-5.99
				C242.35,244.83,237.2,239.78,235.36,239.78z"/>
		</g>
		<g>
			<path class="st1" d="M157.5,311.14c-6.14-4.6-36.77-28.03-36.57-36.37c0.04-1.46,0.86-2.33,1.54-2.8
				c7.22-5,92.13-34.98,95.73-36.25l1.53,3.12c-24.45,8.61-89.12,31.84-94.75,35.75c-0.19,5.49,21.47,23.75,35.16,34.03
				L157.5,311.14L157.5,311.14z"/>
		</g>
		<g>
			<path class="st1" d="M304.89,323.9l-2.34-2.73c27.22-16.89,56.29-37.68,55.73-41.8c-4.41-4.14-50.96-33.42-74.94-48.3l2.34-2.72
				c2.85,1.77,69.72,43.29,75.67,48.96c0.47,0.45,1.03,1.27,0.87,2.49C361.12,288.59,314.28,318.09,304.89,323.9L304.89,323.9z"/>
		</g>
		<g>
			<path class="st1" d="M212.5,576.08c-29.56-39.22-16.82-133.95-16.26-137.96l3.94,0.39c-0.13,0.97-13.14,97.54,15.67,135.76
				L212.5,576.08L212.5,576.08z"/>
		</g>
		<g>
			<path class="st1" d="M384.19,513.98c-29.65-45.47-81.47-101.65-81.99-102.19l3.12-2.09c0.54,0.56,52.54,56.94,82.34,102.64
				L384.19,513.98L384.19,513.98z"/>
		</g>
		<g>
			<path class="st6" d="M197.9,594.96c5.79-13.01,6.81-25.09,39.33-19.28c32.53,5.82,49.42,21.24,11.36,32.13
				C210.53,618.7,190.23,612.2,197.9,594.96z"/>
			<path class="st1" d="M216.75,614c-9.36,0-16.01-2.1-19.25-6.08c-2.71-3.34-2.9-7.92-0.53-13.27c0.59-1.31,1.12-2.61,1.64-3.88
				c3.69-8.96,7.15-17.42,24.07-17.42c4.21,0,9.03,0.49,14.75,1.5c20.11,3.61,33.42,10.67,33.93,17.98
				c0.31,4.18-3.38,10.31-22.48,15.78C236.42,612.19,225.6,614,216.75,614z M222.69,575.03c-15.51,0-18.46,7.19-22.2,16.29
				c-0.53,1.29-1.08,2.61-1.66,3.93c-2.17,4.88-2.06,8.81,0.29,11.71c2.84,3.5,8.95,5.35,17.62,5.35c8.52,0,19.42-1.83,31.52-5.29
				c14-4,21.49-9,21.13-14.08c-0.45-6.45-13.46-13.06-32.38-16.44C231.46,575.52,226.75,575.03,222.69,575.03z"/>
		</g>
		<g>
			<g>
				<path class="st6" d="M382.34,546.86c-6.37-7.63-3.44-26.64,5.84-37.22c9.28-10.57,45.69-42.27,57.19-37.09
					C456.86,477.72,404.86,573.83,382.34,546.86z"/>
				<path class="st1" d="M391.78,552.47c-3.97,0-7.42-1.73-10.24-5.12c-6.7-8-3.74-27.29,5.85-38.21c7.77-8.84,40.11-38,55-38
					c1.31,0,2.45,0.23,3.43,0.67c2.62,1.18,2.87,5.24,0.78,12.41C439.95,506.98,411.57,552.47,391.78,552.47z M442.39,472.83
					c-13.32,0-45.26,28.02-53.42,37.31c-8.98,10.24-11.98,28.85-5.83,36.22c2.45,2.93,5.35,4.42,8.64,4.42
					c18.22,0,46.28-44.34,52.9-66.98c2.03-6.92,1.45-9.96,0.21-10.52C444.21,472.98,443.38,472.83,442.39,472.83z"/>
			</g>
			<g>
				<path class="st1" d="M395.39,551.84c-0.28-0.04-0.93-0.21-1.46-0.98c-1.92-2.74-1.39-11.76,11.95-39.13
					c18.68-38.29,38.56-39.97,39.4-40.02c0.56-0.03,1.02,0.32,1.07,0.77c0.04,0.47-0.38,0.86-0.92,0.91
					c-0.19,0.01-19.59,1.81-37.71,38.99c-16.99,34.86-11.94,37.79-11.89,37.82c0.53,0.08,0.87,0.46,0.82,0.92
					c-0.07,0.46-0.64,0.77-1.18,0.72C395.44,551.85,395.42,551.84,395.39,551.84L395.39,551.84z"/>
			</g>
		</g>
		<g>
			<path class="st0" d="M131.42,332.24c8.63,6.88,38.18-30.57,28.58-25.61C150.4,311.6,115.46,319.54,131.42,332.24z"/>
			<path class="st1" d="M134.02,333.94c-0.54,0-0.98-0.38-0.98-0.85c0-0.47,0.44-0.84,0.98-0.84c8.5,0,26.32-21.59,26.87-25.32
				c-0.32-0.15-0.52-0.42-0.52-0.75c0-0.47,0.43-0.84,0.98-0.84c0.48,0,0.9,0.17,1.19,0.47c0.23,0.26,0.34,0.57,0.34,0.95
				C162.88,311.25,143.44,333.94,134.02,333.94z"/>
		</g>
		<g>
			<path class="st0" d="M308.05,320.34c0,0,33.94,3.88,29.33,18.6C332.77,353.64,291.46,317.82,308.05,320.34z"/>
			<path class="st1" d="M332.25,343.34c-10.38,0-29.09-16.01-29.09-21.5c0-0.97,0.5-1.54,0.92-1.84c0.59-0.43,1.41-0.64,2.48-0.64
				c0.54,0,0.98,0.38,0.98,0.84c0,0.47-0.44,0.85-0.98,0.85c-0.56,0-0.99,0.09-1.2,0.23c-0.05,0.05-0.21,0.17-0.21,0.55l0,0
				c0,4.68,17.94,19.81,27.11,19.81c0.54,0,0.99,0.38,0.99,0.86C333.24,342.96,332.79,343.34,332.25,343.34z"/>
		</g>
	</g>
	<g class="st7">
		<path class="st5" d="M275.32,232.74c0,0,50.36,115.69-27.2,144.82c-58.36,21.94-93.92-29.13-93.92-29.13s1.03,54.22,81.7,55.26
			c77.7,0.98,78.89-135.25,45.65-173.42L275.32,232.74z"/>
	</g>
	<g class="st7">
		<path class="st4" d="M238.39,404.62c0,0,28.53-4.79,36.58,11.28c8.02,16.07-34.17,25.05-34.17,25.05s53.65-4.39,82.91-62.71
			l-29.5-17.77C294.21,360.47,286.13,394.78,238.39,404.62z"/>
	</g>
	<g class="st7">
		<path class="st8" d="M263.33,92.2c0,0,29.46,51.31,3.24,99.25c-26.24,47.93-94.32,36.43-94.32,36.43s81.02,26.61,122.79-5.84
			l-20.48-4.82c0,0,34.4-70.68,14.44-141.65L263.33,92.2z"/>
	</g>
	<g>
		<path class="st1" d="M163.54,87.99c-8.02-1.22-16.35-2.89-24.97-5.11c-0.53-0.13-0.83-0.59-0.66-1.05
			c0.16-0.44,0.72-0.68,1.23-0.56c89.22,22.84,147.26-11.97,147.83-12.33c0.46-0.26,1.08-0.18,1.39,0.19
			c0.32,0.38,0.22,0.89-0.22,1.19C287.62,70.64,239.5,99.57,163.54,87.99L163.54,87.99z"/>
	</g>
	<g>
		<path class="st1" d="M185.04,76.18c-5.28-0.81-10.67-1.87-16.15-3.23c-0.54-0.13-0.83-0.6-0.68-1.05c0.16-0.44,0.73-0.7,1.24-0.56
			c61.1,15.17,111.18-7.41,111.69-7.64c0.48-0.22,1.09-0.07,1.33,0.34c0.26,0.41,0.09,0.92-0.39,1.15
			C281.62,65.4,239.37,84.46,185.04,76.18L185.04,76.18z"/>
	</g>
</g>
</svg>
