<?xml version="1.0" encoding="utf-8"?>
<!-- Generator: Adobe Illustrator 23.0.5, SVG Export Plug-In . SVG Version: 6.00 Build 0)  -->
<svg version="1.1" id="Layer_1" xmlns="http://www.w3.org/2000/svg" xmlns:xlink="http://www.w3.org/1999/xlink" x="0px" y="0px"
	 viewBox="0 0 480 640" style="enable-background:new 0 0 480 640;" xml:space="preserve">
<style type="text/css">
	.st0{fill:#0A0A0A;}
	.st1{fill:#FFA4A6;}
	.st2{opacity:0.5;}
	.st3{fill:#A85802;}
	.st4{fill:#B8A3D3;}
	.st5{clip-path:url(#SVGID_2_);}
	.st6{fill:#D0BDE1;}
	.st7{fill:#D75C52;}
	.st8{fill:#D92231;}
	.st9{fill:#FFFFFF;}
	.st10{fill:#FFEF1C;}
	.st11{opacity:0.7;}
	.st12{fill:#D76B2A;}
</style>
<g>
	<g>
		<g>
			<path class="st0" d="M357.21,583.09c0.69-0.06,1.29-0.48,1.62-1.12c0.49-1.02,1.26-7.65,0.2-8.13
				c-15.66-6.98-58.04-22.29-60.37-34.45c-2.96-15.29,6.83-62.64,6.94-63.12c0.21-1.1-0.51-2.17-1.67-2.37
				c-1.13-0.19-2.26,0.5-2.48,1.59c-0.42,1.97-10.04,48.58-6.98,64.61c3.18,16.38,52.78,34.31,58.74,36.98
				C353.61,577.25,356.8,583.16,357.21,583.09L357.21,583.09z"/>
		</g>
		<g>
			<path class="st0" d="M294.43,592.83c0.25-0.03,0.54-0.12,0.77-0.25c1.02-0.56,1.36-1.79,0.78-2.72
				c-22.3-36.95-40.04-93.79-40.24-94.36c-0.31-1.08-1.5-1.66-2.62-1.36c-1.12,0.3-1.77,1.42-1.43,2.48
				c0.18,0.6,18.06,57.85,40.61,95.21C292.75,592.58,293.63,592.93,294.43,592.83L294.43,592.83z"/>
		</g>
		<g>
			<path class="st1" d="M318.58,422.28c32.82-60.19-11.5-86.27-11.5-86.27s10.66-29.16,29.13-24.84c18.46,4.27,17.53,22,23.4,32.74
				c5.87,10.7,27.78,4.33,33.86,40.83c6.39,38.4-35.64,24.37-35.19,51.4c0.43,26.97-15.34,51.25-51.66,41.38
				c-13.37-3.64-22.78,24.25-55.87,17.59c-16.19-3.27-19.93-23.72-19.93-23.72s-42.86,4.33-27.06-43.11
				C222.75,456.55,285.77,482.49,318.58,422.28z"/>
			<path class="st0" d="M250.54,496.07c-14.94-2.99-19.62-19.55-20.57-23.64c-0.48,0.04-1.12,0.05-1.86,0.05
				c-4.98,0-17.32-0.96-24.13-9.76c-5.95-7.71-6.35-19.38-1.24-34.75c0.13-0.35,0.46-0.62,0.86-0.68c0.42-0.05,0.82,0.13,1.04,0.46
				c10.04,14.96,33.39,30.11,58.54,30.11c15.88,0,38.22-6.25,54.47-36.03c31.96-58.65-9.37-83.92-11.13-84.95
				c-0.43-0.25-0.6-0.74-0.45-1.19c0.39-1.06,9.68-25.98,26.43-25.98c1.3,0,2.66,0.17,3.96,0.49c13.95,3.23,17.34,13.92,20.3,23.35
				c1.14,3.6,2.19,7.02,3.8,9.88c1.73,3.22,5.08,4.76,9.33,6.71c8.64,3.98,20.42,9.37,24.61,34.43
				c3.67,21.95-8.35,27.54-18.96,32.45c-8.8,4.08-16.39,7.63-16.2,19.07c0.22,14.85-4.19,27.41-12.47,35.38
				c-9.53,9.17-23.52,11.62-40.54,7.01c-4.67-1.27-9.33,2.12-14.82,6.28c-7.35,5.52-16.46,12.38-30.85,12.38
				C257.42,497.13,254,496.79,250.54,496.07z M306.92,476.54c16.21,4.4,29.46,2.16,38.43-6.49c7.88-7.6,12.1-19.64,11.87-33.91
				c-0.2-12.75,8.73-16.91,17.4-20.93c10.43-4.85,21.22-9.86,17.81-30.33c-3.98-24-14.79-28.97-23.47-32.94
				c-4.4-2.02-8.22-3.78-10.31-7.59c-1.64-3.03-2.75-6.53-3.92-10.24c-2.94-9.34-5.98-19.02-18.78-21.98
				c-1.13-0.28-2.33-0.42-3.45-0.42c-13.74,0-22.48,19.85-24.14,23.9c5.67,3.81,41.71,31.1,11.17,87.13
				c-16.72,30.68-39.86,37.13-56.34,37.13c-24.91,0-48.12-14.44-59.07-29.27c-4.22,13.7-3.69,24.11,1.58,30.9
				c6.24,8.07,17.73,8.96,22.42,8.96c1.6,0,2.56-0.09,2.6-0.09c0.53-0.02,1.06,0.32,1.14,0.84c0.05,0.19,3.83,19.85,19.11,22.91
				c3.37,0.67,6.6,1.01,9.69,1.01c13.67,0,22.46-6.64,29.52-11.96c4.99-3.77,9.29-6.99,14.02-6.99
				C305.1,476.18,306.02,476.31,306.92,476.54z"/>
		</g>
		<g class="st2">
			<path class="st1" d="M308.41,335.31c0,0,15.91-2.61,19.22,14.2c0,0,20.27,10.49,8.94,31.55c0,0,8.75,13.81-6.65,23.73
				c0,0,10.94,30.52-29.97,45.1c0,0-28.69,26.66-62.19,8.3c0,0-38.08-6.11-33.85-28.24c0,0,74.06,60.66,109.81-20.7
				C331.13,369.61,308.41,335.31,308.41,335.31z"/>
		</g>
		<g>
			<g>
				<path class="st3" d="M203.94,341.64c-11.54,0.38-16.63-9.81-18.87-18.93c4.6,0.22,21.67,0.82,40.21-2.2
					C224,329.34,219.39,341.09,203.94,341.64z"/>
				<path class="st0" d="M184.04,322.94c-0.06-0.3,0-0.62,0.23-0.87c0.21-0.25,0.53-0.38,0.88-0.37c1.46,0.09,4.54,0.21,8.71,0.21
					c7.52,0,19.07-0.43,31.21-2.37c0.36-0.06,0.71,0.02,0.94,0.25c0.22,0.21,0.35,0.55,0.3,0.86c-1.98,13.73-9.91,21.53-22.33,21.98
					l-0.71,0.01l0,0C193.86,342.65,187.2,335.83,184.04,322.94z M193.86,323.92c-3.15,0-5.72-0.06-7.43-0.13
					c2.21,7.98,6.88,16.84,16.85,16.84l0.62-0.02c13.72-0.46,18.54-10.21,20.11-18.87C212.23,323.54,201.16,323.92,193.86,323.92z"
					/>
			</g>
			<g>
				<path class="st4" d="M183.84,322.66c0,0,0.49,0.01,1.24,0.06c2.24,9.11,7.33,19.31,18.87,18.93
					c15.45-0.55,20.06-12.3,21.34-21.13c18.13-2.91,37.66-9.24,48.33-22.69c0,0,11.19,32.35,33.46,38.18c0,0,44.32,26.09,11.5,86.27
					c-32.81,60.21-95.83,34.27-114.82,6C203.76,428.28,172.27,393.9,183.84,322.66z"/>
				<path class="st0" d="M202.95,428.93c-0.3-0.34-31.66-35.54-20.17-106.46c0.1-0.49,0.55-0.89,1.13-0.83l1.24,0.06
					c0.45,0.04,0.87,0.35,0.94,0.77c2.04,8.29,6.69,18.15,17.19,18.15l0.62-0.02c14.44-0.49,19.03-11.27,20.33-20.23
					c0.06-0.44,0.4-0.77,0.84-0.84c22.81-3.7,38.85-11.19,47.69-22.32c0.23-0.3,0.62-0.47,1.01-0.39c0.39,0.06,0.7,0.33,0.84,0.68
					c0.11,0.32,11.29,31.91,32.74,37.53c0.11,0.01,0.19,0.05,0.27,0.11c0.45,0.25,44.78,27.25,11.9,87.59
					c-16.72,30.68-39.86,37.13-56.34,37.13h-0.02C237.28,459.87,213.22,444.24,202.95,428.93z M273.25,299.88
					c-9.27,10.64-25.07,17.85-47.03,21.51c-2.16,13.25-10.04,20.81-22.23,21.24l-0.71,0.01c-8.95,0-15.39-6.16-18.72-17.79
					c-10.43,68.52,19.68,102.43,20.08,102.88c10.04,14.96,33.39,30.11,58.54,30.11c15.88,0,38.22-6.25,54.47-36.03
					c31.41-57.63-7.98-83.06-11.02-84.89C286.93,331.67,275.96,306.79,273.25,299.88z"/>
			</g>
			<g>
				<defs>
					<path id="SVGID_1_" d="M185.04,323.93c0,0,0.46,0.04,1.22,0.07c2.19,8.96,7.16,18.96,18.53,18.56
						c15.17-0.56,19.69-12.06,20.95-20.72c17.81-2.88,37-9.11,47.49-22.27c0,0,11,31.75,32.89,37.45c0,0,43.55,25.59,11.29,84.69
						c-32.24,59.09-94.18,33.65-112.84,5.9C204.58,427.62,173.66,393.87,185.04,323.93z"/>
				</defs>
				<clipPath id="SVGID_2_">
					<use xlink:href="#SVGID_1_"  style="overflow:visible;"/>
				</clipPath>
				<g class="st5">
					<g>
						<path class="st6" d="M268.85,322.33c0.31,2.18,2.47,3.71,4.78,3.41c2.33-0.33,3.94-2.35,3.6-4.53
							c-0.32-2.22-2.45-3.75-4.79-3.43C270.14,318.09,268.52,320.12,268.85,322.33z"/>
					</g>
					<g>
						<path class="st6" d="M285.3,345.5c0.33,2.21,2.45,3.73,4.79,3.42c2.33-0.31,3.91-2.33,3.59-4.55
							c-0.32-2.19-2.44-3.73-4.78-3.4C286.58,341.25,284.99,343.3,285.3,345.5z"/>
					</g>
					<g>
						<path class="st6" d="M311.38,360.81c0.33,2.2,2.45,3.75,4.78,3.42c2.32-0.31,3.94-2.33,3.61-4.54
							c-0.33-2.19-2.46-3.73-4.8-3.44C312.65,356.59,311.04,358.61,311.38,360.81z"/>
					</g>
					<g>
						<path class="st6" d="M285.23,370.38c0.33,2.21,2.49,3.73,4.79,3.43c2.34-0.33,3.93-2.35,3.63-4.54
							c-0.35-2.2-2.48-3.74-4.79-3.43C286.54,366.15,284.91,368.19,285.23,370.38z"/>
					</g>
					<g>
						<path class="st6" d="M261.09,396.96c0.32,2.2,2.47,3.73,4.78,3.42c2.34-0.33,3.93-2.33,3.6-4.56
							c-0.31-2.2-2.46-3.71-4.79-3.42C262.37,392.72,260.77,394.74,261.09,396.96z"/>
					</g>
					<g>
						<path class="st6" d="M303.11,420.54c0.3,2.2,2.46,3.74,4.77,3.4c2.33-0.29,3.94-2.32,3.61-4.52
							c-0.32-2.21-2.46-3.74-4.78-3.44C304.38,416.31,302.77,418.33,303.11,420.54z"/>
					</g>
					<g>
						<path class="st6" d="M272.31,423.87c0.3,2.23,2.45,3.75,4.79,3.44c2.3-0.33,3.92-2.33,3.57-4.56c-0.3-2.2-2.44-3.73-4.77-3.41
							C273.58,419.66,271.97,421.67,272.31,423.87z"/>
					</g>
					<g>
						<path class="st6" d="M288.16,444.35c0.34,2.2,2.46,3.73,4.79,3.43c2.32-0.32,3.91-2.32,3.61-4.55
							c-0.34-2.2-2.48-3.73-4.79-3.4C289.45,440.11,287.83,442.16,288.16,444.35z"/>
					</g>
					<g>
						<path class="st6" d="M240.66,417.95c0.31,2.2,2.47,3.73,4.78,3.43c2.32-0.33,3.94-2.36,3.59-4.55
							c-0.31-2.21-2.44-3.75-4.76-3.43C241.95,413.71,240.32,415.75,240.66,417.95z"/>
					</g>
					<g>
						<path class="st6" d="M256.69,444.99c0.32,2.21,2.45,3.74,4.78,3.43c2.34-0.32,3.95-2.34,3.62-4.55
							c-0.33-2.19-2.48-3.72-4.8-3.4C257.97,440.76,256.37,442.79,256.69,444.99z"/>
					</g>
					<g>
						<path class="st6" d="M229.75,438.18c0.32,2.2,2.45,3.73,4.8,3.41c2.3-0.31,3.91-2.32,3.57-4.54
							c-0.31-2.19-2.44-3.72-4.77-3.41C231.01,433.94,229.42,435.97,229.75,438.18z"/>
					</g>
					<g>
						<path class="st6" d="M216.52,404.92c0.34,2.21,2.48,3.73,4.78,3.42c2.33-0.32,3.93-2.34,3.61-4.54
							c-0.31-2.2-2.46-3.75-4.79-3.42C217.81,400.69,216.21,402.71,216.52,404.92z"/>
					</g>
					<g>
						<path class="st6" d="M233.1,381.39c0.31,2.2,2.47,3.74,4.78,3.43c2.31-0.32,3.94-2.36,3.61-4.55
							c-0.33-2.19-2.48-3.75-4.79-3.42C234.4,377.16,232.76,379.19,233.1,381.39z"/>
					</g>
					<g>
						<path class="st6" d="M208,367.22c0.33,2.21,2.46,3.72,4.79,3.42c2.31-0.31,3.93-2.32,3.6-4.54c-0.31-2.2-2.46-3.72-4.8-3.42
							C209.29,363,207.67,365.01,208,367.22z"/>
					</g>
					<g>
						<path class="st6" d="M231.23,323.53c0.33,2.19,2.45,3.72,4.79,3.41c2.32-0.32,3.92-2.34,3.6-4.54
							c-0.33-2.21-2.45-3.74-4.77-3.43C232.51,319.3,230.9,321.34,231.23,323.53z"/>
					</g>
					<g>
						<path class="st6" d="M188.71,354.32c0.32,2.2,2.47,3.73,4.77,3.42c2.33-0.32,3.94-2.34,3.62-4.54
							c-0.32-2.2-2.46-3.74-4.78-3.42C190,350.09,188.37,352.13,188.71,354.32z"/>
					</g>
					<g>
						<path class="st6" d="M190.07,390.69c0.32,2.2,2.48,3.71,4.79,3.41c2.32-0.32,3.94-2.33,3.61-4.53
							c-0.32-2.21-2.47-3.74-4.78-3.42C191.37,386.44,189.75,388.48,190.07,390.69z"/>
					</g>
					<g>
						<path class="st6" d="M190.27,416.02c0.32,2.22,2.46,3.74,4.78,3.43c2.31-0.31,3.94-2.33,3.6-4.55
							c-0.31-2.19-2.46-3.71-4.79-3.4C191.55,411.79,189.94,413.83,190.27,416.02z"/>
					</g>
					<g>
						<path class="st6" d="M177.7,372.02c0.29,2.22,2.44,3.74,4.78,3.41c2.31-0.29,3.92-2.32,3.59-4.55
							c-0.33-2.19-2.45-3.73-4.79-3.4C178.97,367.78,177.36,369.82,177.7,372.02z"/>
					</g>
					<g>
						<path class="st6" d="M302.49,336.28c0.32,2.21,2.45,3.74,4.77,3.43c2.33-0.32,3.93-2.35,3.6-4.55
							c-0.31-2.19-2.45-3.74-4.77-3.4C303.77,332.04,302.15,334.08,302.49,336.28z"/>
					</g>
					<g>
						<path class="st6" d="M208.79,428.54c0.33,2.2,2.44,3.73,4.79,3.4c2.32-0.3,3.91-2.33,3.58-4.52c-0.3-2.21-2.44-3.74-4.77-3.43
							C210.09,424.31,208.46,426.33,208.79,428.54z"/>
					</g>
					<g>
						<path class="st6" d="M268.91,458.85c0.32,2.19,2.46,3.75,4.77,3.42c2.34-0.31,3.94-2.34,3.64-4.54
							c-0.36-2.22-2.48-3.74-4.81-3.42C270.19,454.61,268.59,456.65,268.91,458.85z"/>
					</g>
					<g>
						<path class="st6" d="M235.77,455.4c0.33,2.19,2.46,3.74,4.78,3.42c2.32-0.32,3.93-2.34,3.61-4.54
							c-0.34-2.2-2.47-3.74-4.8-3.42C237.06,451.16,235.45,453.21,235.77,455.4z"/>
					</g>
					<g>
						<path class="st6" d="M259.71,342.57c0.34,2.2,2.49,3.73,4.8,3.42c2.3-0.31,3.92-2.34,3.6-4.55c-0.32-2.19-2.47-3.72-4.79-3.39
							C261.01,338.33,259.38,340.37,259.71,342.57z"/>
					</g>
					<g>
						<path class="st6" d="M258.88,367.57c0.32,2.19,2.45,3.72,4.8,3.39c2.31-0.28,3.92-2.31,3.58-4.53
							c-0.29-2.2-2.45-3.71-4.79-3.41C260.15,363.33,258.55,365.35,258.88,367.57z"/>
					</g>
					<g>
						<path class="st6" d="M319.14,386.18c0.33,2.19,2.46,3.73,4.8,3.42c2.3-0.31,3.91-2.34,3.57-4.55
							c-0.3-2.19-2.45-3.73-4.76-3.42C320.43,381.93,318.82,383.97,319.14,386.18z"/>
					</g>
					<g>
						<path class="st6" d="M293.66,396.68c0.33,2.19,2.48,3.72,4.79,3.42c2.33-0.32,3.96-2.34,3.61-4.56
							c-0.31-2.2-2.46-3.73-4.77-3.41C294.97,392.42,293.33,394.47,293.66,396.68z"/>
					</g>
				</g>
			</g>
		</g>
		<g>
			<path class="st0" d="M166.89,395.56c3.8-0.51,7.45-1.52,10.86-3.17c22.72-11.21,44.95-35.93,45.89-36.99
				c0.74-0.82,0.63-2.11-0.25-2.81c-0.89-0.73-2.23-0.63-2.99,0.22c-0.22,0.26-22.65,25.17-44.61,35.98
				c-21.31,10.53-56.7-8.79-57.07-8.97c-1.02-0.57-2.33-0.25-2.9,0.72c-0.59,0.95-0.23,2.19,0.75,2.76
				C117.89,383.99,144.58,398.55,166.89,395.56L166.89,395.56z"/>
		</g>
		<g>
			<path class="st0" d="M135.65,356.43c0.93-0.1,1.83-0.29,2.71-0.51c24.14-5.78,47.36-30.81,48.31-31.87
				c0.78-0.85,0.69-2.12-0.18-2.83c-0.89-0.74-2.23-0.64-3.01,0.18c-0.22,0.25-23.34,25.16-46.14,30.64
				c-22.6,5.4-70.42-23.3-70.89-23.58c-0.98-0.59-2.3-0.32-2.92,0.61c-0.65,0.93-0.36,2.2,0.63,2.78
				C66.1,333.03,110.61,359.78,135.65,356.43L135.65,356.43z"/>
		</g>
		<g>
			<path class="st1" d="M257.55,324.32c-6.96-8.82-42.81,17.89-42.81,17.89s8.94,17.09,19.49,19.74
				C234.23,361.95,264.81,333.54,257.55,324.32z"/>
			<path class="st0" d="M233.96,362.92c-10.88-2.72-19.8-19.54-20.19-20.26c-0.21-0.42-0.11-0.92,0.3-1.24
				c1.09-0.81,26.84-19.87,38.97-19.87c2.39,0,4.23,0.73,5.36,2.19c7.57,9.62-20.24,35.95-23.43,38.95
				c-0.21,0.17-0.47,0.26-0.75,0.26C234.15,362.95,234.06,362.95,233.96,362.92z M216.08,342.5c1.78,3.17,9.33,15.73,17.86,18.33
				c8.58-8.07,28.16-29.05,22.77-35.9c-0.75-0.93-1.94-1.39-3.66-1.39C242.68,323.54,220.33,339.42,216.08,342.5z"/>
		</g>
		<g>
			<g>
				<path class="st7" d="M236.68,45.93c0,0,5.47-28.13,50.31-23.98c44.84,4.18,87.39,44.24,87.59,90.51
					c0.06,14.89,13.16,7.09,42.01,23.53c28.81,16.46,27.61,52.6-2.08,67.94c-7.95,4.09,12.68,23.03-4.58,34.12
					c-17.25,11.08-30.9-1.73-34.23,9.62c-3.33,11.26-3.08,19.52-23.12,12.56c-11.27-3.92-16.36,26.88-46.56,5.88L236.68,45.93z"/>
				<path class="st0" d="M305.36,266.92c-0.18-0.13-0.3-0.32-0.36-0.53L235.67,46.21c-0.06-0.17-0.08-0.31-0.05-0.47
					c0.05-0.25,5.34-25.2,42.61-25.2c2.83,0,5.8,0.13,8.84,0.43c47.82,4.45,88.37,46.35,88.56,91.5c0.02,7.69,3.38,8.6,12.37,11.02
					c6.97,1.88,16.49,4.44,29.11,11.63c13.74,7.87,21.76,20.93,21.43,35c-0.33,14.3-9.14,27.26-23.54,34.72
					c-2.29,1.18-1.33,4.33,0.42,9.36c2.57,7.44,6.1,17.6-4.91,24.7c-7.12,4.58-13.63,5.1-17.91,5.1c-1.9,0-3.73-0.12-5.36-0.22
					c-1.38-0.09-2.65-0.19-3.85-0.19c-3.49,0-5.62,0.69-6.72,4.36c-0.31,1.15-0.6,2.26-0.9,3.33c-1.83,6.71-3.38,12.53-11.44,12.53
					c-3.09,0-7.05-0.86-12.13-2.61c-3.29-1.14-6.27,1.5-9.84,4.74c-4.21,3.82-9.45,8.58-17.43,8.58l0,0
					C319.14,274.51,312.73,272.04,305.36,266.92z M352.93,259.31c4.83,1.66,8.57,2.48,11.41,2.48c6.1,0,7.42-3.78,9.37-11.02
					c0.29-1.08,0.61-2.19,0.95-3.38c1.5-5.11,5.1-5.83,8.73-5.83c1.25,0,2.57,0.09,4.01,0.18c1.65,0.12,3.38,0.23,5.21,0.23
					c4,0,10.08-0.48,16.7-4.76c9.7-6.22,6.6-15.19,4.1-22.38c-1.82-5.21-3.37-9.73,0.58-11.78c13.74-7.09,22.11-19.42,22.43-32.97
					c0.33-13.36-7.32-25.76-20.4-33.23c-12.37-7.07-21.75-9.6-28.59-11.44c-8.95-2.41-13.89-3.75-13.92-12.96
					c-0.19-44.16-39.85-85.14-86.62-89.5c-2.97-0.27-5.89-0.41-8.65-0.41c-33.97,0-39.87,20.75-40.48,23.33l69.16,219.62
					c6.86,4.71,12.75,6.99,18.02,6.99l0,0c7.13,0,11.83-4.27,15.96-8.03c3.31-2.98,6.15-5.58,9.67-5.58
					C351.34,258.89,352.15,259.03,352.93,259.31z"/>
			</g>
			<g>
				<path class="st3" d="M315.08,255.1c0,0-41.18,83.3-140.82,65.44C77.7,303.24,80.4,182.8,80.4,182.8s31.39-9.59,35.34-40.57
					c0,0,15.19,44.66,64.52,50.27c49.36,5.62,83.46-19.23,83.46-19.23S304.14,195.63,315.08,255.1z"/>
				<path class="st0" d="M174.06,321.52C77.74,304.26,79.3,184.01,79.34,182.77c0.01-0.41,0.3-0.79,0.73-0.92
					c0.31-0.1,30.8-9.76,34.63-39.73c0.07-0.49,0.46-0.86,0.96-0.9c0.51-0.05,0.95,0.26,1.11,0.71
					c0.16,0.44,15.56,44.14,63.61,49.59c4.79,0.55,9.63,0.81,14.4,0.81c40.52,0,68.01-19.64,68.31-19.83
					c0.33-0.28,0.82-0.29,1.17-0.08c0.41,0.22,40.97,23.29,51.85,82.5c0.05,0.21,0.01,0.43-0.07,0.59
					c-0.35,0.71-34.81,68.57-114.47,68.57l0,0C192.67,324.06,183.41,323.2,174.06,321.52z M263.78,174.48
					c-4.3,2.89-31.06,19.87-69,19.87c-4.86,0-9.78-0.28-14.64-0.84c-41.26-4.69-59.09-36.74-63.97-47.46
					c-5.36,25.85-30.13,35.82-34.72,37.47c0,9.77,2.17,119.75,92.98,136.05c9.23,1.66,18.37,2.48,27.13,2.48l0,0
					c75.7,0,109.92-62.36,112.38-67.12C303.88,200.79,268.74,177.52,263.78,174.48z"/>
			</g>
			<g>
				<path class="st7" d="M346.83,180.47c1.24-88.13-67.55-157.48-180.47-130.24C51.55,77.89,80.4,182.8,80.4,182.8
					s31.39-9.59,35.34-40.57c0,0,15.19,44.66,64.52,50.27c49.36,5.62,83.46-19.23,83.46-19.23s40.41,22.36,51.35,81.82
					C315.08,255.1,346.13,230.55,346.83,180.47z"/>
				<path class="st0" d="M314.7,256.04c-0.35-0.12-0.59-0.42-0.67-0.77c-10.02-54.39-45.29-77.75-50.24-80.79
					c-4.3,2.89-31.06,19.87-69,19.87c-4.86,0-9.78-0.28-14.64-0.84c-41.26-4.69-59.09-36.74-63.97-47.46
					c-5.89,28.37-35.14,37.63-35.45,37.72c-0.29,0.07-0.58,0.06-0.84-0.07c-0.27-0.13-0.45-0.36-0.52-0.62
					c-0.14-0.47-12.35-46.38,11.85-85.27c14.81-23.81,39.99-40.15,74.85-48.55c16.59-4.02,32.75-6.05,48.02-6.05
					c37.59,0,70.11,12.18,94.08,35.24c26.16,25.14,40.27,61.38,39.69,102.05c-0.69,49.96-31.82,75.12-32.13,75.36
					c-0.19,0.15-0.45,0.24-0.67,0.24C314.95,256.09,314.81,256.07,314.7,256.04z M166.59,51.2c-34.25,8.26-59,24.28-73.51,47.6
					c-21.7,34.87-13.58,75.56-11.89,82.68c5.47-2.02,30.08-12.61,33.52-39.35c0.07-0.49,0.46-0.86,0.96-0.9
					c0.51-0.07,0.95,0.26,1.11,0.71c0.16,0.44,15.53,44.13,63.61,49.59c4.79,0.55,9.63,0.81,14.4,0.81
					c40.52,0,68.01-19.64,68.31-19.83c0.33-0.28,0.82-0.29,1.17-0.08c0.41,0.22,40.13,22.79,51.51,80.7
					c5.99-5.47,29.39-29.69,30-72.63c0.55-40.14-13.33-75.85-39.08-100.61c-23.56-22.65-55.58-34.63-92.58-34.63
					C199,45.23,183.01,47.24,166.59,51.2z"/>
			</g>
			<g>
				<path class="st0" d="M392.71,227.82c0.38-0.05,0.7-0.29,0.85-0.65c3.5-9.07,1.17-11.66-2.08-15.24
					c-2.43-2.71-5.48-6.06-7.11-13.83c-1.78-8.74,0.34-13.52,2.56-18.59c2.39-5.38,4.86-10.96,3.29-21.39
					c-3.04-20.74-26.59-24.43-26.81-24.49c-0.58-0.08-1.13,0.3-1.23,0.85c-0.1,0.56,0.29,1.06,0.9,1.17
					c0.9,0.11,22.23,3.5,25.06,22.73c1.48,9.9-0.9,15.22-3.14,20.36c-2.39,5.34-4.62,10.41-2.68,19.73
					c1.71,8.31,5.09,12.03,7.55,14.76c3.09,3.39,4.78,5.29,1.7,13.24c-0.21,0.53,0.09,1.11,0.65,1.3
					C392.38,227.83,392.53,227.85,392.71,227.82L392.71,227.82z"/>
			</g>
			<g>
				<path class="st0" d="M359.54,251.86c0.31-0.04,0.58-0.2,0.77-0.49c0.29-0.48,0.12-1.1-0.42-1.38
					c-6.32-3.39-9.65-6.63-10.77-10.49c-1.33-4.7,0.44-10.74,5.8-19.54c10.72-17.61-2.77-25.98-2.92-26.08
					c-0.51-0.28-1.17-0.14-1.46,0.34c-0.33,0.46-0.17,1.08,0.33,1.38c0.47,0.31,11.88,7.49,2.23,23.35
					c-5.68,9.3-7.53,15.81-6.02,21.08c1.29,4.43,4.91,8.03,11.78,11.72C359.08,251.86,359.31,251.9,359.54,251.86L359.54,251.86z"/>
			</g>
			<g>
				<path class="st0" d="M285.8,192.32c0.24-0.04,0.48-0.15,0.66-0.34c0.27-0.33,28.44-31.91-4.73-72.04c-0.34-0.43-1-0.48-1.45-0.2
					c-0.47,0.33-0.57,0.93-0.27,1.37c0.09,0.13,8.72,13.02,4.98,27.33c-2.31,8.83-8.78,16.41-19.23,22.56
					c2.91-8.31,9.86-34.35-6.66-59.77c-0.31-0.48-0.97-0.62-1.47-0.33c-0.48,0.28-0.64,0.89-0.33,1.37
					c19.3,29.7,5.59,60.3,5.46,60.59c-0.18,0.41-0.1,0.86,0.25,1.15c0.33,0.29,0.84,0.34,1.24,0.13
					c12.49-6.64,20.16-15.14,22.79-25.25c1.91-7.24,0.83-14.04-0.78-19.21c22.04,34.67-1.15,60.72-1.41,60.98
					c-0.37,0.43-0.33,1.07,0.13,1.42C285.22,192.28,285.52,192.36,285.8,192.32L285.8,192.32z"/>
			</g>
			<g>
				<path class="st0" d="M138.14,148.72c0.56-0.07,0.96-0.59,0.89-1.13c-5.14-37.06,32.26-56.65,32.61-56.87
					c0.52-0.24,0.71-0.86,0.43-1.35c-0.27-0.48-0.92-0.67-1.42-0.41c-0.41,0.2-39.04,20.44-33.73,58.9
					C137.02,148.42,137.36,148.84,138.14,148.72L138.14,148.72z"/>
			</g>
			<g>
				<path class="st0" d="M115.9,143.22c0.55-0.08,0.96-0.55,0.91-1.06c-1.92-27.01,12.16-38.99,12.29-39.09
					c0.45-0.37,0.49-1.02,0.11-1.42c-0.4-0.43-1.08-0.47-1.52-0.08c-0.6,0.48-14.98,12.72-12.99,40.72
					c0.04,0.54,0.55,0.97,1.14,0.94C115.86,143.23,115.89,143.22,115.9,143.22L115.9,143.22z"/>
			</g>
			<g>
				<path d="M174.75,232.06c0.33,6.14,3.81,10.98,7.8,10.79c3.98-0.2,6.95-5.32,6.62-11.48c-0.3-6.14-3.8-10.96-7.77-10.77
					C177.4,220.8,174.42,225.91,174.75,232.06z"/>
			</g>
			<g>
				<path d="M100.63,219.19c0.29,5.58,3.46,9.96,7.08,9.79c3.62-0.17,6.32-4.82,6.02-10.43c-0.28-5.56-3.46-9.97-7.07-9.79
					C103.03,208.96,100.34,213.6,100.63,219.19z"/>
			</g>
			<g>
				<path class="st8" d="M204.38,254.25c0,0-9.99,24.69-43.94,30.22c-33.95,5.55-43.99-11.65-43.99-11.65s22.29,42.2,66.86,36.02
					C227.88,302.65,204.38,254.25,204.38,254.25z"/>
				<path class="st0" d="M115.52,273.28c-0.26-0.49-0.05-1.08,0.45-1.32c0.51-0.27,1.14-0.08,1.41,0.38
					c0.07,0.12,7.42,12.25,30.29,12.25c3.93,0,8.18-0.38,12.6-1.09c32.91-5.38,43.03-29.35,43.11-29.59
					c0.18-0.37,0.55-0.63,0.98-0.63c0.35-0.02,0.82,0.21,1.01,0.56c0.47,1.04,12.03,25.31,2.55,41.93
					c-4.41,7.69-12.62,12.44-24.47,14.09c-3.01,0.4-6.02,0.6-8.96,0.6C135.62,310.46,115.72,273.65,115.52,273.28z M160.62,285.49
					c-4.53,0.74-8.89,1.1-12.95,1.1c-12.21,0-20.21-3.25-25.16-6.53c8.01,10.57,25.45,28.39,51.99,28.39c2.85,0,5.75-0.19,8.67-0.6
					c11.12-1.55,18.84-5.94,22.89-13.05c7.47-13.03,0.82-31.88-1.72-38.07C200.94,262.93,188.9,280.87,160.62,285.49z"/>
			</g>
			<g>
				<path class="st9" d="M194.73,268.4c0,0,2.56,3.05,0.71,7.34c-1.86,4.32-14.55,18.09-36.83,16.09c-7.61-0.68-9.21-6.56-9.21-6.56
					S171.53,290.12,194.73,268.4z"/>
				<path class="st0" d="M158.5,292.84c-8.24-0.73-10.04-7.05-10.1-7.3c-0.11-0.37,0-0.73,0.25-0.96c0.25-0.26,0.63-0.36,0.99-0.29
					c0.02,0.01,2.05,0.43,5.45,0.43c7.73,0,23.04-2.2,38.88-17.04c0.2-0.19,0.48-0.29,0.8-0.29c0.31,0.03,0.58,0.17,0.76,0.37
					c0.13,0.14,2.96,3.56,0.9,8.36c-1.99,4.53-13.54,16.92-33.51,16.92C161.47,293.05,159.98,292.97,158.5,292.84z M155.09,286.75
					c-1.61,0-2.95-0.09-3.91-0.2c0.94,1.6,3.11,3.9,7.52,4.3c1.42,0.12,2.84,0.19,4.22,0.19c18.69,0,29.8-11.63,31.53-15.66
					c1.03-2.34,0.54-4.25,0.02-5.33C178.46,284.56,162.98,286.75,155.09,286.75z"/>
			</g>
		</g>
		<g>
			<path class="st10" d="M386.61,600.83c0,0-13.2-31.41-33.9-26.63c-20.69,4.79-38.07,32.31-3.79,37.07
				C378.78,615.4,386.61,600.83,386.61,600.83z"/>
			<path class="st0" d="M348.77,612.24c-17.18-2.38-20.12-10.16-20.34-14.6c-0.48-9.76,10.96-21.39,24.03-24.43
				c1.51-0.33,3.04-0.52,4.55-0.52c18.71,0,30.11,26.62,30.57,27.75c0.11,0.27,0.11,0.56-0.02,0.84
				c-0.26,0.46-6.54,11.72-28.48,11.72C355.83,612.99,352.36,612.74,348.77,612.24z M357.01,574.69c-1.34,0-2.71,0.17-4.04,0.47
				c-12.19,2.82-22.86,13.48-22.43,22.38c0.32,6.58,6.92,11.09,18.55,12.71c3.48,0.47,6.84,0.72,9.99,0.72
				c18.28,0,25.03-8.35,26.34-10.25C383.84,597.24,373.01,574.69,357.01,574.69z"/>
		</g>
		<g>
			<path class="st10" d="M309.49,603.01c0,0-10.82-15.49-31.33-14.11c-20.48,1.38-25.71,19-25.71,19S289.89,619.83,309.49,603.01z"
				/>
			<path class="st0" d="M252.09,608.86c-0.52-0.19-0.83-0.73-0.66-1.25c0.05-0.17,5.67-18.31,26.67-19.71
				c20.85-1.4,31.84,13.92,32.28,14.54c0.3,0.42,0.22,0.98-0.17,1.3c-7.15,6.14-17.35,9.25-30.29,9.25
				C265.33,613,252.23,608.91,252.09,608.86z M278.24,589.9c-17.04,1.15-23.07,13.74-24.45,17.33c3.29,0.95,14.19,3.75,26.14,3.75
				c11.96,0,21.41-2.72,28.15-8.14C305.67,599.89,295.32,588.77,278.24,589.9z"/>
		</g>
		<g>
			<path class="st3" d="M69.33,310.33c2.89,5.81,5.94,18.5-11.61,26.43c-17.55,7.91-43.2-13.54-26.73-32.49
				C47.44,285.33,64.75,301.29,69.33,310.33z"/>
			<path class="st0" d="M26.65,325.44c-3.63-7.28-2.39-15.04,3.53-21.81c5.29-6.13,11.15-9.22,17.41-9.22
				c10.83,0,19.66,9.49,22.69,15.48c1.48,2.99,3.66,8.93,1.3,15.25c-1.93,5.16-6.44,9.36-13.42,12.51
				c-2.62,1.19-5.51,1.78-8.52,1.78c0,0,0,0-0.02,0C40.19,339.43,30.74,333.69,26.65,325.44z M31.8,304.91
				c-5.33,6.17-6.48,13.14-3.23,19.69c3.7,7.43,12.56,12.83,21.06,12.83c0.02,0,0.02,0,0.02,0c2.72,0,5.27-0.53,7.63-1.6
				c6.43-2.9,10.58-6.71,12.29-11.35c2.11-5.63,0.14-11.02-1.22-13.72c-2.78-5.54-10.89-14.35-20.76-14.35
				C42,296.42,36.69,299.27,31.8,304.91z"/>
		</g>
		<g>
			<path class="st3" d="M119.71,376.2c2.39,4.52-6.45,24.8-28.88,18.06C63.97,386.16,97.43,333.98,119.71,376.2z"/>
			<path class="st0" d="M90.52,395.24c-7.91-2.39-11.84-8.83-10.46-17.21c1.51-9.2,9.48-19.12,19.75-19.12
				c5.44,0,13.52,2.91,20.87,16.82c1.2,2.26,0.14,6.85-2.51,10.91c-4.14,6.34-10.94,10-18.69,10l0,0
				C96.64,396.64,93.62,396.15,90.52,395.24z M82.14,378.34c-0.57,3.51-0.82,12.01,9.01,14.96c2.9,0.87,5.69,1.32,8.32,1.32l0,0
				c9.56,0,14.71-5.67,16.89-9.05c2.69-4.12,3.05-7.77,2.43-8.92c-5.45-10.3-12-15.75-18.99-15.75
				C90.93,360.9,83.51,369.94,82.14,378.34z"/>
		</g>
		<g>
			<path class="st0" d="M60.74,317.79c2.38-0.32,4.17-0.75,4.36-0.82c0.55-0.14,0.87-0.69,0.72-1.22c-0.15-0.54-0.68-0.87-1.3-0.73
				c-2.77,0.73-10.64,2.06-13.59-0.18c-0.84-0.64-1.22-1.53-1.16-2.74c0.09-1.46,0.65-2.58,1.72-3.42
				c3.66-2.82,11.59-1.64,11.66-1.64c0.59,0.09,1.13-0.31,1.23-0.84c0.1-0.55-0.3-1.07-0.89-1.15c-0.36-0.06-8.94-1.32-13.3,2.06
				c-1.6,1.23-2.44,2.85-2.55,4.9c-0.07,1.85,0.55,3.34,1.95,4.38C52.25,318.43,57.17,318.27,60.74,317.79L60.74,317.79z"/>
		</g>
		<g class="st2">
			<path class="st4" d="M264.71,307.48c0,0,73.24,85.58,15.95,122.4c-49.18,31.59-87.79-22.13-87.79-22.13s21.11,57.41,78.73,50.05
				c56.03-7.11,78.58-95.7,35.48-121.79c0,0-20.3-4.74-32.23-34.62L264.71,307.48z"/>
		</g>
		<g>
			<path class="st0" d="M323.27,354.4c0.16-0.01,0.33-0.08,0.49-0.19c1.16-0.86,11.64-8.38,13.55-12.31c0.24-0.48,0-1.1-0.53-1.31
				c-0.54-0.24-1.17-0.02-1.4,0.51c-1.43,2.91-9.8,9.29-12.9,11.5c-0.49,0.32-0.57,0.97-0.23,1.4
				C322.51,354.32,322.91,354.46,323.27,354.4L323.27,354.4z"/>
		</g>
		<g>
			<path class="st0" d="M364.1,381.53c0.43-0.06,0.8-0.34,0.89-0.77c0.14-0.54-0.23-1.08-0.8-1.19c-20.02-4.18-33.17,2.32-33.7,2.61
				c-0.53,0.28-0.73,0.87-0.45,1.35c0.29,0.49,0.92,0.7,1.44,0.43c0.13-0.07,13.04-6.42,32.25-2.45
				C363.87,381.55,363.99,381.55,364.1,381.53L364.1,381.53z"/>
		</g>
		<g>
			<path class="st0" d="M345.8,416.38c0.16-0.04,0.33-0.08,0.46-0.19c0.49-0.32,0.6-0.95,0.26-1.4
				c-7.91-10.67-18.8-11.15-19.27-11.16c-0.56-0.04-1.08,0.42-1.09,0.97c-0.02,0.55,0.44,1.02,1.03,1.05
				c0.08,0,10.32,0.47,17.59,10.3C345.03,416.27,345.44,416.43,345.8,416.38L345.8,416.38z"/>
		</g>
		<g>
			<path class="st0" d="M305.92,463.05c0.56-0.08,0.97-0.6,0.9-1.14c-1.25-8.48-9.16-15.11-9.5-15.37c-0.45-0.36-1.1-0.33-1.49,0.1
				c-0.39,0.4-0.34,1.04,0.1,1.4c0.09,0.07,7.65,6.43,8.79,14.16C304.79,462.74,305.32,463.13,305.92,463.05L305.92,463.05z"/>
		</g>
		<g>
			<path class="st0" d="M235.47,469.65c0.57-0.08,0.99-0.6,0.9-1.14c-0.93-6.33,3.28-13.98,3.32-14.05
				c0.26-0.49,0.08-1.11-0.43-1.37c-0.52-0.26-1.16-0.08-1.43,0.4c-0.2,0.35-4.6,8.35-3.55,15.31
				C234.35,469.34,234.89,469.73,235.47,469.65L235.47,469.65z"/>
		</g>
		<g>
			<path class="st0" d="M421.22,389.17c0.79-0.12,1.49-0.64,1.75-1.41c13.19-40.28-14.59-50.66-14.87-50.77
				c-1.08-0.37-2.3,0.15-2.7,1.19c-0.43,1.03,0.13,2.2,1.21,2.6c0.99,0.36,24.28,9.29,12.28,45.78c-0.33,1.07,0.31,2.19,1.4,2.51
				C420.6,389.18,420.92,389.19,421.22,389.17L421.22,389.17z"/>
		</g>
		<g>
			<path class="st0" d="M435.95,406.8c0.39-0.04,0.8-0.2,1.11-0.46c33.59-27.6,3.7-63.08,3.42-63.44c-0.77-0.87-2.09-1-2.99-0.28
				c-0.91,0.69-1.05,1.97-0.31,2.82c1.14,1.33,27.57,32.82-2.89,57.87c-0.9,0.72-0.99,2-0.21,2.84
				C434.55,406.68,435.28,406.91,435.95,406.8L435.95,406.8z"/>
		</g>
		<g>
			<path class="st0" d="M157.73,454.71c0.6-0.09,1.15-0.41,1.49-0.93c0.64-0.93,0.32-2.19-0.67-2.77c-6.77-4-10.75-8.77-11.84-14.2
				c-1.66-8.29,3.95-15.52,4.01-15.61c0.7-0.88,0.51-2.15-0.43-2.82c-0.93-0.66-2.26-0.47-2.96,0.4c-0.25,0.36-6.77,8.69-4.8,18.71
				c1.28,6.61,5.94,12.31,13.78,16.93C156.77,454.69,157.26,454.77,157.73,454.71L157.73,454.71z"/>
		</g>
		<g>
			<path class="st0" d="M151.78,472.42c0.64-0.09,1.21-0.44,1.57-1c0.57-0.96,0.22-2.2-0.8-2.74
				c-13.53-7.32-21.82-16.18-24.66-26.31c-3.46-12.49,2.72-22.61,2.8-22.71c0.58-0.95,0.25-2.19-0.75-2.78
				c-1.03-0.54-2.32-0.22-2.9,0.73c-0.3,0.46-7.15,11.68-3.24,25.8c3.13,11.21,12.08,20.89,26.64,28.77
				C150.88,472.4,151.33,472.48,151.78,472.42L151.78,472.42z"/>
		</g>
	</g>
	<g class="st11">
		<path class="st12" d="M260.39,177.1c0,0,52.64,80.42-22.28,131.55c-31.41,21.45-64.73,10.67-64.73,10.67s86.31,29.1,141.7-64.22
			c0,0-9.56-57.28-50.81-80.54L260.39,177.1z"/>
	</g>
</g>
</svg>
