<?xml version="1.0" encoding="utf-8"?>
<!-- Generator: Adobe Illustrator 23.0.5, SVG Export Plug-In . SVG Version: 6.00 Build 0)  -->
<svg version="1.1" id="Layer_1" xmlns="http://www.w3.org/2000/svg" xmlns:xlink="http://www.w3.org/1999/xlink" x="0px" y="0px"
	 viewBox="0 0 480 640" style="enable-background:new 0 0 480 640;" xml:space="preserve">
<style type="text/css">
	.st0{fill:#0A0A0A;}
	.st1{fill:#FFEF43;}
	.st2{fill:#FFFC0D;}
	.st3{fill:#85CA4D;}
	.st4{opacity:0.45;}
	.st5{fill:#A85802;}
	.st6{fill:#FFC589;}
	.st7{fill:#AD9ACE;}
	.st8{fill:#64313D;}
	.st9{opacity:0.4;}
	.st10{fill:#D76B2A;}
	.st11{fill:#E270AD;}
	.st12{fill:#FFFFFF;}
	.st13{opacity:0.35;}
	.st14{fill:#FFE332;}
</style>
<g>
	<g>
		<g>
			<g>
				<path class="st0" d="M283.59,608.81c-0.07,0-0.15-0.02-0.22-0.03c-0.71-0.16-1.14-0.88-0.99-1.58
					c6.55-29.07,19-84.59,19.26-86.58c0.09-0.7,0.74-1.19,1.41-1.16c0.7,0.07,1.22,0.64,1.19,1.36
					c-0.06,1.33-14.8,66.91-19.32,86.97C284.78,608.41,284.21,608.84,283.59,608.81L283.59,608.81z"/>
			</g>
			<g>
				<g>
					<path class="st1" d="M254.18,597.76c0.86,5.35,5.07,12.44,11.6,17.93c5.59,4.7,11.06,7.53,14.84,7.43
						C271.44,609.13,259.72,601.03,254.18,597.76z"/>
					<path class="st0" d="M280.43,623.79c-3.83,0-9.33-2.76-15.06-7.59c-6.24-5.24-10.88-12.43-11.83-18.32
						c-0.04-0.26,0.07-0.52,0.27-0.66c0.21-0.15,0.48-0.15,0.69-0.03c4.85,2.87,17.16,11.09,26.67,25.57
						c0.13,0.2,0.14,0.45,0.03,0.68c-0.11,0.21-0.32,0.34-0.56,0.35L280.43,623.79z M255.13,599.11
						c1.36,5.28,5.57,11.44,11.07,16.08c4.96,4.16,9.67,6.73,13.14,7.2C270.86,609.94,260.38,602.39,255.13,599.11z"/>
				</g>
				<g>
					<path class="st1" d="M283.38,606.08c-4.28-8.06-13.14-14.54-21.43-15.92c-6.33-1.05-8.58,2.48-7.76,7.61
						c5.53,3.27,17.26,11.37,26.44,25.36c0.72,1.09,4.21-2.35,4.5-2.91c1.06-1.97,1-4.59,0.71-6.75
						C285.47,610.93,284.63,608.44,283.38,606.08z"/>
					<path class="st0" d="M281.05,624L281.05,624c-0.41,0-0.75-0.18-0.97-0.5c-9.34-14.25-21.45-22.35-26.23-25.16
						c-0.17-0.1-0.28-0.28-0.31-0.47c-0.44-2.77-0.01-5.05,1.24-6.55c1.47-1.74,3.96-2.37,7.28-1.83
						c8.56,1.43,17.56,8.12,21.9,16.27c1.32,2.51,2.18,5.08,2.52,7.61c0.41,3.08,0.16,5.43-0.78,7.15
						C285.4,621.07,282.61,624,281.05,624z M254.77,597.36c5.01,3,17.01,11.16,26.34,25.32c0.81-0.09,3.11-2.23,3.44-2.79
						c0.79-1.47,0.99-3.54,0.62-6.33c-0.32-2.38-1.12-4.8-2.37-7.17c-4.16-7.81-12.78-14.22-20.97-15.58
						c-2.83-0.48-4.91,0-6.06,1.39C254.81,593.33,254.47,595.12,254.77,597.36z"/>
				</g>
			</g>
		</g>
		<g>
			<g>
				<path class="st0" d="M421.71,583.53c-0.01,0-0.04,0-0.05,0c-44.97-3.79-56.42-59.31-56.54-59.88c-0.14-0.71,0.32-1.41,1.02-1.55
					c0.71-0.15,1.4,0.31,1.54,1.03c0.1,0.55,11.19,54.15,54.2,57.75c0.7,0.07,1.24,0.7,1.18,1.44
					C423.02,583.02,422.4,583.55,421.71,583.53L421.71,583.53z"/>
			</g>
			<g>
				<path class="st1" d="M422.7,580.98c0,0-16.04,31.18-5.99,33.62C434.77,618.97,430.84,576.56,422.7,580.98z"/>
				<path class="st0" d="M419.22,615.58c-0.36,0-0.66-0.29-0.66-0.65c0-0.38,0.29-0.67,0.66-0.67c7.13,0,9.67-9.1,9.67-17.61
					c0-3.96-0.56-7.91-1.55-10.85c-0.96-2.84-2.23-4.49-3.46-4.49c-0.36,0-0.65-0.28-0.65-0.66c0-0.37,0.29-0.66,0.65-0.66
					c1.89,0,3.51,1.86,4.69,5.38c1.04,3.06,1.62,7.18,1.62,11.27C430.19,605.8,427.31,615.58,419.22,615.58z"/>
			</g>
		</g>
	</g>
	<g>
		<g>
			<g>
				<path class="st2" d="M381.99,495.84L377.25,469l-17.23,1.69C360.2,473.15,362.87,503.73,381.99,495.84z"/>
				<path class="st0" d="M376.07,497.8L376.07,497.8c-14.28,0-16.5-24.29-16.71-27.06c-0.02-0.36,0.24-0.68,0.59-0.71l17.23-1.67
					c0.34-0.04,0.64,0.2,0.71,0.54l4.73,26.83c0.05,0.3-0.11,0.61-0.39,0.72C380.07,497.35,377.99,497.8,376.07,497.8z
					 M360.73,471.28c0.41,4.57,2.99,25.19,15.35,25.19l0,0c1.61,0,3.35-0.35,5.17-1.05l-4.53-25.69L360.73,471.28z"/>
			</g>
			<g>
				<path class="st2" d="M303.65,476.17l-8.94,0.88l-3.04,18.37C302.25,495.63,303.62,482.71,303.65,476.17z"/>
				<path class="st0" d="M291.93,496.07L291.93,496.07h-0.28c-0.19,0-0.37-0.09-0.49-0.23c-0.12-0.15-0.18-0.34-0.15-0.53
					l3.05-18.36c0.05-0.31,0.29-0.53,0.58-0.55l8.93-0.88c0.18-0.01,0.36,0.04,0.5,0.16c0.14,0.14,0.21,0.31,0.21,0.5
					C304.27,482.16,303.02,496.07,291.93,496.07z M295.27,477.65l-2.84,17.1c8.81-0.38,10.42-10.97,10.54-17.84L295.27,477.65z"/>
			</g>
			<g>
				<path class="st3" d="M381.99,495.84c-19.13,7.89-21.79-22.68-21.98-25.14l-56.37,5.48c-0.02,6.54-1.39,19.46-11.98,19.24
					l-4.14,24.95l41.28,9.88l9.86-25.56l4.06,25.32l43.85-8.08L381.99,495.84z"/>
				<path class="st0" d="M328.8,530.89c-0.04,0-0.1,0-0.14-0.01l-41.29-9.87c-0.34-0.08-0.55-0.42-0.5-0.76l4.15-24.94
					c0.06-0.34,0.33-0.58,0.66-0.55l0.26,0.01c9.58-0.01,11.03-11.66,11.04-18.58c0.01-0.34,0.26-0.63,0.61-0.66l56.38-5.49
					c0.18-0.01,0.34,0.04,0.47,0.15c0.14,0.12,0.23,0.28,0.24,0.46c0.19,2.64,2.3,25.83,15.41,25.83c1.75,0,3.66-0.42,5.66-1.25
					c0.19-0.07,0.4-0.06,0.57,0.04c0.17,0.1,0.29,0.26,0.32,0.47l4.6,26.08c0.06,0.36-0.17,0.71-0.53,0.77l-43.84,8.08
					c-0.17,0.03-0.34-0.01-0.49-0.11c-0.14-0.1-0.24-0.27-0.27-0.43l-3.68-22.95l-9,23.3C329.32,530.74,329.08,530.89,328.8,530.89z
					 M288.25,519.86l40.15,9.59l9.66-25.01c0.1-0.29,0.39-0.46,0.67-0.42c0.29,0.03,0.53,0.25,0.59,0.55l3.95,24.66l42.55-7.85
					l-4.34-24.65c-1.89,0.71-3.71,1.07-5.41,1.07c-13.47,0-16.21-21.61-16.65-26.4l-55.14,5.37c-0.1,6.21-1.59,19.08-12.08,19.3
					L288.25,519.86z"/>
			</g>
		</g>
		<g class="st4">
			<path class="st3" d="M386.58,521.92l-4.59-26.08L377.25,469l-17.23,1.69l-56.37,5.48l-8.94,0.88l-1.11,6.69
				c10.06,4.85,38.52,15.45,71.26-0.32c10.73-3.79,27.98,38.52-22.31,45.41l0.19,1.17L386.58,521.92z"/>
		</g>
	</g>
	<g>
		<g>
			<path class="st0" d="M226.23,548.58c-0.31-0.01-0.57-0.25-0.62-0.56l-14.41-94.15c-0.05-0.36,0.19-0.69,0.54-0.76
				c0.37-0.04,0.7,0.2,0.76,0.55l14.4,94.15c0.05,0.37-0.19,0.71-0.54,0.77C226.32,548.58,226.27,548.58,226.23,548.58
				L226.23,548.58z"/>
		</g>
		<g>
			<path class="st0" d="M249.12,542.16c-0.24-0.01-0.46-0.17-0.56-0.4l-38.85-92.22c-0.14-0.33,0.01-0.71,0.34-0.86
				c0.33-0.14,0.72,0.01,0.86,0.34l38.84,92.22c0.14,0.34-0.01,0.72-0.34,0.88C249.32,542.14,249.22,542.16,249.12,542.16
				L249.12,542.16z"/>
		</g>
	</g>
	<g>
		<path class="st0" d="M224.23,439.35c-0.62-0.03-1.16-0.54-1.23-1.18c-0.06-0.74,0.46-1.39,1.16-1.46
			c35.15-3.54,70.21-22.78,70.56-22.96c0.62-0.36,1.42-0.12,1.77,0.52c0.35,0.65,0.11,1.44-0.51,1.79
			c-0.37,0.2-35.9,19.69-71.56,23.29C224.37,439.35,224.31,439.35,224.23,439.35L224.23,439.35z"/>
	</g>
	<g>
		<path class="st5" d="M225.92,440.75c0,0,0.66-14.52-8.14-12.28c-3.78-3.04-19.77-0.27-20,9.65c-0.23,9.9,3,15.35,14.07,15.65
			C222.92,454.06,225.9,445.82,225.92,440.75z"/>
		<path class="st0" d="M212.44,454.42L212.44,454.42l-0.61-0.01c-10.56-0.28-14.97-5.16-14.71-16.32
			c0.19-7.82,9.59-11.46,15.87-11.46c2.12,0,3.84,0.39,4.94,1.12c2.29-0.5,4.21,0.04,5.66,1.58c3.31,3.52,3,11.14,2.99,11.45
			C226.56,445.84,223.56,454.42,212.44,454.42z M212.99,427.95c-5.78,0-14.4,3.23-14.56,10.17c-0.26,10.5,3.51,14.7,13.43,14.97
			l0.57,0.01c12.45,0,12.83-11.09,12.83-12.36c0.01-0.09,0.3-7.41-2.63-10.51c-1.2-1.26-2.73-1.63-4.69-1.13
			c-0.21,0.04-0.41,0-0.57-0.12C216.56,428.33,214.97,427.95,212.99,427.95z"/>
	</g>
	<g>
		<path class="st0" d="M440.87,456.56c-0.13-0.01-0.26-0.03-0.39-0.08c-28.62-10.58-67.34-51.2-68.98-52.92
			c-0.49-0.54-0.48-1.37,0.03-1.87c0.54-0.51,1.36-0.48,1.85,0.04c0.39,0.42,39.95,41.9,67.99,52.27c0.67,0.26,1.02,1.01,0.78,1.69
			C441.95,456.24,441.42,456.58,440.87,456.56L440.87,456.56z"/>
	</g>
	<g>
		<g>
			<path class="st6" d="M325.01,403.5c5.31,0.26,6.91-6.2,7.67-16.72l-13.26,3.16C319.36,395.72,320.21,403.28,325.01,403.5z"/>
			<path class="st0" d="M325.31,404.17L325.31,404.17l-0.33-0.01c-4.16-0.2-6.31-5.11-6.21-14.23c0-0.31,0.21-0.57,0.5-0.64
				l13.27-3.16c0.19-0.05,0.41,0,0.57,0.15c0.15,0.14,0.24,0.33,0.22,0.55C332.55,397.54,330.94,404.17,325.31,404.17z
				 M320.07,390.46c0,4.77,0.69,12.18,4.98,12.39l0.26,0.01c4.46,0,5.93-6.06,6.66-15.23L320.07,390.46z"/>
		</g>
		<g>
			<path class="st7" d="M368.53,412.16l8.49-14.6c0,0-19-12.36-28.46-14.56l-13.06,3.1l-2.81,0.68
				c-0.76,10.52-2.36,16.97-7.67,16.72c-4.81-0.22-5.66-7.78-5.59-13.56l-6.48,1.54c0,0-9.06,7.95-16.31,14.67
				c-7.26,6.72-7.26,6.72-7.26,6.72l8.36,7.45l2.78-3.84c0,0-11.87,41.33-13.53,58.45c0,0,43.61,35.12,105.36-12.7L368.53,412.16z"
				/>
			<path class="st0" d="M327.93,488.01C327.93,488.01,327.93,488.01,327.93,488.01c-25.44,0-41.2-12.45-41.35-12.57
				c-0.18-0.15-0.26-0.36-0.25-0.59c1.36-14.04,9.66-44.64,12.56-55.02l-0.65,0.87c-0.11,0.15-0.27,0.25-0.45,0.26
				c-0.18,0.01-0.36-0.04-0.5-0.16l-8.36-7.43c-0.13-0.13-0.21-0.31-0.21-0.5c-0.01-0.19,0.07-0.37,0.21-0.5l7.26-6.72
				c7.18-6.64,16.24-14.6,16.33-14.68c0.08-0.07,0.18-0.12,0.27-0.15l6.48-1.55c0.19-0.04,0.4,0,0.56,0.13
				c0.15,0.13,0.24,0.32,0.24,0.53c-0.04,4.73,0.53,12.68,4.98,12.9l0.26,0.01c4.61-0.01,6.02-6.46,6.73-16.12
				c0.03-0.29,0.22-0.54,0.51-0.61l15.86-3.76c0.11-0.04,0.2-0.04,0.3,0c9.46,2.2,27.9,14.14,28.68,14.65
				c0.29,0.18,0.39,0.58,0.21,0.88l-8.33,14.3l23.66,49.74c0.14,0.28,0.06,0.62-0.19,0.81C371.1,479.5,349.29,488.01,327.93,488.01z
				 M287.66,474.61c2.2,1.65,17.14,12.08,40.26,12.08h0.01c20.93,0,42.32-8.3,63.6-24.66l-23.58-49.58
				c-0.09-0.2-0.09-0.44,0.02-0.62l8.17-14.05c-3.11-1.98-19.16-12.06-27.58-14.09l-15.26,3.62c-0.8,10.42-2.45,16.86-7.99,16.86
				l-0.33-0.01c-4.03-0.19-6.16-4.81-6.21-13.39l-5.52,1.31c-1.09,0.97-9.46,8.34-16.18,14.55l-6.72,6.21l7.28,6.48l2.36-3.26
				c0.19-0.25,0.53-0.34,0.81-0.2c0.29,0.14,0.43,0.47,0.34,0.77C301.01,417.06,289.43,457.52,287.66,474.61z"/>
		</g>
	</g>
	<g>
		<path class="st0" d="M208.51,431.34c-0.29-0.01-0.54-0.22-0.6-0.53c-18.53-89.2-19.13-195.08-19.13-196.15
			c0-0.36,0.29-0.65,0.65-0.66c0.4-0.04,0.66,0.29,0.66,0.66c0.01,1.06,0.61,106.81,19.09,195.89c0.08,0.35-0.14,0.69-0.49,0.78
			C208.63,431.33,208.58,431.35,208.51,431.34L208.51,431.34z"/>
	</g>
	<g>
		<path class="st0" d="M207.6,432.4c-0.29-0.02-0.56-0.24-0.61-0.54c-8.21-45.37-59.44-121.95-59.96-122.72
			c-0.2-0.31-0.12-0.71,0.18-0.91c0.3-0.21,0.7-0.13,0.9,0.17c0.52,0.77,51.89,77.59,60.16,123.22c0.06,0.37-0.16,0.71-0.52,0.77
			C207.7,432.4,207.66,432.4,207.6,432.4L207.6,432.4z"/>
	</g>
	<g>
		<path class="st0" d="M368.5,412.81c-0.19-0.01-0.37-0.09-0.49-0.26l-7.98-11.06c-0.21-0.31-0.14-0.71,0.14-0.93
			c0.29-0.21,0.71-0.14,0.91,0.15l7.98,11.06c0.2,0.31,0.14,0.72-0.14,0.93C368.79,412.79,368.65,412.82,368.5,412.81L368.5,412.81z
			"/>
	</g>
	<g>
		<path class="st0" d="M300.47,417.12c-0.1,0-0.21-0.04-0.3-0.09c-0.31-0.18-0.41-0.58-0.24-0.9l6.74-11.93
			c0.19-0.31,0.58-0.42,0.89-0.24c0.31,0.18,0.42,0.58,0.24,0.91l-6.73,11.91C300.95,417.02,300.71,417.13,300.47,417.12
			L300.47,417.12z"/>
	</g>
	<g>
		<path class="st2" d="M322.77,414.54l-7.79,13.52l-10.86,2.13l9.77,7.4l-0.21,11.9l8.21-8.55c0,0,11.7,8.15,11.73,7.16
			c0.04-0.98-1.36-12.96-1.36-12.96l7.47-6.59l-13.25-2.6L322.77,414.54z"/>
		<path class="st0" d="M313.68,450.15c-0.08,0-0.16-0.01-0.25-0.04c-0.26-0.1-0.41-0.35-0.4-0.63l0.2-11.55l-9.49-7.2
			c-0.21-0.15-0.31-0.42-0.25-0.68c0.06-0.26,0.26-0.45,0.51-0.5l10.58-2.09l7.63-13.26c0.13-0.23,0.38-0.36,0.64-0.33
			c0.25,0.03,0.46,0.2,0.54,0.45l3.61,11.04l12.87,2.55c0.24,0.04,0.45,0.22,0.51,0.47c0.07,0.24-0.01,0.5-0.21,0.68l-7.21,6.36
			c0.26,2.22,1.37,11.78,1.32,12.72c-0.01,0.35-0.41,0.72-0.76,0.72l0,0c-1.23,0-8.14-4.71-11.53-7.06l-7.83,8.15
			C314.02,450.08,313.86,450.15,313.68,450.15z M305.68,430.56l8.61,6.51c0.16,0.12,0.26,0.33,0.26,0.53l-0.19,10.23l7.07-7.34
			c0.21-0.23,0.57-0.26,0.84-0.09c4.21,2.93,8.91,6.02,10.67,6.89c-0.18-2.2-0.85-8.18-1.31-12.06c-0.04-0.22,0.05-0.43,0.21-0.58
			l6.46-5.71l-11.93-2.34c-0.24-0.04-0.43-0.22-0.51-0.44l-3.26-10.03l-7.06,12.26c-0.09,0.16-0.26,0.27-0.44,0.31L305.68,430.56z"
			/>
	</g>
	<g>
		<path class="st5" d="M439.21,454.93c0.3-1.02,0.61-2.03,0.7-3.07c0.16-2.15-0.46-7.89,2.84-8c2.84-0.09,1.84,7.36,1.84,7.36
			s4.19-5.97,8.04-4.69c3.85,1.28-3.61,7.76-3.61,7.76s9.71,1.56,9.31,5.52c-0.39,3.95-8.94,0.68-8.94,0.68s6.23,6.45,2.83,9.39
			c-3.39,2.92-8.17-6.56-8.17-6.56c-0.38,2.26-0.97,4.54-1.83,6.66c-0.59,1.42-2.47,4.94-4.34,3.69c-2.21-1.49,0.43-7.44,0.57-9.39
			c0.18-2.27-0.07-4.57,0.19-6.83C438.72,456.6,438.97,455.76,439.21,454.93z"/>
		<path class="st0" d="M438.7,474.6c-0.41,0-0.81-0.13-1.19-0.38c-1.99-1.34-1.01-4.89-0.24-7.75c0.26-0.9,0.49-1.77,0.53-2.24
			c0.07-1,0.07-2.04,0.06-3.05c-0.01-1.23-0.03-2.52,0.12-3.8c0.11-0.95,0.37-1.85,0.61-2.64l0.07-0.25
			c0.27-0.92,0.53-1.79,0.6-2.69c0.03-0.36,0.03-0.84,0.04-1.37c0.03-2.66,0.09-7.13,3.43-7.23c0,0,0,0,0.01,0
			c0.68,0,1.21,0.25,1.62,0.72c0.97,1.14,1.11,3.52,1.05,5.28c1.4-1.52,3.69-3.52,6.11-3.52c0.45,0,0.9,0.07,1.31,0.22
			c1.07,0.35,1.43,1.04,1.52,1.55c0.38,1.97-2.31,4.89-3.94,6.43c2.84,0.61,8.92,2.36,8.57,5.98c-0.09,0.95-0.71,2.55-3.69,2.55
			c-1.31,0-2.78-0.31-3.96-0.62c1.19,1.58,2.64,3.94,2.54,6c-0.06,1.04-0.47,1.91-1.24,2.57c-0.56,0.47-1.16,0.72-1.84,0.72
			c-2.57,0-5.14-3.68-6.46-5.89c-0.4,1.82-0.91,3.52-1.53,5.02C442.52,470.95,440.92,474.6,438.7,474.6z M442.8,444.52
			c-1.97,0.07-2.16,2.96-2.19,5.92c-0.01,0.56-0.01,1.07-0.05,1.46c-0.08,1.04-0.38,2.02-0.65,2.97l-0.07,0.25
			c-0.22,0.74-0.48,1.58-0.56,2.41c-0.14,1.2-0.13,2.45-0.12,3.65c0.01,1.04,0.02,2.1-0.06,3.15c-0.04,0.62-0.29,1.5-0.56,2.51
			c-0.59,2.17-1.51,5.49-0.3,6.29c0.14,0.1,0.3,0.15,0.46,0.15c1.01,0,2.31-2.06,2.91-3.54c0.77-1.9,1.38-4.1,1.79-6.52
			c0.05-0.28,0.26-0.5,0.54-0.55c0.27-0.03,0.54,0.1,0.68,0.35c1.32,2.62,4.16,6.76,6.18,6.76c0.35,0,0.68-0.12,0.99-0.41
			c0.49-0.42,0.74-0.96,0.78-1.62c0.13-2.83-3.62-6.75-3.66-6.8c-0.21-0.23-0.24-0.56-0.08-0.82c0.16-0.26,0.48-0.37,0.77-0.26
			c0.04,0.01,3.24,1.23,5.69,1.23c2.24,0,2.34-0.99,2.38-1.35c0.27-2.71-6.41-4.42-8.76-4.8c-0.25-0.04-0.46-0.21-0.52-0.47
			c-0.07-0.23,0.01-0.51,0.19-0.66c2.03-1.76,4.74-4.81,4.47-6.09c0-0.1-0.06-0.37-0.63-0.56c-0.3-0.09-0.61-0.15-0.91-0.15
			c-3.14,0-6.36,4.56-6.39,4.6c-0.17,0.26-0.5,0.34-0.77,0.24c-0.28-0.12-0.45-0.41-0.41-0.71c0.26-1.9,0.31-5.3-0.58-6.33
			C443.2,444.61,443.02,444.52,442.8,444.52z"/>
	</g>
	<g>
		<path class="st0" d="M210.49,442.86c-0.24-0.01-0.45-0.04-0.66-0.12c-0.74-0.21-1.68-0.86-1.91-2.72
			c-0.68-5.46,9.09-11.85,9.51-12.11c0.3-0.21,0.71-0.12,0.9,0.2c0.19,0.31,0.1,0.71-0.19,0.9c-2.64,1.71-9.41,6.99-8.93,10.83
			c0.17,1.4,0.79,1.58,0.98,1.63c1.64,0.47,4.96-2.01,5.51-2.71c0.23-0.28,0.64-0.32,0.92-0.09c0.28,0.23,0.31,0.65,0.09,0.93
			C216.25,440.19,212.97,442.98,210.49,442.86L210.49,442.86z"/>
	</g>
	<g class="st4">
		<path class="st7" d="M368.53,412.16l8.49-14.6c0,0-19-12.36-28.46-14.56l-2.42,0.58c12.23,21.32,66.41,125.13-59.14,91.08
			c0,0.09-0.01,0.17-0.01,0.25c0,0,43.61,35.12,105.36-12.7L368.53,412.16z"/>
	</g>
	<g>
		<g>
			<g>
				<path class="st5" d="M373.98,354.65c3.7-0.05,10.28-6.13,8.76-15.69c-1.52-9.55-9.66-12.36-16.97-4.76
					c-1.55-8.67-6.66-49.26-8.81-44.95c-2.16,4.3-5.34,16.94-5.34,16.94s-14.73-25.15-16.97-33.2c-2.25-8.04-1.22-6.67-8.34,1.81
					c-7.13,8.5-6.19,7.21-9.66-2.65c-3.47-9.86-5.21-5.09-18.01,4.01c-12.81,9.09-13.18,7.53-7.85-8.97
					c-6.33,3.97-10.82,8.07-13.92,11.47c-5.42,8.78-31.18,54.7-5.77,96.08c17.76,25.3,61.86,23.73,81.75,9.44
					C364.15,379.54,373.92,365.45,373.98,354.65z"/>
				<path class="st0" d="M315.96,395.12L315.96,395.12c-19.92,0-36.47-7.28-45.39-19.99c-25.62-41.71,0.29-87.96,5.75-96.81
					c3.95-4.36,8.68-8.26,14.12-11.68c0.23-0.15,0.54-0.13,0.75,0.04c0.21,0.17,0.3,0.46,0.21,0.73
					c-1.66,5.13-3.92,12.15-2.99,13.45c0.04,0.06,0.12,0.17,0.45,0.17c1.56,0,5.44-2.59,9.39-5.4c2.73-1.93,4.97-3.71,6.79-5.12
					c3.56-2.8,5.73-4.49,7.56-4.49c2.14,0,3.36,2.27,4.66,5.92c0.41,1.19,0.77,2.25,1.08,3.19c0.84,2.51,1.56,4.66,2.12,4.66
					c0.81,0,2.81-2.38,5.34-5.4c1.41-1.67,2.49-3.05,3.36-4.16c1.78-2.28,2.51-3.23,3.39-3.23c1.13,0,1.49,1.28,2.33,4.38l0.39,1.44
					c1.89,6.8,13.02,26.32,16.11,31.68c0.94-3.53,3.25-12.08,4.98-15.54c0.29-0.57,0.67-0.68,0.94-0.68c1.69,0,3.06,5.29,7.46,35.04
					c0.57,3.87,1.07,7.29,1.44,9.53c2.61-2.41,5.39-3.67,8.09-3.67c4.65,0,8.13,3.71,9.08,9.68c1.03,6.5-1.57,10.79-3.21,12.76
					c-1.66,2-3.74,3.35-5.55,3.62c-0.42,11.25-10.32,24.94-21.54,29.56C344.17,391.24,330.24,395.12,315.96,395.12z M289.6,268.74
					c-4.71,3.11-8.82,6.6-12.26,10.38c-5.31,8.64-30.89,54.26-5.69,95.27c8.64,12.32,24.8,19.41,44.3,19.41l0,0
					c14.02,0,27.66-3.79,36.52-10.15c10.92-4.51,20.8-18.31,20.85-29.01c0-0.36,0.29-0.64,0.64-0.65c1.57-0.02,3.61-1.28,5.21-3.22
					c1.5-1.81,3.87-5.73,2.91-11.71c-0.84-5.28-3.81-8.57-7.79-8.57c-2.66,0-5.44,1.44-8.06,4.17c-0.18,0.17-0.42,0.23-0.66,0.16
					c-0.23-0.08-0.41-0.26-0.45-0.51c-0.37-2.1-0.98-6.14-1.66-10.79c-1.59-10.77-4.48-30.3-6.11-33.59
					c-2.11,4.62-5.07,16.31-5.1,16.43c-0.07,0.27-0.28,0.45-0.54,0.49c-0.26,0.05-0.53-0.09-0.66-0.31
					c-0.6-1.03-14.81-25.32-17.03-33.36l-0.41-1.44c-0.45-1.67-0.88-3.24-1.16-3.45c-0.22,0.12-1.22,1.39-2.27,2.76
					c-0.86,1.11-1.96,2.51-3.38,4.2c-3.66,4.35-4.99,5.86-6.34,5.86l0,0c-1.5,0-2.13-1.86-3.35-5.57c-0.31-0.93-0.66-1.99-1.09-3.17
					c-1.26-3.62-2.21-5.02-3.41-5.02c-1.39,0-3.52,1.67-6.77,4.2c-1.81,1.43-4.09,3.2-6.83,5.15c-5.87,4.18-8.53,5.66-10.14,5.66
					c-0.82,0-1.28-0.39-1.51-0.73C286.3,280.15,287.13,276.55,289.6,268.74z"/>
			</g>
			<g>
				<path class="st8" d="M417.77,290.68c0.44-2.3-6.96-4.63-6.96-4.63s2.7-9.13-0.89-9.3c-3.57-0.16-4.19,6.09-4.19,6.09
					s-40.1-86.21-119.99-29.1l-13.73-6.6c0,0,2.77,10.71,5.26,13.47c-11.51,2.11-17.68,8.77-19.2,13.32
					c9.89-2.51,12.27-4.71,11.24-3.44c-1.03,1.28-4.08,10.73-5.3,15.96c-1.21,5.24,13.8-9.27,13.8-9.27s-0.36,0.53-0.96,1.5
					c3.1-3.41,7.58-7.5,13.92-11.47c-5.33,16.51-4.96,18.07,7.85,8.97c12.81-9.1,14.54-13.87,18.01-4.01
					c3.47,9.86,2.53,11.15,9.66,2.65c7.12-8.48,6.09-9.85,8.34-1.81c2.23,8.05,16.97,33.2,16.97,33.2s3.18-12.63,5.34-16.94
					c2.15-4.31,7.26,36.28,8.81,44.95c7.31-7.6,15.45-4.79,16.97,4.76c1.51,9.56-5.06,15.64-8.76,15.69
					c-0.06,10.79-9.83,24.89-21.13,29.54c7.76,1.7,27.84-2.66,49.54-35.04c21.68-32.38,10.42-57.05,10.42-57.05
					S417.34,292.97,417.77,290.68z"/>
				<path class="st0" d="M356.01,385.17c-1.21,0-2.31-0.11-3.29-0.32c-0.29-0.07-0.49-0.3-0.52-0.6c-0.02-0.28,0.14-0.56,0.41-0.66
					c10.79-4.45,20.67-18.25,20.72-28.95c0-0.36,0.29-0.64,0.64-0.65c1.57-0.02,3.61-1.28,5.21-3.22c1.5-1.81,3.87-5.73,2.91-11.71
					c-0.84-5.28-3.81-8.57-7.79-8.57c-2.61,0-5.48,1.48-8.06,4.17c-0.18,0.17-0.42,0.23-0.66,0.16c-0.23-0.08-0.41-0.26-0.45-0.51
					c-0.37-2.1-0.98-6.14-1.66-10.79c-1.59-10.77-4.48-30.3-6.11-33.59c-2.11,4.62-5.07,16.31-5.1,16.43
					c-0.07,0.27-0.28,0.45-0.54,0.49c-0.26,0.05-0.53-0.09-0.66-0.31c-0.6-1.03-14.81-25.32-17.03-33.36l-0.41-1.44
					c-0.45-1.67-0.88-3.24-1.16-3.45c-0.22,0.12-1.22,1.39-2.27,2.76c-0.86,1.11-1.96,2.51-3.38,4.2c-3.66,4.35-4.99,5.86-6.34,5.86
					c-1.5,0-2.13-1.86-3.35-5.57c-0.31-0.93-0.66-1.99-1.09-3.17c-1.26-3.62-2.21-5.02-3.41-5.02c-1.39,0-3.52,1.67-6.77,4.2
					c-1.81,1.43-4.09,3.2-6.83,5.15c-5.87,4.18-8.53,5.66-10.14,5.66c-0.82,0-1.28-0.39-1.51-0.73c-1.06-1.48-0.24-5.08,2.24-12.89
					c-4.71,3.11-8.82,6.6-12.26,10.38c-0.2,0.23-0.52,0.28-0.77,0.15c-3.35,3.13-9.9,8.98-12.08,8.98c-0.5,0-0.77-0.23-0.92-0.43
					c-0.27-0.35-0.34-0.85-0.18-1.52c0.98-4.22,3.29-11.74,4.72-14.92c-1.69,0.7-4.84,1.92-9.88,3.19
					c-0.23,0.06-0.48-0.01-0.64-0.19c-0.16-0.17-0.21-0.43-0.14-0.65c1.3-3.91,6.66-11.04,18.67-13.57
					c-2.35-3.68-4.64-12.47-4.75-12.86c-0.06-0.24,0.02-0.52,0.23-0.67c0.19-0.17,0.46-0.2,0.69-0.09l13.38,6.42
					c18.15-12.9,35.75-19.44,52.31-19.44c40.14,0,62.86,38.61,67.46,47.3c0.51-1.97,1.71-4.74,4.33-4.74c0.01,0,0.16,0,0.18,0
					c0.74,0.04,1.34,0.37,1.76,0.97c1.41,2.01,0.34,6.78-0.12,8.56c2.31,0.78,7.26,2.76,6.81,5.18c-0.19,0.97-0.99,2.13-3.76,2.13
					l0,0c-0.29,0-0.59-0.01-0.82-0.04c1.82,5.11,8.23,28.07-10.9,56.64C380.77,382.59,361.4,385.17,356.01,385.17z M355.21,383.83
					c0.26,0.01,0.52,0.01,0.8,0.01c5.23,0,24.03-2.52,45.83-35.06c21.25-31.71,10.48-56.16,10.38-56.41
					c-0.11-0.22-0.07-0.48,0.07-0.69c0.16-0.19,0.41-0.28,0.64-0.23c0.01,0,0.8,0.15,1.71,0.15c0.86,0,2.3-0.14,2.49-1.04
					c0.19-1.01-3.29-2.86-6.53-3.87c-0.34-0.11-0.53-0.47-0.42-0.82c0.7-2.38,1.45-6.66,0.49-8.04c-0.19-0.28-0.43-0.4-0.78-0.42
					l0,0c-2.9,0-3.51,5.43-3.51,5.49c-0.02,0.3-0.24,0.54-0.54,0.58c-0.29,0.05-0.57-0.1-0.69-0.36
					c-0.24-0.49-22.98-48.27-67.16-48.27c-16.38,0-33.82,6.53-51.87,19.42c-0.19,0.14-0.44,0.16-0.66,0.06l-12.44-5.97
					c0.84,2.95,2.91,9.77,4.74,11.81c0.16,0.18,0.21,0.43,0.14,0.66c-0.08,0.23-0.26,0.39-0.5,0.43
					c-9.71,1.77-16.02,7.1-18.21,11.71c4.99-1.34,7.88-2.57,9.16-3.11c0.7-0.31,0.94-0.41,1.17-0.41c0.25,0,0.52,0.17,0.63,0.41
					c0.2,0.43-0.09,0.8-0.3,1.05c-0.89,1.09-3.89,10.19-5.17,15.7c-0.03,0.14-0.04,0.23-0.05,0.3c1.83-0.29,8.49-6.07,12.76-10.21
					c0.17-0.16,0.41-0.2,0.61-0.16c3.56-3.6,7.75-6.94,12.46-9.9c0.23-0.15,0.54-0.13,0.75,0.04c0.21,0.17,0.3,0.46,0.21,0.73
					c-1.66,5.13-3.92,12.15-2.99,13.45c0.04,0.06,0.12,0.17,0.45,0.17c1.56,0,5.44-2.59,9.39-5.4c2.73-1.93,4.97-3.71,6.79-5.12
					c3.56-2.8,5.73-4.49,7.56-4.49c2.14,0,3.36,2.27,4.66,5.92c0.41,1.18,0.77,2.25,1.07,3.19c0.84,2.51,1.56,4.66,2.13,4.66
					c0.81,0,2.81-2.38,5.34-5.4c1.41-1.67,2.49-3.05,3.36-4.16c1.78-2.28,2.51-3.23,3.39-3.23c1.13,0,1.49,1.28,2.33,4.38l0.39,1.44
					c1.89,6.8,13.02,26.32,16.11,31.68c0.94-3.53,3.25-12.08,4.98-15.54c0.29-0.57,0.67-0.68,0.94-0.68c1.69,0,3.06,5.29,7.46,35.04
					c0.57,3.87,1.07,7.29,1.44,9.53c2.61-2.41,5.39-3.67,8.09-3.67c4.65,0,8.13,3.71,9.08,9.68c1.03,6.5-1.57,10.79-3.21,12.76
					c-1.66,2-3.74,3.35-5.55,3.62C374.24,365.8,365.52,378.46,355.21,383.83z"/>
			</g>
		</g>
		<g>
			<path d="M320.16,314.37c-0.09,2.09-1.85,3.72-3.91,3.62c-2.07-0.1-3.66-1.88-3.57-3.98c0.09-2.09,1.85-3.71,3.91-3.61
				C318.66,310.5,320.25,312.28,320.16,314.37z"/>
		</g>
		<g>
			<path d="M278.29,310.09c-0.1,2.1-1.85,3.72-3.92,3.63c-2.07-0.1-3.66-1.88-3.56-3.98c0.1-2.1,1.84-3.72,3.91-3.62
				C276.78,306.23,278.38,308.01,278.29,310.09z"/>
		</g>
		<g>
			<path class="st0" d="M292.67,367.78c-1.5-0.07-3.06-0.23-4.68-0.52c-18.43-3.21-19.61-25.43-19.62-25.66
				c-0.01-0.36,0.26-0.66,0.63-0.69c0.4-0.01,0.66,0.27,0.67,0.63c0.01,0.2,1.16,21.37,18.53,24.41
				c18.85,3.29,29.47-9.43,32.27-13.41c0.21-0.31,0.61-0.36,0.91-0.16c0.3,0.23,0.37,0.63,0.16,0.93
				C318.87,357.12,309.36,368.57,292.67,367.78L292.67,367.78z"/>
		</g>
		<g class="st9">
			<path class="st10" d="M382.74,338.96c-1.52-9.55-9.66-12.36-16.97-4.76c-1.55-8.67-6.66-49.26-8.81-44.95
				c-1.11,2.22-2.47,6.61-3.56,10.37c6.58,31.79,11.16,85.14-30.49,90.12c-32.86,4.44-51.19-12.81-57.79-27.07
				c1.56,4.04,3.53,8.07,5.98,12.08c17.76,25.3,61.86,23.73,81.75,9.44c11.3-4.65,21.08-18.74,21.13-29.54
				C377.68,354.6,384.26,348.52,382.74,338.96z"/>
		</g>
	</g>
	<g>
		<g>
			<g>
				<g>
					<path class="st11" d="M252.17,131.79c-2.61,57.23-37.65,102.07-78.27,100.17c-40.62-1.9-71.43-49.83-68.82-107.05
						c2.61-57.24,37.65-102.08,78.26-100.18C223.96,26.61,254.77,74.55,252.17,131.79z"/>
					<path class="st0" d="M176.39,232.67c-0.84,0-1.67-0.02-2.52-0.06c-19.85-0.93-38.02-12.68-51.13-33.08
						c-13.08-20.34-19.58-46.86-18.31-74.68c2.63-57.74,37.62-102.76,78.94-100.79c19.87,0.93,38.02,12.68,51.15,33.08
						c13.06,20.34,19.57,46.85,18.3,74.67C250.24,188.37,216.67,232.67,176.39,232.67z M180.85,25.32
						c-39.58,0-72.58,43.74-75.13,99.6c-1.26,27.54,5.18,53.78,18.11,73.89c12.88,20.04,30.68,31.57,50.09,32.49
						c40.64,1.87,74.99-42.53,77.58-99.55c1.26-27.53-5.17-53.78-18.09-73.88c-12.88-20.04-30.68-31.58-50.11-32.49
						C182.49,25.35,181.67,25.32,180.85,25.32z"/>
				</g>
				<g>
					<path class="st12" d="M160.79,75.91c-0.56,12.39-7.58,22.13-15.66,21.74c-8.09-0.37-14.19-10.72-13.62-23.11
						c0.56-12.39,7.58-22.13,15.66-21.76C155.26,53.17,161.36,63.52,160.79,75.91z"/>
				</g>
				<g>
					<path class="st12" d="M134.54,122.64c-0.24,5.28-3.21,9.44-6.63,9.28c-3.4-0.16-5.98-4.57-5.74-9.86
						c0.24-5.28,3.2-9.45,6.62-9.28C132.19,112.94,134.77,117.35,134.54,122.64z"/>
				</g>
			</g>
			<g>
				<polygon class="st11" points="189,229.69 185.05,237.77 194.82,238.23 				"/>
				<path class="st0" d="M194.82,238.9c-0.01,0-0.03-0.01-0.04-0.01l-9.76-0.46c-0.22,0-0.41-0.13-0.53-0.32
					c-0.11-0.2-0.12-0.42-0.02-0.63l3.96-8.08c0.09-0.2,0.29-0.34,0.52-0.37c0.26,0,0.46,0.09,0.59,0.28l5.81,8.53
					c0.14,0.21,0.15,0.49,0.04,0.7C195.27,238.76,195.06,238.9,194.82,238.9z M186.07,237.16l7.46,0.34l-4.44-6.51L186.07,237.16z"
					/>
			</g>
		</g>
		<g class="st13">
			<path class="st11" d="M188.23,25.2c23.78,13.63,53.85,44.8,46.62,114.38c-11.49,110.73-119.22,76.39-129.5,2.84
				c3.67,49.18,32.17,87.83,68.55,89.54c40.62,1.9,75.66-42.94,78.27-100.17C254.67,76.87,226.4,30.55,188.23,25.2z"/>
		</g>
	</g>
	<g>
		<g>
			<g>
				<g>
					<path class="st2" d="M142.66,214.69c22.51,37.13,19.25,80.63-7.26,97.17c-26.51,16.52-66.26-0.18-88.77-37.29
						c-22.5-37.12-19.25-80.63,7.27-97.15C80.41,160.87,120.15,177.57,142.66,214.69z"/>
					<path class="st0" d="M112.38,318.89c-24.08,0-50.11-17.26-66.31-43.98c-10.96-18.07-16.23-38.21-14.86-56.7
						c1.41-18.55,9.33-33.24,22.33-41.36c6.91-4.3,14.76-6.49,23.36-6.49c24.08,0,50.12,17.26,66.31,43.98
						c22.66,37.38,19.31,81.38-7.48,98.07C128.84,316.71,120.99,318.89,112.38,318.89z M76.91,171.68c-8.36,0-15.98,2.12-22.68,6.29
						c-12.65,7.88-20.35,22.21-21.7,40.34c-1.37,18.21,3.84,38.07,14.64,55.91c15.98,26.33,41.57,43.35,65.21,43.35
						c8.36,0,15.98-2.12,22.68-6.29c26.17-16.31,29.35-59.48,7.06-96.24C126.15,188.7,100.56,171.68,76.91,171.68z"/>
				</g>
				<g>
					<path class="st12" d="M66.27,228.36c0.61,12.4-5.46,22.76-13.55,23.16c-8.09,0.41-15.13-9.31-15.73-21.7
						c-0.6-12.4,5.47-22.76,13.56-23.17C58.63,206.26,65.67,215.98,66.27,228.36z"/>
				</g>
				<g>
					<path class="st12" d="M62.79,262.15c1.59,5.03,0.24,9.98-3.01,11.04c-3.25,1.05-7.18-2.17-8.77-7.2
						c-1.6-5.05-0.26-9.99,3-11.04C57.25,253.89,61.18,257.11,62.79,262.15z"/>
				</g>
			</g>
			<g>
				<polygon class="st3" points="142.94,305.47 147.18,317.56 154.52,309.09 				"/>
				<path class="st0" d="M147.18,318.22c-0.04,0-0.09-0.01-0.12-0.01c-0.23-0.05-0.41-0.2-0.49-0.43l-4.24-12.1
					c-0.09-0.23-0.03-0.5,0.14-0.68c0.17-0.18,0.43-0.25,0.66-0.18l11.58,3.63c0.21,0.07,0.38,0.23,0.44,0.45
					c0.06,0.21,0.01,0.46-0.14,0.62l-7.34,8.47C147.55,318.14,147.36,318.22,147.18,318.22z M143.99,306.49l3.43,9.8l5.94-6.86
					L143.99,306.49z"/>
			</g>
		</g>
		<g>
			<path class="st14" d="M142.66,214.69c-22.1-36.46-60.79-53.18-87.3-38.13c21.1-2.43,42.34-4.33,65.76,25.81
				c34.68,44.63,36.89,103.62-6.14,115.77c7.26-0.38,14.21-2.41,20.42-6.28C161.91,295.31,165.17,251.81,142.66,214.69z"/>
		</g>
	</g>
</g>
</svg>
