<?xml version="1.0" encoding="utf-8"?>
<!-- Generator: Adobe Illustrator 23.0.5, SVG Export Plug-In . SVG Version: 6.00 Build 0)  -->
<svg version="1.1" id="Layer_1" xmlns="http://www.w3.org/2000/svg" xmlns:xlink="http://www.w3.org/1999/xlink" x="0px" y="0px"
	 viewBox="0 0 480 640" style="enable-background:new 0 0 480 640;" xml:space="preserve">
<style type="text/css">
	.st0{fill:#0A0A0A;}
	.st1{fill:#5A9048;}
	.st2{fill:#85CA4D;}
	.st3{fill:#AD9ACE;}
	.st4{opacity:0.49;}
	.st5{fill:#FFFFFF;}
	.st6{fill:#A85802;}
	.st7{fill:#E32C3B;}
	.st8{fill:#B9BABD;}
	.st9{fill:#351920;}
	.st10{opacity:0.4;}
	.st11{fill:#D76B2A;}
	.st12{fill:#FFDC36;}
</style>
<g>
	<g>
		<g>
			<g>
				<path class="st0" d="M332.52,595c0.79,0,1.5-0.55,1.75-1.39l8.53-29.76c0.29-1.04-0.25-2.16-1.2-2.48
					c-0.98-0.33-1.99,0.26-2.29,1.31l-8.53,29.76c-0.31,1.04,0.24,2.16,1.2,2.47C332.16,594.98,332.35,595,332.52,595L332.52,595z"
					/>
			</g>
			<g>
				<path class="st0" d="M219.21,571.87c0.65,0,1.26-0.37,1.6-1.03l14.01-27.1c0.5-0.95,0.19-2.17-0.69-2.7
					c-0.9-0.53-2-0.2-2.5,0.76l-14,27.12c-0.5,0.96-0.17,2.17,0.69,2.69C218.6,571.79,218.9,571.87,219.21,571.87L219.21,571.87z"/>
			</g>
		</g>
		<g>
			<g>
				<path class="st1" d="M309.99,583.26c12.14,14.87,18.76,28.35,17.54,35.6c-14.88-2.71-41.39-42.96-37.51-54.32
					C293.71,566.38,300.08,571.14,309.99,583.26z"/>
				<path class="st0" d="M327.52,619.85c-0.04,0-0.09,0-0.15,0c-9.8-1.79-24.19-18.86-32.45-34.34c-2.97-5.56-7.68-15.73-5.78-21.32
					c0.09-0.25,0.28-0.46,0.51-0.57c0.24-0.11,0.5-0.1,0.74,0.02c3.67,1.83,10.18,6.61,20.28,18.98
					c12.4,15.18,19.03,28.79,17.76,36.43C328.35,619.52,327.96,619.85,327.52,619.85z M290.61,565.97
					c-0.5,3.78,1.63,10.56,5.89,18.54c7.62,14.25,21.09,30.58,30.24,33.17c0.42-7.17-6.14-19.93-17.45-33.75
					C300.28,572.88,294.27,568.06,290.61,565.97z"/>
			</g>
			<g>
				<path class="st2" d="M292.31,561.95c12.8-5.3,35.95,23.8,35.95,23.8c6.09,5.28,17.67,29.09,2.44,33.06
					c-0.98,0.25-2.04,0.25-3.18,0.05c1.22-7.24-5.39-20.72-17.54-35.6c-9.91-12.13-16.28-16.88-19.97-18.72
					C290.42,563.32,291.16,562.43,292.31,561.95z"/>
				<path class="st0" d="M329.08,620c-0.55,0-1.12-0.06-1.71-0.15c-0.23-0.06-0.45-0.2-0.59-0.42c-0.15-0.21-0.2-0.48-0.15-0.74
					c1.15-6.92-5.48-20.24-17.34-34.76c-9.88-12.1-16.15-16.74-19.67-18.49c-0.43-0.21-0.64-0.76-0.49-1.24
					c0.53-1.55,1.49-2.61,2.85-3.18c1.14-0.48,2.38-0.71,3.72-0.71c13.36,0,32.44,23.77,33.23,24.79c4.4,3.78,11.8,17.21,9.9,26.51
					c-0.87,4.21-3.61,7.03-7.93,8.15C330.33,619.92,329.72,620,329.08,620z M328.55,617.99c0.69,0.06,1.34,0.01,1.93-0.15
					c3.64-0.94,5.86-3.19,6.57-6.66c1.67-8.09-5.18-21.03-9.37-24.66c-0.31-0.37-19.44-24.24-31.97-24.24
					c-1.11,0-2.14,0.21-3.08,0.59c-0.6,0.25-1.07,0.64-1.41,1.21c3.8,2.1,10.07,7.04,19.44,18.52
					C322.52,597.12,329.11,610.2,328.55,617.99z"/>
			</g>
		</g>
		<g>
			<g>
				<path class="st1" d="M194.84,563.43c12.15,14.88,18.76,28.35,17.54,35.6c-14.88-2.71-41.39-42.96-37.52-54.33
					C178.57,546.54,184.94,551.31,194.84,563.43z"/>
				<path class="st0" d="M212.39,600.01c-0.04,0-0.09-0.01-0.15-0.02c-9.78-1.78-24.18-18.85-32.46-34.31
					c-2.97-5.57-7.68-15.73-5.78-21.34c0.09-0.24,0.27-0.45,0.51-0.57c0.23-0.1,0.5-0.1,0.72,0.02c3.69,1.84,10.19,6.61,20.29,18.99
					c12.41,15.18,19.05,28.8,17.76,36.42C213.2,599.67,212.82,600.01,212.39,600.01z M175.48,546.12
					c-0.52,3.79,1.62,10.56,5.89,18.57c7.62,14.25,21.1,30.55,30.23,33.13c0.42-7.15-6.15-19.9-17.44-33.72
					C185.13,553.05,179.13,548.22,175.48,546.12z"/>
			</g>
			<g>
				<path class="st2" d="M177.17,542.1c12.8-5.29,35.94,23.81,35.94,23.81c6.09,5.29,17.67,29.1,2.44,33.07
					c-0.98,0.25-2.05,0.25-3.17,0.05c1.22-7.24-5.39-20.71-17.54-35.6c-9.9-12.12-16.27-16.88-19.98-18.74
					C175.28,543.48,176.02,542.57,177.17,542.1z"/>
				<path class="st0" d="M213.94,600.17c-0.55,0-1.12-0.06-1.7-0.18c-0.25-0.05-0.45-0.19-0.6-0.41c-0.15-0.22-0.2-0.48-0.15-0.74
					c1.17-6.94-5.48-20.26-17.33-34.75c-9.89-12.12-16.16-16.75-19.68-18.51c-0.43-0.21-0.64-0.76-0.47-1.25
					c0.53-1.53,1.49-2.61,2.84-3.16c1.13-0.47,2.38-0.72,3.72-0.72c13.36,0,32.42,23.78,33.23,24.81c4.39,3.77,11.81,17.2,9.89,26.5
					c-0.86,4.21-3.61,7.04-7.94,8.17C215.21,600.1,214.59,600.17,213.94,600.17z M213.41,598.15c0.69,0.06,1.35,0,1.93-0.14
					c3.65-0.96,5.86-3.19,6.58-6.67c1.66-8.09-5.18-21.03-9.37-24.66c-0.31-0.37-19.45-24.23-31.97-24.23
					c-1.12,0-2.15,0.19-3.08,0.58c-0.6,0.24-1.06,0.64-1.41,1.19c3.79,2.12,10.07,7.07,19.43,18.54
					C207.39,577.29,213.97,590.37,213.41,598.15z"/>
			</g>
		</g>
	</g>
	<g>
		<path class="st3" d="M268.56,383.42c0,0,3.96,14.39,8.53,23.81c-19.19,38.68-50.72,105.13-55.74,133.4c0,0,6.39,7.42,16.45,7.93
			l66.7-115.54c0,0,14.62,4.46,33.81,4.46c0.91,50.09-4.11,105.63-9.13,127.95c0,0,7.31,4.46,17.82,4.95
			c0,0,48.89-115.54,49.34-193.88L268.56,383.42z"/>
		<path class="st0" d="M347,571.36c-0.02,0-0.04,0-0.04,0c-10.61-0.49-17.93-4.89-18.24-5.07c-0.36-0.23-0.54-0.68-0.44-1.11
			c5.06-22.45,9.95-77.12,9.13-126.72c-16.39-0.11-29.46-3.46-32.49-4.31l-66.37,114.94c-0.17,0.3-0.47,0.45-0.8,0.46
			c-10.31-0.51-16.8-7.94-17.08-8.25c-0.2-0.23-0.28-0.55-0.23-0.86c5.09-28.55,36.91-95.52,55.61-133.22
			c-4.45-9.4-8.33-23.36-8.37-23.5c-0.08-0.3-0.04-0.61,0.12-0.85c0.16-0.26,0.42-0.41,0.71-0.42l127.78-6.95
			c0.25,0,0.5,0.1,0.67,0.28c0.19,0.19,0.29,0.45,0.29,0.73c-0.45,77.65-48.95,193.12-49.43,194.29
			C347.67,571.13,347.35,571.36,347,571.36z M330.23,564.89c1.9,1,8.04,3.95,16.19,4.46c3.8-9.15,48.15-117.54,49-191.83
			l-125.65,6.82c1.06,3.66,4.41,14.76,8.12,22.41c0.14,0.3,0.14,0.65-0.01,0.94c-18.5,37.29-50.21,103.9-55.55,132.59
			c1.36,1.4,6.95,6.64,14.96,7.24l66.42-115.04c0.21-0.38,0.63-0.55,1.03-0.44c0.14,0.04,14.73,4.43,33.56,4.43
			c0.5,0,0.9,0.43,0.91,0.97C340.13,486.92,335.29,541.72,330.23,564.89z"/>
	</g>
	<g class="st4">
		<path class="st3" d="M369.68,404.58c-57.87,9.99-86.72-3.64-98.34-12.08c-1.69-5.12-2.79-9.08-2.79-9.08l127.78-6.94
			C395.89,454.82,347,570.37,347,570.37c-10.51-0.49-17.82-4.95-17.82-4.95c0.36-1.63,0.72-3.45,1.08-5.41
			C360.1,545,392.17,400.2,369.68,404.58z"/>
	</g>
	<g>
		<path class="st0" d="M256.97,299.12c0.48,0,0.95-0.2,1.32-0.6l17.81-19.83c0.71-0.78,0.69-2.05-0.03-2.8
			c-0.73-0.77-1.88-0.77-2.59,0.02l-17.81,19.85c-0.71,0.78-0.69,2.02,0.03,2.8C256.06,298.93,256.52,299.12,256.97,299.12
			L256.97,299.12z"/>
	</g>
	<g>
		<path class="st5" d="M330.08,251.19c0,0,65.8,23.14,66.4,123.65c-6.7,18.51-70.05,48.92-127.93,8.59
			c-10.35-5.95,0.61-7.93,0.61-7.93s-23.16-42.97,6.7-99.84C294.75,247.22,307.54,237.96,330.08,251.19z"/>
		<path class="st0" d="M330.5,404.33c-22.33,0-43.34-6.75-62.44-20.07c-3.57-2.05-5.13-3.91-4.85-5.82
			c0.32-2.11,2.92-3.18,4.57-3.65c-3.4-7.38-19.75-48.14,7.28-99.63c12.69-19.1,23.26-30.88,36.88-30.88
			c5.57,0,11.64,1.98,18.56,6.04c0.52,0.16,66.29,24.44,66.88,124.51c0,0.13-0.02,0.25-0.07,0.37
			C392.94,387.35,365.37,404.33,330.5,404.33z M311.95,246.25c-12.85,0-23.06,11.46-35.34,29.97c-29.18,55.59-6.88,98.33-6.65,98.76
			c0.15,0.28,0.16,0.63,0.04,0.92c-0.13,0.29-0.38,0.5-0.68,0.56c-1.71,0.31-4.15,1.28-4.29,2.29c-0.1,0.68,0.89,2.02,3.96,3.8
			c18.87,13.14,39.55,19.78,61.52,19.78c33.43,0,60.75-16.33,65.07-27.69c-0.69-98.42-65.12-122.29-65.77-122.51
			C323,248.15,317.22,246.25,311.95,246.25z"/>
	</g>
	<g>
		<path class="st6" d="M235.5,307.05c-5.71-3.97-19.51-1.11-21.47,4.98c-3.2,9.9,0.91,29.73,9.14,25.77
			c6.61-3.19,15.77-18.96,14.77-26.86C237.72,309.26,236.83,307.97,235.5,307.05z"/>
		<path class="st0" d="M221.08,339.31L221.08,339.31c-1.97,0-3.78-1.2-5.27-3.47c-3.65-5.59-4.91-17.09-2.63-24.15
			c1.51-4.66,8.85-7.46,15.09-7.46c2.22,0,5.36,0.35,7.73,1.99c1.63,1.13,2.6,2.71,2.84,4.58c1.08,8.54-8.54,24.64-15.3,27.91
			C222.72,339.11,221.88,339.31,221.08,339.31z M228.26,306.22c-6.28,0-12.28,2.73-13.37,6.12c-2.07,6.43-0.9,17.29,2.41,22.35
			c1.14,1.75,2.41,2.64,3.78,2.64l0,0c0.55,0,1.14-0.15,1.73-0.44c6.12-2.96,15.21-18.11,14.22-25.82c-0.17-1.3-0.85-2.37-2.01-3.19
			C233.45,306.8,231.05,306.22,228.26,306.22z"/>
	</g>
	<g>
		<polygon class="st7" points="307.85,268.04 323.08,259.45 316.38,281.6 302.37,261.11 299.02,276.97 		"/>
		<path class="st0" d="M316.38,282.59c-0.28,0-0.56-0.14-0.74-0.4l-8.35-12.23l-7.65,7.74c-0.29,0.29-0.73,0.34-1.08,0.14
			c-0.34-0.23-0.52-0.66-0.43-1.1l3.35-15.86c0.07-0.37,0.35-0.66,0.7-0.74c0.36-0.07,0.71,0.08,0.93,0.37l4.48,6.57l15.07-8.5
			c0.34-0.2,0.74-0.14,1.03,0.11c0.28,0.26,0.39,0.68,0.27,1.07l-6.71,22.16c-0.11,0.35-0.39,0.61-0.73,0.66
			C316.47,282.59,316.43,282.59,316.38,282.59z M308.69,268.68l7.38,10.79l5.45-18.02L308.69,268.68z M302.81,263.42l-2.25,10.62
			l5.62-5.68L302.81,263.42z"/>
	</g>
	<g>
		<g>
			<path class="st8" d="M332.44,252.17c11.67,5.23,63.52,33.47,64.05,122.67c-4.1,11.33-29.4,27.07-61.68,28.38
				C311.17,333.7,324.62,275.86,332.44,252.17z"/>
			<path d="M334.81,404.22c-0.38,0-0.72-0.26-0.85-0.66c-24.01-70.59-9.66-129.62-2.38-151.73c0.09-0.25,0.26-0.46,0.49-0.57
				c0.23-0.11,0.49-0.11,0.71-0.01c10.7,4.78,64.08,33.26,64.63,123.57c0,0.13-0.02,0.25-0.07,0.37
				c-4.59,12.71-31.39,27.76-62.5,29.02C334.83,404.22,334.82,404.22,334.81,404.22z M332.98,253.48
				c-7.27,22.57-20.68,80.06,2.46,148.71c31.48-1.47,56.1-16.91,60.14-27.55C394.98,288.03,345.23,259.24,332.98,253.48z"/>
		</g>
		<g>
			<path class="st8" d="M269.17,375.49c0,0-23.16-42.97,6.7-99.84c8.23-12.38,15.29-21.12,22.52-25.96
				c-8.81,20.12-22.78,66.76-11.06,144.35c-6.28-2.81-12.56-6.29-18.78-10.61C258.21,377.47,269.17,375.49,269.17,375.49z"/>
			<path d="M287.33,395.02c-0.12,0-0.23-0.02-0.34-0.06c-6.65-2.98-13.01-6.57-18.92-10.7c-3.57-2.05-5.13-3.91-4.85-5.82
				c0.32-2.11,2.92-3.18,4.57-3.65c-3.4-7.38-19.75-48.14,7.28-99.63c9.26-13.93,16.06-21.78,22.84-26.31
				c0.34-0.22,0.79-0.18,1.09,0.11c0.3,0.29,0.39,0.77,0.22,1.17c-9.07,20.7-22.53,66.85-11.03,143.45c0.07,0.14,0.1,0.3,0.1,0.45
				c0,0.56-0.44,0.95-0.93,0.99H287.33z M296.2,252.5c-5.72,4.6-11.76,11.95-19.59,23.73c-29.18,55.59-6.88,98.33-6.65,98.76
				c0.15,0.28,0.16,0.63,0.04,0.92c-0.13,0.29-0.38,0.5-0.68,0.56c-1.71,0.31-4.15,1.28-4.29,2.29c-0.1,0.68,0.89,2.02,3.96,3.8
				c5.43,3.78,11.19,7.09,17.18,9.87C275.51,319.92,287.2,274.64,296.2,252.5z"/>
		</g>
	</g>
	<g>
		<path class="st8" d="M370.9,321.27c-19.3-59.05-51.88-71.46-68.59-73.77c8.17-3.82,16.82-2.74,27.77,3.68
			c0,0,65.8,23.14,66.4,123.65c-6.7,18.51-70.05,48.92-127.93,8.59c-7.24-4.17-4.07-6.37-1.49-7.34
			C328.81,412.97,391.64,385.57,370.9,321.27z"/>
	</g>
	<g>
		<g>
			<g>
				<path class="st9" d="M384.3,221.43c24.97,0,27.41-33.72,12.79-31.74c15.84-68.76-24.96-85.95-24.96-85.95
					s6.69-25.79-29.25-39.01c-48.74-15.86-87.73,3.3-87.73,3.3c-17.06-1.97-15.23-29.07-2.43-27.76
					c4.87,28.43,27.41-17.19,98.7-15.22c71.26,1.99,77.98,68.12,77.98,68.12s28.02,18.52,24.35,81.33
					c-13.39,99.18-98.68,86.62-114.52,78.01C339.22,252.5,377.61,246.55,384.3,221.43z"/>
				<path d="M369.63,259.19c-13.83,0-25.67-3-30.82-5.79c-0.36-0.19-0.56-0.61-0.5-1.05c0.07-0.43,0.38-0.76,0.78-0.82
					c0.37-0.06,37.87-6.15,44.33-30.37c0.12-0.42,0.47-0.71,0.87-0.71c8.2,0,13.13-3.74,15.83-6.86c3.16-3.69,5.06-8.71,5.06-13.46
					c0-4.7-2.16-10.24-7.98-9.44c-0.31,0.03-0.6-0.09-0.8-0.33c-0.2-0.25-0.27-0.59-0.2-0.9c15.46-67.14-24.02-84.62-24.43-84.79
					c-0.44-0.2-0.67-0.71-0.55-1.2c0.25-1,5.99-25.05-28.66-37.79c-12.7-4.14-25.92-6.25-39.27-6.25c-28.11,0-47.58,9.42-47.79,9.5
					c-0.15,0.08-0.31,0.1-0.47,0.09c-9.6-1.12-13.58-9.75-13.21-17.3c0.39-7.78,4.88-13.07,10.96-12.44
					c0.42,0.04,0.74,0.37,0.81,0.8c1.29,7.51,3.67,8.54,6.04,8.54c3.34,0,8.17-2.43,14.85-5.79c15.48-7.82,39.22-19.81,76.93-18.76
					c68.04,1.9,77.98,62.48,78.79,68.52c3.48,2.53,27.89,22.46,24.43,81.97C444.34,250.95,391.76,259.19,369.63,259.19z
					 M342.45,252.9c5.82,2.25,15.77,4.31,27.18,4.31c21.66,0,73.12-8.07,83.23-82.86c3.56-61.43-23.67-80.16-23.94-80.35
					c-0.25-0.15-0.4-0.42-0.44-0.73c-0.07-0.65-7.47-65.28-77.09-67.22c-37.25-1.06-60.79,10.84-76.12,18.57
					c-6.9,3.48-11.86,6-15.61,6c-4.06,0-6.45-2.91-7.7-9.4c-0.04-0.01-0.09-0.01-0.13-0.01c-5.25,0-7.89,5.51-8.16,10.62
					c-0.32,6.58,3.1,14.09,11.34,15.18c2.32-1.08,21.46-9.56,48.3-9.56c13.52,0,26.93,2.13,39.82,6.32
					c32.71,12.03,30.8,34.71,30.03,39.38c5.4,2.76,39.03,22.76,25.12,85.47c0.01,0,0.02,0,0.02,0c5.21,0,8.72,4.61,8.72,11.5
					c0,5.23-2.08,10.77-5.55,14.8c-2.86,3.33-8.03,7.28-16.48,7.49C378.84,243.36,351.77,250.9,342.45,252.9z"/>
			</g>
			<g>
				<path class="st6" d="M255.15,68.03c0,0,38.99-19.16,87.73-3.3c35.94,13.23,29.25,39.01,29.25,39.01s40.8,17.19,24.96,85.95
					c14.62-1.98,12.18,31.74-12.79,31.74c-6.7,25.12-45.08,31.07-45.08,31.07c-20.7-1.32-108.44-17.18-113.31-87.93
					C221.04,93.82,255.15,68.03,255.15,68.03z"/>
				<path class="st0" d="M339.22,253.5c-0.01,0-0.03,0-0.05,0c-30.18-1.94-109.55-21.67-114.17-88.85
					c-4.85-70.52,29.29-97.16,29.63-97.44c0.34-0.18,20.16-9.76,48.68-9.76c13.52,0,26.93,2.13,39.82,6.32
					c32.71,12.03,30.8,34.71,30.03,39.38c5.4,2.76,39.03,22.76,25.12,85.47c0.01,0,0.02,0,0.02,0c5.22,0,8.72,4.61,8.72,11.5
					c0,5.23-2.08,10.77-5.55,14.8c-2.86,3.33-8.03,7.28-16.48,7.49c-7.29,24.85-44.06,30.82-45.64,31.06
					C339.31,253.5,339.27,253.5,339.22,253.5z M303.32,59.43c-28.13,0-47.58,9.42-47.79,9.5c-0.19,0.17-33.47,26.27-28.7,95.56
					c5.3,77.01,108.72,86.73,112.37,87.01c2.09-0.33,37.93-6.72,44.24-30.35c0.12-0.42,0.47-0.71,0.87-0.71
					c8.2,0,13.13-3.74,15.83-6.86c3.17-3.69,5.06-8.71,5.06-13.46c0-4.7-2.17-10.24-7.98-9.44c-0.31,0.03-0.6-0.09-0.8-0.33
					c-0.2-0.25-0.27-0.59-0.2-0.9c15.44-67.07-24.02-84.62-24.43-84.79c-0.44-0.2-0.67-0.71-0.55-1.2c0.25-1,5.99-25.05-28.66-37.79
					C329.88,61.53,316.66,59.43,303.32,59.43z"/>
			</g>
		</g>
		<g class="st10">
			<path class="st11" d="M233.83,193.64c9.52,13.63,22.81,27.49,36.24,36.46c17.75,11.84,40.25,13.24,60.11,7.35
				c28.89-8.57,51.05-41.56,50.08-73.85c-1.76-57.9-42.87-102.07-96.34-100.08c-9.07,0.34-18.52,1.63-27.65,4
				c6.67-2.94,42.68-17.1,86.6-2.8c35.94,13.23,29.25,39.01,29.25,39.01s40.8,17.19,24.96,85.95c14.62-1.98,12.18,31.74-12.79,31.74
				c-6.7,25.12-45.08,31.07-45.08,31.07c-17.49-1.12-82.77-12.61-105.59-58.77C233.7,193.7,233.76,193.68,233.83,193.64z"/>
		</g>
		<g>
			<path class="st0" d="M313.19,234.66c0.23,0,0.45-0.1,0.63-0.29c0.36-0.37,0.38-1,0.03-1.4c-12.71-14.26-4.46-39.87-4.37-40.13
				c0.17-0.5-0.08-1.08-0.55-1.27c-0.47-0.18-1,0.09-1.16,0.6c-0.37,1.09-8.73,27.03,4.76,42.18
				C312.71,234.55,312.94,234.66,313.19,234.66L313.19,234.66z"/>
		</g>
		<g>
			<path d="M256.57,128.82c-0.47,3.79,1.27,7.19,3.9,7.58c2.62,0.38,5.13-2.39,5.61-6.19c0.47-3.79-1.27-7.19-3.9-7.58
				C259.55,122.26,257.04,125.02,256.57,128.82z"/>
		</g>
		<g>
			<path d="M318.33,148.33c-0.48,3.8,1.27,7.2,3.89,7.57c2.62,0.4,5.14-2.37,5.61-6.17c0.47-3.79-1.28-7.2-3.89-7.58
				C321.31,141.77,318.8,144.53,318.33,148.33z"/>
		</g>
	</g>
	<g>
		<g>
			<path class="st12" d="M305.88,220.28c0,0-44.78,8.42-51.63,97.68c-6.86,89.26-45.24,138.85-100.07,135.38
				c-54.82-3.47-74.01-61.48-74.01-61.48l55.74-61.01c0,0-0.45,51.58,26.5,53.07c26.96,1.49,72.84-45.8,84.53-103.15
				c13.71-67.28,58.95-65.97,58.95-65.97V220.28z"/>
			<path class="st0" d="M159.52,454.5c-1.76,0-3.59-0.05-5.39-0.17c-54.8-3.47-74.64-61.56-74.84-62.13
				c-0.12-0.37-0.04-0.77,0.22-1.04l55.75-61c0.25-0.29,0.65-0.37,0.99-0.21c0.35,0.16,0.58,0.53,0.58,0.93
				c-0.01,0.5-0.15,50.65,25.62,52.05c0.41,0.02,0.81,0.04,1.22,0.04c27.69,0,71.13-47.24,82.38-102.4
				c13.21-64.86,54.92-66.74,59.65-66.74c0.5,0,1.1,0.45,1.1,0.99v5.47c0,0.48-0.32,0.88-0.76,0.97
				c-0.44,0.08-44.16,9.44-50.88,96.8C248.58,403.5,212.84,454.5,159.52,454.5z M81.22,392.1c2.21,6.04,22.36,57.05,73.01,60.25
				c1.77,0.11,3.56,0.17,5.29,0.17c52.27,0,87.34-50.33,93.81-134.64c6.35-82.59,45.65-96.73,51.63-98.39v-3.66
				c-7.54,0.29-44.83,4.76-57.13,65.15c-11.6,56.87-57.29,105.36-85.47,103.93c-24.45-1.36-27.07-41.28-27.34-51.68L81.22,392.1z"/>
		</g>
		<g>
			<g>
				<g>
					<g>
						<path class="st12" d="M234.74,299.79l8.24,4.3L234.74,299.79z"/>
					</g>
					<g>
						<path class="st0" d="M242.97,305.07c0.35,0,0.67-0.21,0.82-0.56c0.22-0.49,0.02-1.09-0.42-1.32l-8.23-4.3
							c-0.47-0.24-1.01-0.03-1.22,0.47c-0.22,0.49-0.03,1.08,0.42,1.32l8.23,4.29C242.71,305.04,242.84,305.07,242.97,305.07
							L242.97,305.07z"/>
					</g>
				</g>
				<g>
					<g>
						<path class="st12" d="M241.47,282.39l7.6,4.17L241.47,282.39z"/>
					</g>
					<g>
						<path class="st0" d="M249.07,287.55c0.34,0,0.66-0.2,0.82-0.55c0.22-0.48,0.04-1.08-0.41-1.33l-7.59-4.17
							c-0.45-0.22-1-0.05-1.22,0.45c-0.23,0.49-0.04,1.09,0.4,1.32l7.6,4.18C248.78,287.51,248.93,287.55,249.07,287.55
							L249.07,287.55z"/>
					</g>
				</g>
				<g>
					<g>
						<path class="st12" d="M251.51,255.49l5.47,2.64L251.51,255.49z"/>
					</g>
					<g>
						<path class="st0" d="M256.97,259.13c0.36,0,0.69-0.22,0.85-0.59c0.2-0.5-0.01-1.1-0.47-1.31l-5.49-2.65
							c-0.46-0.22-1,0-1.19,0.51c-0.22,0.49,0.01,1.08,0.46,1.31l5.48,2.64C256.74,259.1,256.86,259.13,256.97,259.13L256.97,259.13
							z"/>
					</g>
				</g>
				<g>
					<g>
						<path class="st12" d="M260.06,242.72l5.45,3.5L260.06,242.72z"/>
					</g>
					<g>
						<path class="st0" d="M265.51,247.21c0.31,0,0.62-0.17,0.79-0.49c0.26-0.47,0.12-1.08-0.33-1.35l-5.46-3.51
							c-0.43-0.28-0.98-0.13-1.25,0.35c-0.26,0.47-0.11,1.08,0.32,1.36l5.45,3.5C265.19,247.17,265.36,247.21,265.51,247.21
							L265.51,247.21z"/>
					</g>
				</g>
			</g>
			<g>
				<g>
					<path class="st12" d="M235.33,279.49c-1.3,3.27-1,6.57,0.7,7.38c1.71,0.8,4.14-1.21,5.44-4.47c1.31-3.27,0.99-6.57-0.71-7.38
						C239.07,274.23,236.63,276.23,235.33,279.49z"/>
					<path class="st0" d="M236.83,288.03L236.83,288.03c-0.41,0-0.8-0.1-1.16-0.26c-2.19-1.04-2.71-4.85-1.18-8.67
						c1.51-3.77,4.48-6,6.64-5c2.19,1.05,2.7,4.85,1.18,8.67C241.05,285.92,238.85,288.03,236.83,288.03z M239.96,275.84
						c-1.06,0-2.76,1.41-3.81,4.05c-1.17,2.95-0.82,5.57,0.24,6.06c0.98,0.48,3.03-0.92,4.24-3.96c1.17-2.93,0.81-5.55-0.24-6.06
						C240.27,275.87,240.14,275.84,239.96,275.84z"/>
				</g>
				<g>
					<path class="st12" d="M228.01,298.33c-1.3,3.26-0.99,6.56,0.71,7.37c1.71,0.79,4.13-1.21,5.44-4.48c1.31-3.26,1-6.56-0.71-7.35
						C231.75,293.07,229.32,295.08,228.01,298.33z"/>
					<path class="st0" d="M229.52,306.86L229.52,306.86c-0.41,0-0.79-0.09-1.15-0.25c-2.19-1.04-2.72-4.84-1.18-8.67
						c1.5-3.77,4.48-6.01,6.63-4.99c2.19,1.05,2.7,4.84,1.19,8.66C233.74,304.76,231.54,306.86,229.52,306.86z M232.66,294.69
						c-1.07,0-2.75,1.41-3.81,4.05c-1.17,2.92-0.82,5.55,0.24,6.05c0.98,0.48,3.02-0.92,4.23-3.95c1.18-2.95,0.82-5.56-0.23-6.07
						C232.96,294.72,232.81,294.69,232.66,294.69z"/>
				</g>
				<g>
					<path class="st12" d="M245.38,253.7c-1.31,3.26-1,6.56,0.7,7.37c1.69,0.79,4.13-1.2,5.44-4.49c1.3-3.25,0.99-6.54-0.71-7.35
						C249.12,248.44,246.68,250.44,245.38,253.7z"/>
					<path class="st0" d="M246.89,262.24L246.89,262.24c-0.41,0-0.8-0.09-1.17-0.25c-2.19-1.05-2.7-4.85-1.18-8.67
						c1.5-3.77,4.48-6.01,6.65-4.99c2.19,1.04,2.71,4.85,1.18,8.68C251.11,260.13,248.9,262.24,246.89,262.24z M250.01,250.06
						c-1.05,0-2.75,1.41-3.8,4.03c-1.18,2.96-0.82,5.57,0.23,6.08c0.99,0.47,3.03-0.94,4.24-3.96c1.17-2.95,0.82-5.55-0.24-6.06
						C250.32,250.09,250.18,250.06,250.01,250.06z"/>
				</g>
				<g>
					<path class="st12" d="M253.92,239.82c-1.32,3.27-1,6.56,0.7,7.36c1.7,0.81,4.13-1.2,5.44-4.46c1.3-3.27,0.99-6.56-0.71-7.36
						C257.64,234.55,255.21,236.54,253.92,239.82z"/>
					<path class="st0" d="M255.42,248.34L255.42,248.34c-0.41,0-0.8-0.09-1.17-0.26c-2.19-1.02-2.7-4.83-1.18-8.65
						c1.5-3.78,4.48-6,6.63-4.98c2.19,1.03,2.72,4.84,1.19,8.66C259.64,246.24,257.44,248.34,255.42,248.34z M258.56,236.17
						c-1.07,0-2.75,1.41-3.81,4.05c-1.18,2.95-0.82,5.56,0.23,6.05c1.03,0.48,3.02-0.92,4.24-3.95c1.17-2.95,0.82-5.56-0.24-6.05
						C258.85,236.2,258.71,236.17,258.56,236.17z"/>
				</g>
			</g>
		</g>
		<g>
			<path class="st12" d="M156.47,432.35c65.18,3.96,87.71-79.34,96.86-146.13c6.91-50.52,37.88-65.08,52.55-69.18v3.24
				c0,0-44.78,8.42-51.63,97.68c-6.86,89.26-45.24,138.85-100.07,135.38c-54.82-3.47-74.01-61.48-74.01-61.48l13.19-14.44
				C105.29,404.1,124.96,430.43,156.47,432.35z"/>
		</g>
		<g>
			<g>
				<path class="st12" d="M85.26,325.93c-19.22,24.88-26.64,52.48-16.57,61.65c10.07,9.16,33.81-3.59,53.05-28.47
					c19.21-24.89,26.63-52.49,16.55-61.65C128.22,288.29,104.48,301.04,85.26,325.93z"/>
				<path class="st0" d="M77.14,391.54L77.14,391.54c-3.66,0-6.69-1.07-9.03-3.19c-5.16-4.71-6.22-13.93-2.99-25.98
					c3.15-11.76,10.07-24.94,19.44-37.07c14.69-19.02,32.89-31.79,45.3-31.79c3.65,0,6.69,1.08,9.02,3.2
					c10.44,9.5,3.07,37.78-16.45,63.03C107.75,378.76,89.54,391.54,77.14,391.54z M129.86,295.48c-11.9,0-29.55,12.48-43.9,31.09
					c-9.23,11.93-15.99,24.84-19.09,36.35c-3.02,11.26-2.16,19.74,2.4,23.9c2,1.82,4.65,2.74,7.86,2.74
					c11.89,0,29.53-12.48,43.89-31.08c18.87-24.43,26.35-51.45,16.68-60.25C135.71,296.41,133.07,295.48,129.86,295.48z"/>
			</g>
			<g>
				<g>
					<path class="st12" d="M87.48,328.2c15.42-19.99,34.51-30.23,42.6-22.87c4.3,3.92,4.61,12.03,1.65,21.76
						c-9.35,1.79-21.9,10.95-32.67,24.92c-7.24,9.36-12.35,19.2-14.96,27.77c-4.03,0.77-7.49,0.17-9.93-2.06
						C66.09,370.36,72.04,348.19,87.48,328.2z"/>
					<path class="st0" d="M80.92,381.09c-2.97,0-5.42-0.87-7.33-2.6c-8.6-7.85-2.81-30.22,13.19-50.92
						c11.83-15.33,26.51-25.62,36.53-25.62c2.97,0,5.44,0.88,7.35,2.63c4.48,4.07,5.16,12.18,1.93,22.82
						c-0.1,0.35-0.38,0.61-0.71,0.67c-9.51,1.81-21.82,11.22-32.13,24.57c-6.86,8.88-12.11,18.63-14.79,27.45
						c-0.11,0.34-0.39,0.61-0.71,0.67C83.1,380.96,81.97,381.09,80.92,381.09z M123.31,303.94c-9.51,0-23.62,10-35.13,24.91
						c-15.09,19.53-21.11,41.11-13.42,48.11c2.04,1.86,5,2.51,8.64,1.94c2.8-8.91,8.09-18.65,14.95-27.53
						c10.38-13.43,22.84-23,32.66-25.14c2.75-9.42,2.2-16.73-1.52-20.14C127.92,304.66,125.84,303.94,123.31,303.94z"/>
				</g>
				<g>
					<path class="st12" d="M131.73,327.09c-2.6,8.58-7.72,18.4-14.96,27.78c-10.78,13.96-23.32,23.12-32.67,24.91
						c2.6-8.56,7.72-18.4,14.96-27.77C109.83,338.03,122.38,328.87,131.73,327.09z"/>
					<path class="st0" d="M84.1,380.77c-0.27,0-0.52-0.13-0.69-0.35c-0.21-0.26-0.28-0.63-0.18-0.96
						c2.75-9.04,8.12-19.02,15.12-28.09c10.57-13.7,23.29-23.37,33.22-25.26c0.32-0.06,0.63,0.07,0.85,0.33
						c0.2,0.26,0.27,0.63,0.17,0.96c-2.75,9.05-8.11,19.03-15.12,28.09c-10.57,13.7-23.3,23.37-33.22,25.26
						C84.2,380.76,84.15,380.77,84.1,380.77z M130.33,328.43c-9.27,2.47-20.82,11.59-30.57,24.21
						c-6.44,8.33-11.46,17.43-14.26,25.81c9.27-2.47,20.83-11.6,30.58-24.24C122.51,345.89,127.53,336.79,130.33,328.43z"/>
				</g>
				<g>
					<path class="st12" d="M131.73,327.09c-2.6,8.58-7.72,18.4-14.96,27.78c-10.78,13.96-23.32,23.12-32.67,24.91
						c2.6-8.56,7.72-18.4,14.96-27.77C109.83,338.03,122.38,328.87,131.73,327.09z"/>
				</g>
			</g>
		</g>
	</g>
	<g>
		<g>
			<path class="st0" d="M303.26,367.82c3.91,0,7.16-1.13,9.71-3.35c30.13-26.03,34.03-93.13,34.18-95.99
				c0.06-1.11-0.71-2.03-1.73-2.1c-0.98-0.07-1.87,0.77-1.93,1.86c-0.03,0.69-3.95,68.2-32.81,93.13c-2.47,2.17-5.99,2.9-10.51,2.22
				c-14.83-2.28-35.85-19.38-44.74-33.17c-0.57-0.92-1.72-1.13-2.54-0.51c-0.83,0.63-1.04,1.87-0.45,2.76
				c9.34,14.48,31.02,32.35,47.23,34.83C300.9,367.73,302.11,367.82,303.26,367.82L303.26,367.82z"/>
		</g>
		<g>
			<path class="st6" d="M253.93,331.57c0.43-4.12-1.12-10.01-1.82-12.48c-1.63-5.64-4.78-11.07-10.06-13.35
				c-7.6-3.31-11.26,8.93-13.09,15.86C225.25,335.68,252.75,342.83,253.93,331.57z"/>
			<path class="st0" d="M245.77,338.11C245.77,338.11,245.77,338.11,245.77,338.11c-5.31,0-12.53-2.66-16.05-7.72
				c-1.91-2.76-2.48-5.88-1.65-9.07c1.36-5.13,4.53-17.15,11.49-17.15c0.92,0,1.87,0.22,2.81,0.63c6.19,2.68,9.18,9.08,10.61,13.97
				c0.87,3.03,2.27,8.75,1.85,12.87C254.42,335.72,251.03,338.11,245.77,338.11z M239.57,306.18c-5.59,0-8.6,11.4-9.72,15.7
				c-0.69,2.6-0.24,5.05,1.33,7.31c3.16,4.56,9.73,6.94,14.59,6.95l0,0c2.03,0,6.8-0.47,7.25-4.69c0.41-3.92-1.12-9.75-1.79-12.06
				c-1.3-4.49-4.01-10.34-9.52-12.73C240.97,306.33,240.25,306.18,239.57,306.18z"/>
		</g>
	</g>
	<g>
		<g>
			<g>
				<path class="st2" d="M89.23,267.09c-1.59,3.42-1.41,6.99,0.38,7.97c1.8,1,4.56-0.99,6.15-4.41c1.59-3.43,1.41-7-0.38-7.99
					C93.58,261.68,90.83,263.67,89.23,267.09z"/>
				<path class="st0" d="M90.63,276.31L90.63,276.31c-0.51,0-0.98-0.12-1.42-0.36c-1.18-0.64-1.87-2.03-1.97-3.92
					c-0.07-1.68,0.34-3.59,1.19-5.4c1.8-3.86,5.15-6.07,7.37-4.84c0.79,0.43,1.37,1.2,1.69,2.27c0.59,1.93,0.26,4.56-0.9,7.04
					C95.12,274.22,92.75,276.31,90.63,276.31z M94.35,263.41c-1.18,0-3.05,1.42-4.3,4.13c-0.69,1.47-1.05,3.09-0.99,4.41
					c0.06,1.12,0.41,1.94,0.98,2.25c1.12,0.61,3.42-0.76,4.9-3.97c0.94-2.01,1.25-4.13,0.81-5.54c-0.16-0.55-0.42-0.92-0.78-1.12
					C94.78,263.46,94.58,263.41,94.35,263.41z"/>
			</g>
			<g>
				<path class="st0" d="M87.93,272.84c0,0,0.02,0,0.04,0c0.5-0.02,0.89-0.49,0.87-1.03c-0.01-0.19-0.55-18.67,8.72-31.84
					c0.19-0.26,0.25-0.6,0.15-0.91c-0.09-0.3-0.31-0.54-0.6-0.65l-13.48-4.47c-0.35-0.11-0.71,0.01-0.95,0.3
					c-0.23,0.29-5.72,7.1-5.25,15.84c0.03,0.54,0.47,0.96,0.96,0.93c0.5-0.03,0.89-0.5,0.85-1.05c-0.36-6.65,3.26-12.28,4.44-13.93
					l11.66,3.88c-8.88,13.62-8.36,31.22-8.33,31.97C87.04,272.42,87.44,272.84,87.93,272.84L87.93,272.84z"/>
			</g>
			<g>
				<path class="st0" d="M93.64,245.07c0.39,0,0.74-0.25,0.87-0.68c0.15-0.51-0.12-1.08-0.58-1.25l-13.26-4.72
					c-0.49-0.17-1,0.12-1.15,0.65c-0.15,0.53,0.11,1.08,0.58,1.24l13.26,4.72C93.45,245.05,93.55,245.07,93.64,245.07L93.64,245.07z
					"/>
			</g>
			<g>
				<path class="st2" d="M76.78,251.23c-1.14,2.47-1.02,5.04,0.28,5.75c1.3,0.7,3.27-0.72,4.41-3.18c1.14-2.47,1.02-5.04-0.28-5.74
					C79.9,247.36,77.92,248.76,76.78,251.23z"/>
				<path class="st0" d="M77.79,258.15L77.79,258.15c-0.41,0-0.79-0.09-1.14-0.29c-1.78-0.97-2.07-4.08-0.69-7.07
					c1.36-2.93,3.92-4.57,5.64-3.61c0.94,0.5,1.49,1.59,1.55,3.04c0.07,1.26-0.25,2.69-0.87,4.04
					C81.21,256.58,79.39,258.15,77.79,258.15z M80.46,248.87c-0.76,0-2.02,0.99-2.86,2.82c-1.04,2.21-0.78,4.05-0.13,4.41
					c0.09,0.05,0.19,0.07,0.32,0.07l0,0c0.76,0,2.02-0.98,2.86-2.8c0.47-1.04,0.73-2.13,0.69-3.04c-0.04-0.7-0.24-1.2-0.55-1.38
					C80.68,248.88,80.58,248.87,80.46,248.87z"/>
			</g>
		</g>
		<g>
			<g>
				<path class="st7" d="M41.63,302.59c0,3.02,1.98,5.45,4.41,5.45c2.43,0,4.42-2.43,4.42-5.45c0-3-1.98-5.45-4.42-5.45
					C43.61,297.14,41.63,299.59,41.63,302.59z"/>
				<path class="st0" d="M46.04,309.03c-2.94,0-5.33-2.88-5.33-6.45c0-3.55,2.39-6.43,5.33-6.43c2.94,0,5.34,2.88,5.34,6.43
					C51.37,306.15,48.98,309.03,46.04,309.03z M46.04,298.13c-1.92,0-3.5,2.01-3.5,4.46c0,2.46,1.57,4.46,3.5,4.46
					c1.94,0,3.51-2,3.51-4.46C49.55,300.14,47.98,298.13,46.04,298.13z"/>
			</g>
			<g>
				<path class="st0" d="M41.63,303.59c0.5,0,0.91-0.45,0.91-1v-24.63c0-0.53-0.39-0.96-0.87-0.99l-13.7-0.68
					c-0.41-0.05-0.94,0.41-0.96,0.95c-0.01,0.56,0.37,1.02,0.87,1.04l12.84,0.62v23.68C40.71,303.14,41.13,303.59,41.63,303.59
					L41.63,303.59z"/>
			</g>
			<g>
				<path class="st0" d="M41.93,285.57c0.5,0,0.9-0.43,0.91-0.96c0.02-0.56-0.38-1.01-0.88-1.02l-10.06-0.33h-0.02
					c-0.49,0-0.9,0.41-0.91,0.96c-0.01,0.55,0.38,1,0.88,1.01l10.05,0.34C41.91,285.57,41.93,285.57,41.93,285.57L41.93,285.57z"/>
			</g>
		</g>
	</g>
</g>
</svg>
