<?xml version="1.0" encoding="utf-8"?>
<!-- Generator: Adobe Illustrator 23.0.5, SVG Export Plug-In . SVG Version: 6.00 Build 0)  -->
<svg version="1.1" id="Layer_1" xmlns="http://www.w3.org/2000/svg" xmlns:xlink="http://www.w3.org/1999/xlink" x="0px" y="0px"
	 viewBox="0 0 480 640" style="enable-background:new 0 0 480 640;" xml:space="preserve">
<style type="text/css">
	.st0{fill:#F7262E;}
	.st1{fill:#0A0A0A;}
	.st2{fill:#A85802;}
	.st3{fill:#FCEB2E;}
	.st4{fill:#0AB679;}
	.st5{fill:#FFFFFF;}
	.st6{fill:#5CD0A7;}
	.st7{opacity:0.5;}
	.st8{fill:#F5BE36;}
	.st9{fill:#61320A;}
	.st10{fill:#D92231;}
	.st11{fill:#25374A;}
	.st12{fill:#D76B2A;}
</style>
<g>
	<g>
		<g>
			<path class="st0" d="M276.49,258.73c0,0,101.58,69.47,179.93,89.49c0,0,9.1,1.67-6.07,8.89c-15.15,7.22,6.57,66.7-16.18,80.04
				c-22.73,13.34-31.34,2.78-49.52,8.34c-18.19,5.57-26.79,29.46-37.41,48.37c-10.62,18.89-48.51,10.56-64.2-3.35
				c-15.66-13.89-25.77-8.88-38.41,3.9c-12.63,12.78-34.52,1.67-43.05-5.01c-8.5-6.67-18.62,2.78-21.65,1.11
				c-3.02-1.67-3.02-86.15-3.02-86.15s-1.06-68.37,5.29-71.71C188.54,329.32,276.49,258.73,276.49,258.73z"/>
		</g>
		<g>
			<path class="st1" d="M323.41,505.83c-14.2,0-31.4-6.11-40.92-14.55c-6.16-5.46-11.65-8.11-16.82-8.11
				c-6.12,0-12.04,3.47-20.45,11.96c-4.01,4.05-9.22,6.13-15.48,6.13c-11.48,0-23.43-6.95-28.67-11.05
				c-1.92-1.51-4.05-2.24-6.49-2.24c-3.2,0-6.41,1.29-8.98,2.32c-2.65,1.06-4.78,1.83-6.07,1.11c-3.06-1.68-3.52-55.25-3.52-87.02
				c-0.17-11.5-0.72-69.15,5.79-72.59c6.2-3.26,93.27-73.14,94.15-73.83l0.48-0.39l0.5,0.35c1.01,0.69,102.38,69.62,179.67,89.37
				c0.27,0.05,3.14,0.62,3.37,2.79c0.26,2.31-2.6,4.76-9.28,7.95c-6.25,2.97-5.61,16.82-4.95,31.48
				c0.89,19.16,1.86,40.89-11.16,48.53c-10.89,6.38-18.45,7.25-24.44,7.25c-2.28,0-4.49-0.14-6.7-0.29
				c-2.16-0.14-4.33-0.28-6.59-0.28c-4.3,0-8.11,0.55-11.98,1.73c-14.32,4.37-22.71,20.7-30.83,36.5c-1.99,3.89-4,7.76-6.07,11.44
				C342.67,503.85,331.69,505.83,323.41,505.83L323.41,505.83z M265.68,481.23c5.58,0,11.44,2.78,17.92,8.53
				c9.24,8.19,25.98,14.14,39.82,14.14c7.83,0,18.18-1.84,23.07-10.56c2.06-3.65,4.04-7.51,6.02-11.37
				c8.29-16.13,16.9-32.81,31.9-37.4c4.03-1.23,7.99-1.8,12.45-1.8c2.3,0,4.51,0.14,6.69,0.27c2.18,0.15,4.35,0.3,6.6,0.3
				c5.75,0,13.06-0.83,23.61-7.03c12.04-7.07,11.08-28.13,10.23-46.72c-0.72-16.01-1.36-29.84,6-33.35
				c8.22-3.92,8.27-5.73,8.25-5.92c-0.05-0.48-1.2-0.99-1.96-1.13c-74.81-19.1-171.86-83.95-179.75-89.27
				c-7.72,6.19-87.78,70.39-93.94,73.62c-4.27,2.24-5.2,44.62-4.79,70.82c0,31.41,0.74,82.35,2.71,85.45
				c-0.05-0.08,0.13-0.04,0.33-0.04c0.96,0,2.45-0.61,4.19-1.3c2.7-1.08,6.07-2.42,9.58-2.42c2.78,0,5.31,0.86,7.51,2.58
				c5.06,3.98,16.59,10.69,27.64,10.69c5.8,0,10.59-1.88,14.29-5.6C250.45,487.22,257.51,481.23,265.68,481.23L265.68,481.23z"/>
		</g>
	</g>
	<g>
		<path class="st1" d="M133.07,585.49c-20.13-90.42,7.2-156.64,7.49-157.3l3.2,1.64c-0.28,0.64-27.08,65.72-7.26,154.74
			L133.07,585.49L133.07,585.49z"/>
	</g>
	<g>
		<path class="st1" d="M237.29,592.83c-23.49-60.17-15.72-154.54-15.64-155.47l3.5,0.35c-0.07,0.94-7.75,94.34,15.38,153.59
			L237.29,592.83L237.29,592.83z"/>
	</g>
	<g>
		<path class="st1" d="M137.89,221.92c-83.01-68.99-87.32-109.2-87.46-110.88l3.51-0.37c0.04,0.39,4.65,40.46,86.07,108.14
			L137.89,221.92L137.89,221.92z"/>
	</g>
	<g>
		<path class="st1" d="M372.66,371.12c-22.89-31.22-92.15-103.9-92.84-104.63l2.42-2.81c0.7,0.73,70.11,73.58,93.16,105
			L372.66,371.12L372.66,371.12z"/>
	</g>
	<g>
		<g>
			<path class="st2" d="M27.81,74.17c-11.12,3.82-12.79,49.61,25.27,43.92C84.92,113.32,60.16,63.06,27.81,74.17z"/>
		</g>
		<g>
			<path class="st1" d="M46.81,119.55H46.8c-21.5,0-25.68-18.11-26.46-23.65c-1.44-10.44,1.85-20.82,7.2-22.65
				c3.18-1.09,6.41-1.66,9.6-1.66c17.03,0,30.71,15.62,31.56,29.59c0.6,9.64-5.2,16.33-15.5,17.87
				C50.99,119.38,48.85,119.55,46.81,119.55L46.81,119.55z M37.14,73.54c-3.02,0-6.07,0.54-9.07,1.56
				c-4.49,1.54-7.29,11.12-5.98,20.51c0.72,5.17,4.61,22,24.71,22h0.01c1.94,0,4.01-0.16,6.15-0.48c9.42-1.4,14.53-7.18,13.98-15.81
				C66.14,88.2,53.23,73.54,37.14,73.54L37.14,73.54z"/>
		</g>
	</g>
	<g>
		<path class="st1" d="M55.92,104.29c-1.34,0-2.88-0.27-4.62-0.83c-5.87-1.91-9.51-5.67-9.71-10.09c-0.13-2.83,1.3-5.33,3.64-6.38
			c3.57-1.6,8.12,0.44,12.15,5.48l-1.32,1.28c-3.51-4.37-7.31-6.22-10.17-4.94c-1.66,0.74-2.63,2.46-2.54,4.47
			c0.17,3.54,3.32,6.66,8.46,8.32c3.79,1.22,6.43,0.98,7.81-0.74c3.08-3.74,0.21-13.96-1.14-17.59l1.64-0.73
			c0.22,0.58,5.25,14.21,0.82,19.62C59.77,103.57,58.1,104.29,55.92,104.29L55.92,104.29z"/>
	</g>
	<g>
		<g>
			<path class="st2" d="M371.52,396.03c-6.34-0.97-15.68-23.35,0-35.02c15.66-11.67,47,0.7,45.47,17.58
				c-1.52,16.88-36.88,15.77-38.92,10.22C378.06,388.8,378.74,397.15,371.52,396.03z"/>
		</g>
		<g>
			<path class="st1" d="M372.78,397.1c-0.44,0-0.88-0.03-1.39-0.11c-3.5-0.54-7.34-6.24-8.76-13c-0.96-4.54-2.08-16,8.38-23.78
				c4.18-3.11,9.65-4.75,15.85-4.75c10.47,0,21.33,4.64,27.03,11.55c2.97,3.6,4.35,7.64,3.98,11.67
				c-0.97,10.9-14.68,14.76-26.11,14.76c-4.64,0-10.14-0.67-12.89-2.46c-0.18,1.3-0.61,2.92-1.66,4.18
				C376.13,396.45,374.64,397.1,372.78,397.1L372.78,397.1z M386.86,357.39c-5.84,0-10.98,1.54-14.86,4.42
				c-9.55,7.12-8.55,17.58-7.66,21.74c1.36,6.43,4.87,11.15,7.29,11.52c1.97,0.3,3.34-0.1,4.28-1.22c1.5-1.8,1.28-4.93,1.28-4.96
				l1.71-0.45c0.46,1.29,5.2,3.06,12.86,3.06c11.53,0,23.55-4.02,24.36-13c0.32-3.48-0.92-7.01-3.53-10.19
				C407.19,361.78,396.86,357.39,386.86,357.39L386.86,357.39z"/>
		</g>
	</g>
	<g>
		<path class="st1" d="M378.94,389.02l-1.73-0.44c0.88-4.37-3.77-9.6-3.81-9.66l1.27-1.37C374.89,377.79,380.03,383.6,378.94,389.02
			L378.94,389.02z"/>
	</g>
	<g>
		<g>
			<path class="st3" d="M118.45,378.37c0,0-20.22,49.33-13.99,52.67c6.23,3.34,63.36,24.45,65.38,17.79
				c2.02-6.68,5.78-32.79,6.94-28.34c1.14,4.44-0.88,26.49,3.16,29.65c4.06,3.14,47,14.26,78.85,3.14
				c7.08-2.47-4.05-69.49-6.06-69.49c-2.03,0-127.94-17.23-127.94-17.23L118.45,378.37z"/>
		</g>
		<g>
			<path class="st1" d="M226.53,459.08c-22.78,0-43.9-5.67-47.09-8.16c-2.79-2.19-3.06-10.44-3.11-20.99c0-2.67-0.02-5.23-0.15-7.06
				c-0.79,3.02-1.84,8.55-2.66,12.89c-1.06,5.54-2.05,10.79-2.85,13.38c-0.53,1.75-2.76,1.95-4.39,1.95l0,0
				c-13.38,0-57.27-16.54-62.19-19.17c-6.49-3.48,8.75-42.17,13.57-53.94l6.69-12.46l0.56,0.08
				c43.31,5.92,125.78,17.16,127.85,17.23c2.14,0,5.01,18.08,6.53,28.84c2.59,18.45,4.66,40.83-0.22,42.54
				C249.78,457.43,238.84,459.08,226.53,459.08L226.53,459.08z M176.45,418.99c0.4,0,0.89,0.22,1.16,1.22
				c0.43,1.67,0.44,5.21,0.47,9.71c0.03,7.02,0.08,17.64,2.36,19.42c2.5,1.94,22.81,7.81,46.08,7.81c12.13,0,22.9-1.61,31.99-4.79
				c0.36-0.13,0.7-0.75,0.98-1.72c3.41-11.9-5.11-61.57-7.17-65.91c-7.72-0.8-116.99-15.75-127.06-17.12l-6.05,11.26
				c-9.49,23.23-17.73,49.5-14.37,51.31c4.79,2.55,48.63,18.98,61.43,18.98l0,0c2.08,0,2.67-0.47,2.72-0.63
				c0.77-2.48,1.79-7.91,2.8-13.16C174.64,420.41,175.18,418.99,176.45,418.99L176.45,418.99z"/>
		</g>
	</g>
	<g>
		<g>
			<path class="st4" d="M229.48,224.26c0,0,9.26,1.06,19.53,8.86c10.28,7.81,50.2,37.83,49.71,41.16
				c-0.52,3.34-25.78,20.02-27.81,19.46c-2.01-0.56-12.13-17.23-12.13-12.24c0,5.02,9.6,110.62,2.03,111.17
				c-7.58,0.57-58.63,7.23-97.05,0c-38.41-7.22-61.61-21.67-59.11-26.12c2.49-4.45,30.3-88.93,53.54-114.5
				c0,0-34.87-22.24-37.4-27.8c-2.53-5.55,18.41-24.46,23.85-20.01C150.12,208.7,229.48,224.26,229.48,224.26z"/>
		</g>
		<g>
			<path class="st1" d="M205.91,397c-16.24,0-30.47-1.13-42.3-3.36c-34.54-6.5-57.26-18.93-59.75-25.05
				c-0.48-1.18-0.26-2.04,0.03-2.55c0.46-0.82,2.05-5.11,4.23-11.03c9.07-24.49,30.11-81.42,48.66-102.75
				c-6.44-4.13-34.37-22.28-36.78-27.57c-0.62-1.39-0.28-3.27,1.02-5.6c3.88-6.89,15.41-16.5,21.46-16.5c1.08,0,1.98,0.29,2.69,0.86
				c4.34,3.54,62.42,15.52,84.44,19.84c0.33,0.03,9.55,1.16,19.89,9.02l2.27,1.71c44.64,33.84,48.09,38.51,47.8,40.4
				c-0.65,4.23-26,20.29-28.56,20.29c-1.3-0.31-2.69-2.04-5.84-6.23c-1.64-2.17-4.23-5.61-5.5-6.66c0.06,1.7,0.36,5.73,0.76,11.03
				c3.47,46.15,6.37,94.12,1.8,99.96c-0.48,0.63-1.02,0.79-1.36,0.82c-0.93,0.06-2.45,0.22-4.52,0.44
				C247,395.04,227.51,397,205.91,397L205.91,397z M142.5,204.55c-5.3,0-16.44,9.28-19.96,15.57c-0.92,1.64-1.27,2.99-0.95,3.7
				c1.77,3.88,23.14,18.51,37.06,27.39l1,0.64l-0.82,0.89c-18.48,20.32-39.91,78.27-49.06,103.01c-2.58,6.99-3.86,10.4-4.37,11.32
				c-0.08,0.16-0.06,0.4,0.08,0.73c2.04,5.03,23.34,17.33,58.42,23.94c11.74,2.2,25.87,3.32,42.01,3.32
				c21.51,0,40.95-1.97,50.29-2.9c2.08-0.21,3.64-0.37,4.55-0.43c4.88-6.16-0.35-75.81-2.07-98.68c-0.49-6.6-0.78-10.58-0.78-11.54
				c0-1.8,1.13-1.9,1.34-1.9c1.39,0,3.28,2.33,7.29,7.65c1.68,2.21,3.96,5.25,4.61,5.55c2.23-0.11,25.86-15.67,26.7-18.69
				c-0.68-2.29-16.52-15.31-47.07-38.46l-2.27-1.73c-9.95-7.56-19.03-8.69-19.13-8.69c-3.31-0.66-79.69-15.68-85.24-20.21
				C143.74,204.7,143.2,204.55,142.5,204.55L142.5,204.55z"/>
		</g>
	</g>
	<g>
		<g>
			<path class="st5" d="M258.79,281.51c0,0-7.58-22.72-8.09-25.52"/>
		</g>
		<g>
			<path class="st1" d="M257.97,281.84c-0.33-0.92-7.63-22.81-8.14-25.67l1.73-0.37c0.39,2.16,5.43,17.55,8.04,25.38L257.97,281.84
				L257.97,281.84z"/>
		</g>
	</g>
	<g>
		<g>
			<path class="st6" d="M189.99,227.13c-28.42,32.64-59.67,83.58-66.71,152.14c3.93,2.11,8.97,3.6,14.83,5.73
				c5.51-69.9,36.19-121.35,64.85-155.11C198.76,229.03,194.37,228.09,189.99,227.13z"/>
		</g>
		<g>
			<path class="st6" d="M161.51,214.03c-6.65,7.32-13.52,15.66-20.29,25.04c3.38,2.49,7.15,5.13,10.77,7.58
				c7.42-11.01,15.1-20.8,22.56-29.28C169.55,216.19,165.07,215.05,161.51,214.03z"/>
		</g>
		<g>
			<path class="st6" d="M237.06,393.73c4.08-0.27,7.79-0.56,11.08-0.86c2.49-22.73,6.28-40.13,13.11-58.91
				c-0.61-9.75-1.3-19.08-1.84-26.61C247.58,332.9,240.03,359.51,237.06,393.73z"/>
		</g>
		<g>
			<path class="st6" d="M231.86,232.81c0,0-4.95-0.96-12.37-2.46c-28.62,34.74-58.48,89.23-62.61,159.7c4,1,7.84,1.51,12.32,2.36
				c2.52,0.46,5.73,0.7,8.34,1.05c3.98-70.04,33.2-123.73,61.64-158.58C234.82,233.19,231.86,232.81,231.86,232.81z"/>
		</g>
		<g>
			<path class="st6" d="M266.26,286.85c2.1,2.77,4.07,5.37,4.83,5.58c0.64,0.17,3.78-1.5,7.67-3.89
				c4.01-7.46,8.24-14.44,12.59-21.03c-2.54-2.22-5.7-4.83-9.17-7.61C276.63,268.17,271.28,277.17,266.26,286.85z"/>
		</g>
		<g>
			<path class="st6" d="M254.33,238.5c-26.52,35.01-53.56,90.77-56.89,156.34c6.89,0.29,13.76,0.3,20.31,0.14
				c4.15-59.24,27.89-111.09,51.99-144.78C263.74,245.59,258.13,241.34,254.33,238.5z"/>
		</g>
	</g>
	<g class="st7">
		<path class="st8" d="M208.07,397.14c0,0,58.49,33.36,19.38,60.95c0,0,29.17-2.29,31.33-6.76c2.17-4.45,2.03-19.85-4.05-57.6
			C254.74,393.73,215.88,397.33,208.07,397.14z"/>
	</g>
	<g>
		<g>
			<g>
				<path class="st0" d="M190.93,226.49c0,0-8.45,20.56,6.71,22.79c15.16,2.21,23.51-13.9,21.1-19.46
					C216.33,224.26,190.93,226.49,190.93,226.49z"/>
			</g>
			<g>
				<path class="st1" d="M200.45,250.45L200.45,250.45c-0.95,0-1.92-0.06-2.93-0.22c-4.02-0.59-6.86-2.46-8.43-5.57
					c-3.59-7.14,0.86-18.13,1.04-18.59l0.22-0.52l0.52-0.05c0.04,0,5.11-0.45,10.87-0.45c15.93,0,17.33,3.27,17.79,4.34
					c1.08,2.5,0.31,6.65-1.93,10.57C213.84,246.53,207.42,250.45,200.45,250.45L200.45,250.45z M191.54,227.42
					c-0.82,2.2-3.66,10.84-0.9,16.31c1.28,2.54,3.69,4.08,7.12,4.59c0.92,0.13,1.83,0.2,2.7,0.2l0,0c9.42,0,14.37-7.33,15.66-9.58
					c1.89-3.32,2.64-6.82,1.83-8.71c-0.32-0.75-2.46-3.22-16.2-3.22C197.14,227.02,192.98,227.3,191.54,227.42L191.54,227.42z"/>
			</g>
		</g>
		<g>
			<g>
				<path class="st0" d="M195.75,248.87c0,0-9.4-9.6-26.25-7.74c-16.85,1.85-26.52,24.6-18.9,21.04
					C165.45,255.2,180.2,269.21,195.75,248.87z"/>
			</g>
			<g>
				<path class="st1" d="M149.2,263.52L149.2,263.52c-1.24,0-2.04-0.92-2.12-2.4c-0.24-5.35,9.18-19.52,22.31-20.96
					c17.07-1.88,26.58,7.62,26.95,8l0.61,0.63l-0.54,0.7c-8.09,10.59-16.12,12.02-22.95,12.02c-2.01,0-4.03-0.13-6.05-0.26
					c-1.96-0.13-3.93-0.27-5.87-0.27c-4.27,0-7.55,0.64-10.61,2.08C150.27,263.37,149.71,263.52,149.2,263.52L149.2,263.52z
					 M173.77,241.85c-1.34,0-2.74,0.08-4.19,0.24c-12.58,1.38-20.93,14.93-20.75,18.93c0.03,0.55,0.17,0.55,0.37,0.55l0,0
					c0.18,0,0.51-0.05,1.04-0.29c3.3-1.55,6.79-2.24,11.31-2.24c1.97,0,3.98,0.13,5.98,0.27c1.98,0.13,3.96,0.25,5.93,0.25
					c6.55,0,13.63-1.3,21.02-10.58C192.35,247.18,185.13,241.85,173.77,241.85L173.77,241.85z"/>
			</g>
		</g>
		<g>
			<g>
				<path class="st0" d="M186.01,246.85c-0.78,3.48,2.58,12.26,6.57,7.99c4.23-4.52,5.6,1.78,9.01-0.94
					c3.43-2.72,6.03-11.32-3.83-13.02C187.9,239.19,186.46,244.8,186.01,246.85z"/>
			</g>
			<g>
				<path class="st1" d="M190.41,256.96c-1.17,0-2.28-0.7-3.23-2.04c-1.6-2.24-2.53-6.04-2.03-8.3c1.25-5.65,5.57-7.93,12.74-6.69
					c5.34,0.93,7.03,3.71,7.49,5.89c0.74,3.36-1.08,7.15-3.25,8.88c-0.76,0.6-1.52,0.89-2.3,0.89l0,0c-0.93,0-1.73-0.43-2.43-0.81
					c-1.36-0.73-2.56-0.99-4.21,0.76C192.31,256.47,191.37,256.96,190.41,256.96L190.41,256.96z M194.37,241.54
					c-6.28,0-7.17,4.03-7.51,5.54c-0.33,1.5,0.34,4.73,1.71,6.65c0.68,0.95,2,1.88,3.38,0.42c2.28-2.44,4.61-1.99,6.21-1.11
					c0.62,0.33,1.15,0.61,1.66,0.62l0,0c0.4,0,0.79-0.17,1.26-0.53c1.66-1.33,3.13-4.33,2.58-6.85c-0.51-2.3-2.58-3.84-6.04-4.42
					C196.44,241.64,195.34,241.54,194.37,241.54L194.37,241.54z"/>
			</g>
		</g>
		<g>
			<g>
				<path class="st0" d="M205.11,244.84c0,0,3.54-1.09,14.7,6.52c14.31,9.77,18.59,21.65,20.75,29.52c2.14,7.87,0.42,5.12-22.8-5.9
					C202.33,267.65,194.95,247.04,205.11,244.84z"/>
			</g>
			<g>
				<path class="st1" d="M240.29,286.36c-1.56,0-4.39-1.41-10.57-4.49c-3.19-1.59-7.24-3.6-12.29-6
					c-11.44-5.43-18.58-17.83-17.82-25.56c0.33-3.47,2.22-5.75,5.34-6.42c0.01-0.02,0.26-0.08,0.72-0.08
					c1.78,0,6.03,0.88,14.61,6.73c14.06,9.61,18.68,21.11,21.13,30.06c0.67,2.47,1.03,4.04,0.38,5.03
					C241.54,285.95,241.11,286.36,240.29,286.36L240.29,286.36z M205.66,245.76c-0.24,0-0.36,0.03-0.36,0.03
					c-2.38,0.51-3.69,2.11-3.94,4.73c-0.7,7.05,6.32,18.61,16.76,23.57c5.07,2.41,9.12,4.41,12.31,6.02c5.4,2.69,8.67,4.3,9.85,4.3
					c0.11,0,0.14-0.02,0.14-0.02c0.07-0.35-0.5-2.44-0.73-3.23c-2.33-8.62-6.8-19.72-20.35-28.97
					C210.58,246.22,206.67,245.76,205.66,245.76L205.66,245.76z"/>
			</g>
		</g>
	</g>
	<g>
		<g>
			<g>
				<path class="st2" d="M128.04,62.87c-21.56,24.09-57.44,139.89,51.23,170.84c102.75,29.28,130.74-67.81,133.43-85.41
					c2.7-17.61-0.32-108.41-81.89-122.48C162.08,13.96,128.04,62.87,128.04,62.87z"/>
			</g>
			<g>
				<path class="st1" d="M215.55,240.15L215.55,240.15c-11.42,0-23.7-1.85-36.49-5.48c-39.25-11.19-63.47-34.11-72.03-68.13
					c-10.67-42.38,7.33-89.73,20.39-104.33c0.21-0.3,27.9-39.2,82.33-39.2c6.91,0,14.05,0.62,21.23,1.86
					c27.22,4.7,48.38,18.31,62.88,40.45c21.85,33.36,21.13,74.07,19.73,83.15C313.43,149.38,297.23,240.15,215.55,240.15
					L215.55,240.15z M209.74,24.93c-53.56,0-80.72,38.14-81,38.54c-12.88,14.4-30.51,60.88-20.03,102.55
					c8.38,33.31,32.2,55.77,70.78,66.76c12.65,3.59,24.78,5.43,36.05,5.43c80.24,0.01,96.16-89.17,96.3-90.06
					c1.36-8.9,2.06-48.88-19.42-81.69c-14.22-21.71-34.99-35.06-61.73-39.67C223.6,25.56,216.56,24.93,209.74,24.93L209.74,24.93z"
					/>
			</g>
		</g>
		<g>
			<g>
				<path class="st9" d="M230.81,25.82c-68.73-11.86-102.77,37.06-102.77,37.06c-1.05,1.18-2.15,2.65-3.26,4.24
					c0.15-0.06,36.03-16.48,75.38-17.21l-11.14,10.76l52.57-6.67l-9.76,16.31l25.27-9.27c0,0,26.37,81.94,46.87,114.9
					c5.38-12.3,7.99-22.88,8.72-27.63C315.4,130.69,312.38,39.89,230.81,25.82z"/>
			</g>
			<g>
				<path class="st1" d="M304.11,177.85l-0.86-1.38c-19.19-30.82-43.76-105.2-46.7-114.23l-26.88,9.86l10.14-16.92l-53.49,6.79
					l11.42-11.03c-37.37,1.3-71.17,16.4-72.6,17.07l-3.02,1.35l1.95-2.83c1.24-1.78,2.32-3.2,3.33-4.33
					c0.21-0.3,27.9-39.2,82.33-39.2c6.91,0,14.05,0.62,21.23,1.86c27.22,4.7,48.38,18.31,62.88,40.45
					c21.85,33.36,21.13,74.07,19.73,83.15c-0.84,5.55-3.66,16.18-8.79,27.88L304.11,177.85L304.11,177.85z M257.64,59.8l0.29,0.9
					c0.27,0.8,25.84,79.92,45.9,113.27c4.64-10.9,7.2-20.63,8-25.82c1.36-8.9,2.06-48.88-19.42-81.69
					c-14.22-21.71-34.99-35.06-61.73-39.67c-7.09-1.22-14.13-1.85-20.95-1.85c-53.56,0-80.72,38.14-81,38.54
					c-0.39,0.43-0.79,0.91-1.19,1.42c9.64-3.96,40-15.35,72.6-15.96l2.4-0.04l-10.8,10.44l51.64-6.55l-9.41,15.7L257.64,59.8
					L257.64,59.8z"/>
			</g>
		</g>
		<g>
			<path d="M213.49,121c0,4.23-2.46,7.67-5.51,7.67c-3.03,0-5.5-3.44-5.5-7.67c0-4.25,2.47-7.68,5.5-7.68
				C211.03,113.32,213.49,116.76,213.49,121z"/>
		</g>
		<g>
			<path d="M144.1,115.46c-1.36,3.97-4.78,6.22-7.63,5.05c-2.85-1.2-4.03-5.37-2.68-9.33c1.37-3.96,4.77-6.21,7.63-5.04
				C144.25,107.33,145.46,111.5,144.1,115.46z"/>
		</g>
		<g>
			<g>
				<path class="st10" d="M172.53,175.52c-20.26-0.61-31.57-6.97-37.67-12.57c-0.67,15.43,2.9,46.75,41.71,52.58
					c51.89,7.78,41.26-48.27,41.26-48.3C212.27,170.56,198.8,176.3,172.53,175.52z"/>
			</g>
			<g>
				<path class="st1" d="M185.89,217.23c-2.94,0-6.12-0.26-9.44-0.75c-40.17-6.03-43.08-39.48-42.48-53.57l0.08-1.94l1.37,1.25
					c5.78,5.29,16.92,11.73,37.13,12.33c26.05,0.78,39.38-4.89,44.87-8.17l1.07-0.64l0.22,1.3c0.17,0.99,4.22,24.17-6.55,38.62
					C206.42,213.34,197.59,217.23,185.89,217.23L185.89,217.23z M135.69,164.91c-0.31,17.05,5.05,44.25,41.01,49.64
					c15.77,2.36,27.31-1.07,34.08-10.13c8.99-12.05,7.12-30.67,6.4-35.72c-6.21,3.41-19.77,8.52-44.67,7.78
					C153.28,175.91,142.01,170.13,135.69,164.91L135.69,164.91z"/>
			</g>
		</g>
		<g>
			<path class="st5" d="M172.49,175.92c-6.38-0.2-11.82-0.98-16.53-2.11c0.47,6.97,3.97,15.71,18.73,15.8
				c13.14,0.07,16.14-7.59,16.24-14.3C185.63,175.87,179.54,176.13,172.49,175.92z"/>
		</g>
		<g>
			<path class="st1" d="M177.35,176.96c-1.56,0-3.16-0.01-4.84-0.07c-36.88-1.09-44.63-20.9-44.94-21.75l1.63-0.73
				c0.08,0.2,7.74,19.48,43.36,20.55c35.8,1.07,47.8-10.22,47.91-10.34l1.18,1.44C221.18,166.53,210.23,176.96,177.35,176.96
				L177.35,176.96z"/>
		</g>
	</g>
	<g>
		<g>
			<path class="st11" d="M85.59,602.07c1.09-3.97,40.1-24.09,49.21-20.76c6.29,2.31,12.82,16.3,0,20.76
				C121.99,606.52,83.24,610.72,85.59,602.07z"/>
		</g>
		<g>
			<path class="st1" d="M99.73,608.06c-8.25,0-13-1.11-14.56-3.42c-0.58-0.83-0.72-1.82-0.43-2.85c1.34-4.91,35.92-21.82,47.5-21.82
				c1.13,0,2.06,0.15,2.84,0.43c3.8,1.38,7.99,6.92,7.95,12.65c-0.01,2.67-1.08,7.54-7.97,9.93
				C128,605.45,112.12,608.06,99.73,608.06L99.73,608.06z M132.24,581.91c-11.93,0-44.56,17.17-45.82,20.46
				c-0.13,0.43-0.07,0.77,0.17,1.12c0.54,0.79,2.88,2.64,13.14,2.64c12.22,0,27.86-2.59,34.8-4.98c4.37-1.54,6.72-4.32,6.74-8.13
				c0.02-4.75-3.52-9.62-6.76-10.78C133.94,582.03,133.16,581.91,132.24,581.91L132.24,581.91z"/>
		</g>
	</g>
	<g>
		<g>
			<path class="st11" d="M187.02,608c1.07-3.97,40.1-24.09,49.2-20.75c6.3,2.31,12.83,16.3,0,20.75
				C223.4,612.45,184.65,616.65,187.02,608z"/>
		</g>
		<g>
			<path class="st1" d="M201.17,614c-8.25,0-13.02-1.13-14.57-3.42c-0.55-0.84-0.72-1.82-0.43-2.86
				c1.33-4.9,35.92-21.82,47.49-21.82c1.14,0,2.07,0.14,2.83,0.42c3.8,1.38,8.02,6.93,7.97,12.64c-0.03,2.7-1.09,7.56-7.99,9.97
				C229.43,611.37,213.55,614,201.17,614L201.17,614z M233.67,587.85c-11.93,0-44.56,17.15-45.81,20.45
				c-0.13,0.42-0.07,0.77,0.16,1.12c0.54,0.78,2.88,2.64,13.15,2.64c12.22,0,27.85-2.58,34.79-4.98c4.39-1.54,6.72-4.33,6.76-8.13
				c0.03-4.75-3.54-9.6-6.77-10.78C235.36,587.96,234.61,587.85,233.67,587.85L233.67,587.85z"/>
		</g>
	</g>
	<g class="st7">
		<path class="st12" d="M257.11,61.02c0,0,52.14,219.95-103.74,162.41c0,0,38.88,22.85,85.8,12.86c46.92-10,64.81-60.37,64.81-60.37
			S279.01,133.66,257.11,61.02z"/>
	</g>
</g>
</svg>
