<?xml version="1.0" encoding="utf-8"?>
<!-- Generator: Adobe Illustrator 23.0.5, SVG Export Plug-In . SVG Version: 6.00 Build 0)  -->
<svg version="1.1" id="Layer_1" xmlns="http://www.w3.org/2000/svg" xmlns:xlink="http://www.w3.org/1999/xlink" x="0px" y="0px"
	 viewBox="0 0 480 640" style="enable-background:new 0 0 480 640;" xml:space="preserve">
<style type="text/css">
	.st0{fill:#0A0A0A;}
	.st1{fill:#0A78AE;}
	.st2{fill:#894BA0;}
	.st3{fill:#6DB8DA;}
	.st4{fill:#ED454F;}
	.st5{fill:#B7445B;}
	.st6{fill:#A85802;}
	.st7{opacity:0.71;}
	.st8{fill:#FFF322;}
	.st9{fill:#4FBDAC;}
	.st10{fill:#825529;}
	.st11{fill:#D92231;}
	.st12{fill:#DEE0E1;}
	.st13{fill:#91418D;}
	.st14{fill:#80115F;}
	.st15{opacity:0.74;}
	.st16{fill:#D76B2A;}
</style>
<g>
	<g>
		<path class="st0" d="M296.93,515.4c0,0-0.01-6.19,0-9.33c-0.79,0.12-1.89,0.36-2.98,0.57c-8.7,1.8-29.08,6.01-50.95-2.92
			c-27.1-11.05-37.89-44.28-39.78-50.82l2.82-1.09l0.1,0.33c1.83,6.32,12.24,38.39,38.05,48.92c21.01,8.56,40.7,4.5,49.12,2.75
			c3.79-0.77,5.05-1.04,5.99-0.3l0.57,0.43l0.07,0.87c-0.01,2.16,0,10.59,0,10.59H296.93L296.93,515.4z"/>
	</g>
	<g>
		<path class="st0" d="M208.12,595.98l-3.01-0.2c0.03-0.28,2.08-28.33,8.3-79.35c6.3-51.61,26.43-65.97,27.29-66.54l1.77,2.34
			c-0.2,0.13-19.93,14.4-26.05,64.53C210.2,567.72,208.14,595.71,208.12,595.98L208.12,595.98z"/>
	</g>
	<g>
		<g>
			<path class="st1" d="M298.43,503.6c7.5-0.73,8.57,36.63,0,40.97C289.89,548.9,288.36,504.57,298.43,503.6z"/>
		</g>
		<g>
			<path class="st0" d="M297.29,545.61c-5.24,0-6.32-13.02-6.53-17c-0.54-10.01,1.07-25.13,7.59-25.76c0.02,0,0.02,0,0.02,0
				c2.52,0,4.25,2.33,5.43,6.89c2.84,10.98,1.68,32.11-5.01,35.48C298.29,545.48,297.79,545.61,297.29,545.61L297.29,545.61z
				 M298.64,504.34c-4.7,0.45-6.9,12.91-6.32,24.2c0.54,10.21,2.9,15.57,4.96,15.57c0.24,0,0.51-0.07,0.78-0.22
				c5.42-2.74,7.14-22.47,4.21-33.78C301.33,506.5,299.98,504.34,298.64,504.34L298.64,504.34z"/>
		</g>
	</g>
	<g>
		<g>
			<path class="st2" d="M199.88,602.01c-0.96-0.18-1.96-0.48-2.97-0.9C198.15,601.63,199.14,601.92,199.88,602.01z"/>
		</g>
		<g>
			<g>
				<path class="st2" d="M196.91,601.11c-0.04-0.01-0.09-0.04-0.14-0.06C196.81,601.07,196.86,601.09,196.91,601.11z"/>
			</g>
			<g>
				<polygon class="st0" points="196.65,601.81 196.47,601.72 196.47,601.72 196.42,601.7 197.09,600.36 197,600.6 197.12,600.37 
					196.66,601.58 197.15,600.37 197.09,600.55 197.17,600.37 196.65,601.81 				"/>
			</g>
		</g>
		<g>
			<g>
				<path class="st3" d="M181.97,569.86c-9.47-11.69-19.89-17.69-20.12-13.62c0.04,7.99,19.72,38.37,34.92,44.8
					c0.05,0.02,0.1,0.04,0.14,0.06c1.02,0.42,2.01,0.72,2.97,0.9C207.54,602.76,190.65,580.58,181.97,569.86z"/>
			</g>
			<g>
				<path class="st0" d="M200.25,602.78L200.25,602.78c-0.13,0-0.29,0-0.44-0.02c-1.12-0.21-2.16-0.53-3.21-0.96
					c-15.81-6.68-35.49-37.14-35.54-45.55c0.07-1.28,0.89-2.04,2.21-2.04c3.46,0,11.63,5.68,19.31,15.19
					c8.3,10.25,21.91,28.06,19.76,32.26C202.09,602.17,201.51,602.78,200.25,602.78L200.25,602.78z M163.27,555.72
					c-0.48,0-0.62,0.13-0.63,0.57c0.04,7.88,19.6,37.78,34.46,44.07c1.07,0.45,2.02,0.74,2.94,0.9h0.21l0,0
					c0.54,0,0.64-0.17,0.68-0.26c1.23-2.41-6.46-14.45-19.59-30.68C173.63,560.8,165.89,555.72,163.27,555.72L163.27,555.72z"/>
			</g>
		</g>
		<g>
			<g>
				<path class="st1" d="M193.28,571.13c-8.95-8.15-28.26-22.27-31.24-16.11c-0.15,0.33-0.21,0.75-0.2,1.23
					c0.23-4.07,10.66,1.93,20.12,13.62c8.68,10.71,25.56,32.89,17.91,32.14c1.21,0.23,2.38,0.31,3.46,0.14
					C219.44,599.74,201.27,578.41,193.28,571.13z"/>
			</g>
			<g>
				<path class="st0" d="M202.09,603c-0.75,0-1.54-0.1-2.37-0.25l0.24-1.5c0.79-0.03,0.92-0.16,0.96-0.26
					c1.24-2.41-6.45-14.45-19.59-30.68c-7.71-9.52-15.45-14.6-18.07-14.6c-0.48,0-0.62,0.13-0.63,0.57l-1.57-0.04
					c0-0.67,0.08-1.16,0.27-1.55c0.43-0.88,1.39-1.95,3.54-1.95c7.08,0,22.57,12.02,28.96,17.84c5.09,4.65,19.04,19.69,16.43,27.71
					c-0.82,2.51-3.1,4.04-6.8,4.59C203.03,602.96,202.56,603,202.09,603L202.09,603z M164.16,554.32
					c3.84,0.82,11.33,6.33,18.42,15.09c8.19,10.09,21.51,27.54,19.85,32.07c0.27-0.01,0.54-0.04,0.79-0.07
					c3.08-0.48,4.9-1.63,5.52-3.56c1.99-6.09-8.37-19.22-16.01-26.15c-7.7-7.04-21.9-17.43-27.87-17.43
					C164.6,554.27,164.37,554.29,164.16,554.32L164.16,554.32z"/>
			</g>
		</g>
	</g>
	<g>
		<g>
			<g>
				<path class="st4" d="M309.72,389.29c-7.67,19.08-25.06,38.46-56.7,49.36c-42.67,14.71-81.24-2.85-90.68-13.72
					c0.83,13.82,3.15,19.14,3.15,19.14s43.76,35.43,101.87,10.12c58.11-25.29,46.04-56.75,46.03-56.75
					C312.33,394.66,311.07,391.96,309.72,389.29z"/>
			</g>
			<g>
				<path class="st0" d="M225,464.03L225,464.03c-35.6,0-59.77-19.2-60.01-19.4l-0.21-0.28c-0.1-0.21-2.37-5.61-3.21-19.39
					l-0.13-2.18l1.47,1.68c6.88,7.93,28.98,19.09,56.59,19.09h0.01c11.31-0.01,22.51-1.89,33.26-5.58
					c27.37-9.43,47.35-26.81,56.24-48.94l0.63-1.56l0.76,1.51c1.57,3.11,2.75,5.73,3.7,8.21l0,0c0.01,0,3.01,7.93-1.03,18.88
					c-3.8,10.34-14.78,25.46-45.39,38.78C253.69,460.94,239.34,464.03,225,464.03L225,464.03z M166.12,443.64
					c2.05,1.58,25.28,18.94,58.88,18.94l0,0c14.12,0,28.26-3.05,42.05-9.05c56.74-24.71,45.76-55.53,45.64-55.85
					c-0.79-2.04-1.71-4.17-2.9-6.6c-9.35,21.79-29.34,38.88-56.51,48.23c-10.91,3.77-22.26,5.67-33.76,5.67h-0.01
					c-26.37,0-47.89-10.1-56.27-18.06C164.05,437.73,165.78,442.71,166.12,443.64L166.12,443.64z"/>
			</g>
		</g>
		<g>
			<g>
				<path class="st4" d="M250.38,418.04c30.27-10.42,45.81-24.76,52.94-40.71c-1.35-2.55-2.66-5.09-3.85-7.68
					c-4.58-10.05-8.39-20.39-12.16-30.74c-5.72-15.7-12.09-31.35-15.41-47.72c-1.69-8.33-2.24-16.95-0.39-25.31
					c4.28-19.27-73.2,7.59-73.2,7.59s-21.12,24.31-31.32,87.52c-3.28,20.37-4.6,36.24-4.88,48.38
					C171.15,420.23,207.37,432.86,250.38,418.04z"/>
			</g>
			<g>
				<path class="st0" d="M211.13,425.53L211.13,425.53c-23.97,0-43.11-7.93-49.61-15.71l-0.17-0.21l0.01-0.26
					c0.32-14.06,1.98-30.39,4.9-48.5c10.11-62.68,31.26-87.61,31.49-87.86l0.32-0.22c0.41-0.15,42.32-14.61,62.68-14.61
					c5.4,0,8.86,0.98,10.55,2.99c1.06,1.27,1.39,2.91,0.96,4.84c-1.64,7.42-1.51,15.6,0.4,25.03c2.76,13.64,7.73,27,12.53,39.91
					c0.97,2.58,1.92,5.15,2.85,7.72c4.02,11.02,7.72,20.95,12.14,30.69c1.28,2.81,2.72,5.54,3.83,7.64l0.18,0.3l-0.16,0.31
					c-8.07,18.08-25.52,31.53-53.38,41.13C237.56,423.24,224.26,425.53,211.13,425.53L211.13,425.53z M162.88,409.12
					c6.42,7.46,24.96,14.96,48.25,14.96l0,0c12.97,0,26.08-2.26,39-6.72c27.26-9.39,44.4-22.48,52.37-40
					c-1.1-2.07-2.49-4.71-3.72-7.43c-4.44-9.76-8.15-19.71-12.17-30.78c-0.95-2.57-1.9-5.13-2.85-7.7
					c-4.82-12.96-9.79-26.37-12.59-40.13c-1.94-9.62-2.07-17.99-0.38-25.59c0.32-1.53,0.12-2.73-0.66-3.64
					c-1.38-1.62-4.54-2.45-9.38-2.45c-19.39,0-58.82,13.35-61.97,14.44c-1.75,2.15-21.4,27.29-31.02,87.02
					C164.85,379.02,163.22,395.17,162.88,409.12L162.88,409.12z"/>
			</g>
		</g>
		<g>
			<g>
				<path class="st5" d="M253.03,438.66c31.64-10.91,49.03-30.28,56.7-49.36c-2.04-4.04-4.27-7.98-6.4-11.96
					c-7.13,15.94-22.67,30.28-52.94,40.71c-43.02,14.81-79.23,2.18-88.28-8.68c-0.14,6.08-0.03,11.24,0.23,15.57
					C171.78,435.81,210.35,453.36,253.03,438.66z"/>
			</g>
			<g>
				<path class="st0" d="M219.52,444.99L219.52,444.99c-28.12,0-50.69-11.47-57.76-19.59l-0.17-0.44c-0.28-4.7-0.36-9.97-0.23-15.6
					l0.04-2l1.29,1.55c6.29,7.54,24.93,15.17,48.44,15.17c12.97,0,26.08-2.26,39-6.72c27.43-9.45,44.61-22.63,52.51-40.32l0.64-1.42
					l0.72,1.38c0.71,1.31,1.41,2.6,2.12,3.9c1.46,2.68,2.91,5.35,4.29,8.08l0.13,0.28l-0.11,0.3c-9.05,22.52-29.34,40.2-57.15,49.77
					C242.37,443.09,231.01,444.99,219.52,444.99L219.52,444.99z M163.08,424.65c7.05,7.9,29.03,18.9,56.43,18.9
					c11.31,0,22.51-1.87,33.26-5.58c27.26-9.39,47.17-26.66,56.11-48.65c-1.31-2.6-2.71-5.18-4.11-7.75
					c-0.46-0.86-0.94-1.72-1.4-2.58c-8.33,17.38-25.61,30.39-52.74,39.74c-13.08,4.51-26.37,6.8-39.51,6.8
					c-22.54,0-40.79-6.98-48.29-14.3C162.75,416.04,162.83,420.55,163.08,424.65L163.08,424.65z"/>
			</g>
		</g>
	</g>
	<g>
		<path class="st0" d="M82.64,300.14c-12.31,0-19.68-1.01-19.88-1.06l0.46-2.86c0.6,0.09,61.08,8.45,127.87-24.05l0.57-0.15
			l62.88-4.67l0.43,0.24c0.38,0.23,40.47,22.91,162.05,10.9l0.3,2.88c-117.43,11.6-158.69-8.43-163.51-11.08l-61.62,4.58
			C147.82,296.41,106.17,300.14,82.64,300.14L82.64,300.14z"/>
	</g>
	<g>
		<g>
			<path class="st6" d="M443.93,283.79c-3.93-0.25-13.94-1.37-13.94-1.37s6.11-1.71,10.75-3.75c4.65-2.03,5.21-5.18,1.63-5.03
				c-3.56,0.15-14,3.75-14,3.75l4.35-4.48c6.27-7.06,4.27-9.91,0.81-6.9c-3.46,3.02-10.11,7.87-10.11,7.87s5.88-9.27,3.54-12
				c-2.32-2.73-4.29,3.71-7.57,7.59c-1.22,1.41-2.54,2.29-3.77,2.84c-1.71,1.13-4.5,3.85-2.35,8.79c0.08,0.19,0.07,0.34,0.13,0.51
				c1.04,1.34,2.12,3,3.18,5.05c3.79,7.45,8.77,14.06,10.46,11.37c1.68-2.69-1.22-7.18-0.26-9.38c0.94-2.21,8.05,0.08,13.96,0.1
				C446.66,288.74,447.87,284.06,443.93,283.79z"/>
		</g>
		<g>
			<path class="st0" d="M426.02,299.39c-3.65,0-9.09-10.32-10.15-12.4c-0.91-1.79-1.93-3.41-3.1-4.94l-0.11-0.15l-0.07-0.37
				c-2.46-5.73,1-8.79,2.6-9.85c1.44-0.66,2.61-1.54,3.6-2.7c1.04-1.22,1.98-2.76,2.79-4.12c1.49-2.45,2.66-4.4,4.27-4.4
				c0.63,0,1.21,0.31,1.75,0.93c1.74,2.05-0.03,6.51-1.66,9.68c2.21-1.66,5.17-3.93,7.08-5.61c1.9-1.66,3.76-1.76,4.38-0.48
				c0.76,1.59-0.72,4.65-4.06,8.43l-2.21,2.28c3.4-1.09,8.78-2.71,11.23-2.8l0,0c2.48,0,2.98,1.14,3.1,1.64
				c0.36,1.58-1.4,3.53-4.38,4.84c-2.41,1.05-5.17,2.01-7.32,2.7c3.27,0.35,7.88,0.83,10.25,0.98c2.13,0.15,3.04,1.43,3,2.62
				c-0.07,1.86-2.28,3.82-6.24,3.82l0,0c-2.24-0.01-4.63-0.33-6.73-0.61c-3.28-0.45-6.24-0.65-6.52,0.04
				c-0.35,0.76-0.01,2.14,0.29,3.47c0.48,2.01,1.01,4.26-0.1,6.02C427.33,299.04,426.71,299.39,426.02,299.39L426.02,299.39z
				 M425.84,261.98c-0.69,0-1.96,2.1-2.9,3.64c-0.85,1.4-1.82,3-2.92,4.32c-1.15,1.33-2.51,2.36-4.05,3.05
				c-1.84,1.23-3.78,3.64-1.96,7.84c0.08,0.17,0.12,0.33,0.13,0.46c1.13,1.48,2.18,3.17,3.14,5.04c3.69,7.22,7.34,11.55,8.73,11.55
				c0.07,0,0.18,0,0.34-0.24c0.78-1.23,0.35-3.1-0.09-4.9c-0.38-1.64-0.74-3.18-0.22-4.4c0.55-1.27,2.18-1.42,3.35-1.42
				c1.35,0,3.05,0.22,4.84,0.47c2.07,0.28,4.39,0.58,6.5,0.59l0,0c3.14,0,4.66-1.42,4.69-2.36c0.03-0.6-0.57-0.99-1.55-1.06
				c-3.9-0.26-13.89-1.38-13.98-1.39l-0.13-1.48c0.07-0.01,6.13-1.71,10.66-3.7c2.6-1.13,3.61-2.55,3.47-3.13
				c-0.06-0.29-0.56-0.46-1.28-0.46c-3.6,0.14-13.88,3.68-13.98,3.71l-0.84-1.23l4.37-4.47c4.03-4.55,3.96-6.64,3.79-6.83
				c-0.01,0-0.01,0-0.01,0c-0.4,0-1.03,0.26-1.87,1c-3.43,2.99-10.11,7.86-10.17,7.91l-1.15-1c2.32-3.66,4.98-9.55,3.62-11.15
				C426.16,262.11,425.96,261.98,425.84,261.98L425.84,261.98z"/>
		</g>
	</g>
	<g>
		<g>
			<path class="st6" d="M69.64,294.39c-1.24-0.9-2.66-2.33-3.55-4.63c-1.79-4.68-1.47-11.39-4.6-9.52
				c-3.13,1.85-0.69,12.46-0.69,12.46s-4.66-6.65-6.91-10.59c-2.25-3.92-5.11-1.84-1.57,6.79l2.61,5.59c0,0-8.66-6.67-11.99-7.89
				c-3.33-1.23-3.86,1.91-0.16,5.26c3.71,3.36,8.93,6.88,8.93,6.88s-9.86-2.04-13.67-3.02c-3.8-0.98-4.24,3.84,1.37,5.66
				c5.6,1.81,13.08,1.84,13.23,4.23c0.16,2.38-4.1,5.74-3.39,8.8c0.68,3.08,7.61-1.64,13.72-7.51c2.13-2.04,4.1-3.46,5.77-4.49
				c0.07-0.23,0.18-0.43,0.37-0.67C72.37,298.26,70.61,295.47,69.64,294.39z"/>
		</g>
		<g>
			<path class="st0" d="M50.51,316.16L50.51,316.16c-1.07,0-1.82-0.57-2.04-1.57c-0.46-2,0.81-3.98,1.92-5.73
				c0.76-1.17,1.52-2.37,1.48-3.19c-0.07-0.93-3.44-1.55-6.17-2.06c-2.08-0.38-4.44-0.82-6.55-1.5c-3.66-1.18-5.01-3.53-4.72-5.23
				c0.27-1.53,1.86-2.36,3.81-1.87c2.28,0.58,6.8,1.56,10.02,2.24c-1.79-1.32-4.1-3.09-6.02-4.83c-2.24-2.03-3.25-4.19-2.66-5.63
				c0.48-1.15,1.88-1.54,3.64-0.89c2.27,0.85,6.83,4.03,9.67,6.13l-1.31-2.8c-1.79-4.34-2.21-7.61-1.21-9.04
				c0.93-1.3,2.86-0.74,4.19,1.59c1.24,2.17,3.27,5.24,4.8,7.5c-0.47-3.49-0.64-8.28,1.69-9.67c0.5-0.29,0.96-0.43,1.38-0.43
				c1.98,0,2.49,2.47,3.13,5.57c0.32,1.54,0.68,3.29,1.26,4.76c0.68,1.76,1.77,3.21,3.27,4.29c0.96,1.04,3.38,4.4-0.39,8.49
				c-0.09,0.1-0.16,0.21-0.21,0.35l-0.07,0.28l-0.27,0.15c-1.95,1.19-3.85,2.67-5.63,4.4C59.15,311.65,53.44,316.16,50.51,316.16
				L50.51,316.16z M37.1,296.37c-0.44,0-0.99,0.13-1.1,0.76c-0.16,0.86,0.71,2.59,3.66,3.54c2,0.65,4.31,1.07,6.33,1.44
				c4.07,0.77,7.3,1.35,7.44,3.45c0.09,1.29-0.78,2.65-1.68,4.07c-1.02,1.58-2.07,3.21-1.74,4.63c0.07,0.29,0.17,0.37,0.5,0.37
				c1.95,0,6.84-3.4,11.9-8.25c1.81-1.75,3.71-3.23,5.69-4.46c0.1-0.22,0.24-0.44,0.43-0.64c2.75-3,1.49-5.31,0.5-6.41
				c-1.57-1.11-2.9-2.83-3.67-4.85c-0.61-1.6-0.99-3.4-1.32-5c-0.38-1.84-0.91-4.35-1.59-4.35c-0.08,0-0.24,0.02-0.54,0.2
				c-1.84,1.09-1.3,7.48-0.35,11.67l-1.42,0.58c-0.05-0.06-4.72-6.72-6.96-10.64c-0.65-1.13-1.25-1.51-1.43-1.51
				c-0.23,0.11-1.02,2.05,1.29,7.65l2.6,5.55l-1.21,0.89c-0.08-0.07-8.6-6.58-11.78-7.76c-1.03-0.38-1.54-0.1-1.59,0.03
				c-0.23,0.54,0.18,2.1,2.26,3.98c3.62,3.28,8.79,6.77,8.84,6.82l-0.62,1.34c-0.1-0.01-9.92-2.04-13.7-3.01
				C37.57,296.4,37.32,296.37,37.1,296.37L37.1,296.37z"/>
		</g>
	</g>
	<g class="st7">
		<path class="st4" d="M190.83,284.97c0,0,23.76,18.13,45.05,8.37c21.3-9.76-11.16,60.72,25.45,80.61
			c36.6,19.87,31.48,80.38-22.94,88.44c0,0,73.31-12.18,76.05-59.52c0,0-2.29-11.49-16-35.57c-13.72-24.08-29.53-75.64-27.46-98.47
			l-75.68,7.16C195.29,275.99,191.64,283.48,190.83,284.97z"/>
	</g>
	<g>
		<g>
			<path class="st8" d="M185.87,254.7c0,0-11.33,21.87,12.06,29.9c23.4,8.02,69.8-1.02,73.58-14.47c3.77-13.46,0-32.16-11.69-29.77
				C248.12,242.74,185.87,254.7,185.87,254.7z"/>
		</g>
		<g>
			<path class="st0" d="M219.71,288.34L219.71,288.34c-8.57,0-16.19-1.05-22.03-3.06c-7.01-2.4-11.68-6.27-13.89-11.5
				c-3.83-9.11,1.18-18.99,1.39-19.39l0.16-0.33l0.36-0.06c0.63-0.12,62.4-11.99,73.94-14.34c3.75-0.77,7.08,0.49,9.53,3.54
				c4.51,5.63,5.82,17.29,3.05,27.13C269.26,280.94,242.17,288.34,219.71,288.34L219.71,288.34z M186.38,255.35
				c-0.79,1.73-4.39,10.27-1.17,17.89c2.03,4.82,6.4,8.42,12.99,10.67c5.66,1.95,13.11,2.97,21.51,2.97
				c21.87,0,48.36-7.23,51.08-16.94c2.65-9.44,1.43-20.58-2.79-25.87c-2.13-2.65-4.83-3.67-8.02-3.01
				C248.88,243.33,191.61,254.34,186.38,255.35L186.38,255.35z"/>
		</g>
	</g>
	<g>
		<g>
			<path class="st8" d="M236.8,254.7c0,0-7.18,15.15-12.08,45.87c-4.91,30.73-2.62,57.47-2.62,57.47s22.99,1.45,24.5,0
				c1.52-1.44,5.83-88.67,17.45-105.95C264.05,252.09,245.85,241.74,236.8,254.7z"/>
		</g>
		<g>
			<path class="st0" d="M239.59,359.41L239.59,359.41c-7.21,0-17.43-0.64-17.54-0.64l-0.65-0.04l-0.05-0.64
				c-0.02-0.26-2.24-27.18,2.64-57.63c4.86-30.47,12.05-45.9,12.11-46.04c3.25-4.66,7.82-6.97,13.68-6.97
				c7.52,0,14.36,3.85,14.65,4.01l0.68,0.38l-0.43,0.62c-8.38,12.48-12.94,62.08-15.4,88.74c-1.36,14.9-1.6,16.84-2.13,17.35
				C246.71,358.97,245.74,359.41,239.59,359.41L239.59,359.41z M222.8,357.37c2.38,0.13,10.68,0.59,16.79,0.59l0,0
				c5.5,0,6.4-0.38,6.52-0.46c0.22-0.63,0.9-7.94,1.68-16.41c2.41-26.34,6.9-75,15.2-88.73c-1.88-0.94-7.41-3.46-13.21-3.46
				c-5.32,0-9.47,2.09-12.35,6.22c-0.01,0.04-7.14,15.33-11.97,45.56C221.04,328.41,222.5,353.16,222.8,357.37L222.8,357.37z"/>
		</g>
	</g>
	<g>
		<g>
			<path class="st9" d="M270.33,249.61c-0.19-0.72-0.3-1.16-0.3-1.16l2.9-0.79c0.16,0.4,0.26,0.87,0.34,1.35L270.33,249.61
				L270.33,249.61z"/>
		</g>
		<g>
			<path class="st9" d="M142.12,126.92l-0.98-2.74c3.78-1.52,7.12-2.43,10.22-2.77l0.64,2.82
				C150.23,124.78,146.98,125.67,142.12,126.92L142.12,126.92z"/>
		</g>
		<g>
			<g>
				<g>
					<path class="st10" d="M123.6,188.32c-0.55-12.79,0.87-23.22,3.31-31.72c-1.85,6.28-15.52,49.26-41.42,45.95
						c0,0,6.05,26.34,36.61,40.67c19.36,9.08,37.96,10.08,52.73,7.84C146.06,238.05,124.74,214.15,123.6,188.32z"/>
				</g>
				<g>
					<path class="st0" d="M161.36,252.8L161.36,252.8c-13.64,0-26.96-3.01-39.6-8.92c-30.54-14.33-36.94-40.89-37-41.17l-0.24-1
						l1.08,0.15c25.52,3.28,39.16-40.6,40.57-45.44l1.46,0.39c-2.67,9.32-3.78,19.91-3.28,31.5c1.06,24.24,21,48.63,50.79,62.12
						l2.22,1.01l-2.42,0.36C170.48,252.46,165.92,252.8,161.36,252.8L161.36,252.8z M86.51,203.39c1.46,4.89,9.38,26.74,35.92,39.18
						c12.43,5.83,25.51,8.78,38.93,8.78c3.65,0,7.32-0.22,10.92-0.66c-29.06-13.92-48.38-38.17-49.42-62.35
						c-0.32-7.25-0.02-14.11,0.9-20.53C117.82,182.5,105.56,204.85,86.51,203.39L86.51,203.39z"/>
				</g>
			</g>
			<g>
				<g>
					<path class="st6" d="M294.53,147.89c-46.41-36.29-128.66-26.6-143-25.04c0,0-16.81,7.56-24.39,32.96h-0.01
						c0,0-0.02,0.05-0.03,0.08c-0.06,0.23-0.13,0.47-0.2,0.71c-2.44,8.5-3.86,18.93-3.31,31.72c1.14,25.82,22.46,49.72,51.23,62.75
						c29.02,13.16,65.61,15.25,96.69-2.91c-2.57-6.54-8.68-12.67-8.68-12.67C297.55,221.38,294.53,147.89,294.53,147.89z"/>
				</g>
				<g>
					<path class="st0" d="M221.75,262.09L221.75,262.09c-15.95,0-32.29-3.59-47.24-10.36c-30.31-13.72-50.58-38.6-51.65-63.38
						c-0.52-11.73,0.6-22.48,3.32-31.93l0.3-1.03c7.63-25.24,24.04-32.88,24.73-33.19l0.98-0.14c6.16-0.68,20.56-2.26,38.94-2.26
						c31.33,0,74.78,4.77,103.89,27.53l0.26,0.2l0.02,0.33c0.11,2.99,2.6,72.82-31.19,87.89c1.72,1.85,6.03,6.82,8.13,12.15
						l0.21,0.56l-0.53,0.32C256.8,257.6,239.92,262.09,221.75,262.09L221.75,262.09z M127.77,156.33l-0.13,0.47
						c-2.67,9.32-3.78,19.91-3.28,31.5c1.06,24.24,21,48.63,50.79,62.12c14.75,6.67,30.86,10.22,46.6,10.22l0,0
						c17.69,0,34.1-4.31,48.83-12.78c-2.59-6.12-8.23-11.82-8.27-11.86l-0.77-0.77l1.01-0.39c32.67-13.3,31.41-81.29,31.24-86.59
						c-28.76-22.31-71.68-27.01-102.67-27.01c-18.28,0-32.63,1.56-38.77,2.24l-0.73,0.08c0.06,0.01-16.36,7.7-23.76,32.44
						L127.77,156.33L127.77,156.33z"/>
				</g>
			</g>
		</g>
		<g>
			<g>
				<path class="st10" d="M337.92,206.23c1.52-37.23,7.17-115.31-42.25-116.03c-49.44-0.72-102.64-3.62-102.64-3.62
					s-39.24,3.98-61.88,41.57c0,0,5.24-1.27,10.57-2.64c3.24-1.32,6.57-2.32,9.8-2.67c14.33-1.56,96.59-11.25,143,25.04
					c0,0,3.02,73.48-31.69,87.6c0,0,6.11,6.13,8.68,12.67c0.12,0.32,0.21,0.69,0.27,1.07c1.19,4.12,6.89,19.06,28.03,20.62
					c24.53,1.82,46.42-5.05,53.2-21.69C353.01,248.16,336.41,243.46,337.92,206.23z"/>
			</g>
			<g>
				<path class="st0" d="M307.33,270.84L307.33,270.84c-2.48,0-5.02-0.08-7.58-0.29c-21.45-1.56-27.4-16.57-28.7-21.13
					c-0.07-0.41-0.14-0.73-0.25-1.02c-2.49-6.33-8.47-12.36-8.51-12.41l-0.77-0.77l1.01-0.39c32.67-13.3,31.41-81.29,31.24-86.59
					c-28.76-22.31-71.68-27.01-102.67-27.01c-18.28,0-32.63,1.56-38.77,2.24l-0.73,0.08c-2.89,0.31-6.03,1.17-9.6,2.63
					c-5.45,1.4-10.68,2.66-10.68,2.66l-1.74,0.43l0.89-1.48c22.57-37.47,62.07-41.89,62.46-41.93c0.65,0.03,53.87,2.9,102.72,3.61
					c10.27,0.16,18.86,3.66,25.52,10.41c21.16,21.44,18.99,71.39,17.7,101.23l-0.21,5.13c-1.47,36.11,14.4,41.17,14.55,41.22
					l0.78,0.22l-0.29,0.74C347.89,262.69,330.99,270.84,307.33,270.84L307.33,270.84z M264.09,235.75
					c1.72,1.85,6.03,6.82,8.13,12.15c0.13,0.37,0.23,0.78,0.31,1.21c1.24,4.25,6.88,18.51,27.35,20.01
					c2.51,0.19,5.02,0.28,7.46,0.28c22.62,0,38.86-7.58,44.69-20.84c-3.37-1.44-16.2-9.16-14.86-42.35l0.21-5.16
					c1.3-29.61,3.44-79.17-17.26-100.18c-6.38-6.46-14.61-9.81-24.46-9.95c-48.89-0.71-102.13-3.58-102.66-3.62
					c-0.26,0.04-37.97,4.26-60.27,39.72c1.99-0.49,5.38-1.33,8.81-2.21c3.62-1.47,6.88-2.36,9.91-2.68l0.75-0.08
					c6.16-0.68,20.56-2.26,38.94-2.26c31.33,0,74.78,4.77,103.89,27.53l0.26,0.2l0.02,0.33
					C295.4,150.85,297.88,220.69,264.09,235.75L264.09,235.75z"/>
			</g>
		</g>
	</g>
	<g>
		<g>
			<path class="st0" d="M160.41,121.89c-0.15-9.06,14.91-20.9,15.54-21.4l0.96,1.12c-0.15,0.12-15.14,11.89-14.97,20.24
				L160.41,121.89L160.41,121.89z"/>
		</g>
		<g>
			<path class="st0" d="M208.12,121.1c-0.79-9.92,12.55-20.19,13.12-20.62l0.93,1.13c-0.13,0.11-13.27,10.24-12.55,19.39
				L208.12,121.1L208.12,121.1z"/>
		</g>
		<g>
			<path class="st0" d="M268.77,133.51l-1.21-0.85c5.16-6.76,6.95-23.56,6.98-23.73l1.49,0.15
				C275.96,109.77,274.18,126.43,268.77,133.51L268.77,133.51z"/>
		</g>
		<g>
			<path class="st0" d="M275.81,130.15l-1.04-1.04c4.43-4.12,3.93-13.12,3.91-13.2l1.51-0.09
				C280.22,116.21,280.75,125.57,275.81,130.15L275.81,130.15z"/>
		</g>
		<g>
			<path class="st0" d="M293.78,147.9c-0.06-4.89,0.07-9.4,0.07-9.4l1.5,0.03c0,0.01-0.13,4.49-0.06,9.35L293.78,147.9L293.78,147.9
				z"/>
		</g>
		<g>
			<path class="st0" d="M272.17,249.85l-0.77-1.24c18.26-10.22,24.96-37.74,25.03-38.02l1.48,0.32
				C297.64,212.07,291,239.32,272.17,249.85L272.17,249.85z"/>
		</g>
		<g>
			<path class="st0" d="M275.56,257.36l-0.54-1.34c10.93-3.99,18.84-17.61,18.92-17.74l1.32,0.68
				C294.92,239.53,287,253.18,275.56,257.36L275.56,257.36z"/>
		</g>
		<g>
			<path class="st0" d="M297.8,270.54l-1.24-0.8c0.23-0.35,23.98-35.53,21.74-78.76l1.51-0.09c0.03,0.48,3.96,48.19-12.54,79.55
				l-1.35-0.64c8.71-16.57,11.66-37.8,12.5-54.04C313.46,247.35,297.99,270.25,297.8,270.54L297.8,270.54z"/>
		</g>
		<g>
			<path class="st0" d="M322.92,269.34l-1.06-1.02c4.55-4.37,4.37-16.11,4.37-16.22l1.51-0.04
				C327.75,252.57,327.93,264.55,322.92,269.34L322.92,269.34z"/>
		</g>
		<g>
			<path class="st0" d="M97.77,225.14c-0.15,0-0.29,0-0.45-0.01l0.09-1.45c9.86,0.54,15.34-20.53,15.39-20.75l1.47,0.34
				C114.04,204.18,108.49,225.14,97.77,225.14L97.77,225.14z"/>
		</g>
		<g>
			<path class="st0" d="M106.95,224.99l-0.91-1.16c7.24-5.22,9.75-15.49,9.77-15.6l1.49,0.33
				C117.19,209.01,114.63,219.46,106.95,224.99L106.95,224.99z"/>
		</g>
		<g>
			<path class="st0" d="M113.77,239.22l-0.46-1.37c7.33-2.26,11.78-19.09,11.83-19.26l1.46,0.35
				C126.41,219.66,121.88,236.72,113.77,239.22L113.77,239.22z"/>
		</g>
	</g>
	<g>
		<path d="M213.86,148.69c-0.93,3.16,0.07,6.22,2.23,6.8c2.18,0.6,4.71-1.48,5.65-4.64c0.94-3.18-0.05-6.23-2.22-6.82
			C217.35,143.44,214.82,145.52,213.86,148.69z"/>
	</g>
	<g>
		<path d="M155.44,147.46c-0.94,3.17,0.05,6.23,2.22,6.81c2.18,0.61,4.71-1.48,5.66-4.65c0.94-3.16-0.05-6.22-2.22-6.8
			C158.91,142.23,156.38,144.29,155.44,147.46z"/>
	</g>
	<g>
		<g>
			<path class="st11" d="M181.46,228.65c-2.12,7.18,3.77,15.44,6.3,9.88C190.26,232.98,185.23,215.89,181.46,228.65z"/>
		</g>
		<g>
			<path class="st0" d="M185.62,241.08L185.62,241.08c-1.04,0-2.09-0.63-3.02-1.8c-1.78-2.26-3.12-6.61-1.88-10.83
				c1.03-3.47,2.27-5.15,3.79-5.15c0.82,0,1.58,0.49,2.27,1.49c2.05,3.02,3.26,10.5,1.65,14.03
				C187.59,240.69,186.44,241.08,185.62,241.08L185.62,241.08z M184.52,224.75c-0.12,0-1.15,0.11-2.32,4.1
				c-1.06,3.58,0.01,7.52,1.61,9.55c0.63,0.8,1.29,1.24,1.82,1.24l0,0c0.67,0,1.15-0.75,1.44-1.39c1.36-3.03,0.27-10.02-1.54-12.66
				C185.16,225.07,184.79,224.75,184.52,224.75L184.52,224.75z"/>
		</g>
	</g>
	<g>
		<path class="st0" d="M187.57,251.4c-0.39,0-0.79-0.05-1.24-0.12c-5.74-1.06-7.08-10.44-7.13-10.83l1.49-0.19
			c0.02,0.09,1.25,8.74,5.94,9.59c1.19,0.23,2.12,0.06,2.82-0.5c1.28-1,1.56-3.14,1.56-3.89h1.51c0,0.13-0.02,3.36-2.11,5.01
			C189.64,251.09,188.68,251.4,187.57,251.4L187.57,251.4z"/>
	</g>
	<g>
		<g>
			<g>
				<g>
					<path class="st12" d="M353.01,67.44c-11.31,0-9.82-24.22-9.82-24.22s-15.84,22.4-22.62,31.81c-6.8,9.4-4.77,25.89,3.5,18.2
						c0,0,0.01,0,0.01-0.01C330.48,86.82,353.01,67.44,353.01,67.44z"/>
				</g>
				<g>
					<path class="st0" d="M320.23,95.93L320.23,95.93c-0.97,0-2.32-0.38-3.32-2.22c-2.18-4-1.36-13.02,3.05-19.1
						c6.7-9.29,22.46-31.58,22.62-31.79l1.54-2.19l-0.16,2.63c-0.02,0.17-0.93,15.94,4.6,21.55c1.25,1.27,2.72,1.9,4.46,1.9h1.96
						l-1.46,1.25c-0.23,0.21-22.57,19.46-28.87,25.75C323.04,95.2,321.57,95.93,320.23,95.93L320.23,95.93z M342.38,45.68
						c-4.07,5.75-15.69,22.13-21.2,29.76c-4.03,5.57-4.9,14.04-2.96,17.6c1.13,2.07,2.97,1.85,5.33-0.32
						c5.45-5.48,22.89-20.59,27.71-24.75c-1.43-0.32-2.7-1.04-3.8-2.17C342.83,61.1,342.36,50.52,342.38,45.68L342.38,45.68z"/>
				</g>
			</g>
			<g>
				<g>
					<g>
						<path class="st13" d="M320.57,75.02c6.78-9.4,22.62-31.81,22.62-31.81c-13.57-4.7-168.37-8.32-168.37-8.32
							s-29.71,26.4-37.63,36.2c0,0,169.32,3.63,182.19,5.77C319.75,76.22,320.14,75.61,320.57,75.02z"/>
					</g>
					<g>
						<path class="st0" d="M319.8,77.66l-0.54-0.09c-12.66-2.1-180.4-5.72-182.08-5.75l-1.5-0.02l0.91-1.14
							c7.88-9.75,36.51-35.21,37.73-36.28l0.23-0.2h0.3c6.32,0.15,155.07,3.67,168.62,8.36l0.91,0.31l-0.54,0.77
							c-0.15,0.22-15.92,22.52-22.64,31.82c-0.4,0.56-0.78,1.16-1.12,1.76L319.8,77.66L319.8,77.66z M138.73,70.41
							c17.77,0.38,164.72,3.61,180.26,5.66c0.29-0.5,0.62-0.99,0.96-1.45c5.97-8.27,19.14-26.86,22.05-30.99
							c-17.94-4.37-159.28-7.81-166.89-7.99C172.47,38,147.28,60.5,138.73,70.41L138.73,70.41z"/>
					</g>
				</g>
				<g>
					<g>
						<path class="st14" d="M137.2,71.09c-7.93,9.8-6.8,19.47,4.53,19.47c11.34,0,109.04,6.88,132.43,7.95
							c23.4,1.08,44.93,0.38,48.67-3.98c0.29-0.33,0.74-0.81,1.27-1.32c-0.01,0.01-0.01,0.01-0.01,0.01
							c-7.77,7.2-10.02-6.83-4.69-16.36C306.52,74.72,137.2,71.09,137.2,71.09z"/>
					</g>
					<g>
						<path class="st0" d="M292.16,99.7c-5.5,0-11.58-0.15-18.04-0.46c-10.14-0.47-33.93-2-59.13-3.64
							c-32.86-2.11-66.86-4.31-73.26-4.31c-5.94,0-8.45-2.49-9.52-4.57c-2.09-4.08-0.46-10.08,4.38-16.06l0.24-0.29l0.39,0.01
							c6.91,0.14,169.53,3.64,182.3,5.77l1.04,0.16l-0.49,0.89c-3.27,5.84-3.52,13.14-1.7,16.06c1.14,1.82,2.93,1.55,5.19-0.55
							l1.08,1c-0.51,0.5-0.95,0.96-1.22,1.28C320.74,98.11,310.24,99.7,292.16,99.7L292.16,99.7z M137.56,71.82
							c-4.24,5.37-5.76,10.81-3.99,14.28c1.25,2.44,4.07,3.74,8.16,3.74c6.46,0,40.47,2.2,73.36,4.32
							c25.19,1.62,48.98,3.16,59.1,3.63c6.45,0.29,12.49,0.45,17.97,0.45c15.69,0,23.34-1.21,27.04-2.48
							c-0.84-0.26-1.56-0.85-2.13-1.76c-2.2-3.53-1.64-10.9,1.17-16.57C299.95,75.37,146.38,72.01,137.56,71.82L137.56,71.82z"/>
					</g>
				</g>
			</g>
		</g>
		<g>
			<g>
				<g>
					<path class="st14" d="M340.57,55.89L321.7,78.64L340.57,55.89z"/>
				</g>
				<g>
					<polygon class="st0" points="322.28,79.1 321.1,78.19 339.98,55.43 341.15,56.34 322.28,79.1 					"/>
				</g>
			</g>
			<g>
				<g>
					<path class="st14" d="M343.19,63.81l-21.5,22.77L343.19,63.81z"/>
				</g>
				<g>
					<polygon class="st0" points="322.25,87.08 321.13,86.11 342.65,63.33 343.77,64.3 322.25,87.08 					"/>
				</g>
			</g>
			<g>
				<g>
					<path class="st14" d="M346.23,69.22L321.7,91.65L346.23,69.22z"/>
				</g>
				<g>
					<polygon class="st0" points="322.21,92.17 321.17,91.13 345.69,68.69 346.75,69.73 322.21,92.17 					"/>
				</g>
			</g>
		</g>
	</g>
	<g class="st15">
		<path class="st16" d="M261.42,130.59c0,0,50.03,118.94-55.21,129.64c0,0,36.37,5.75,65.3-12.07c0,0-4.78-8.71-8.68-12.67
			c0,0,19.52-5.77,27.3-41.49c0,0,5.4-25.05,4.46-41.23c0,0,0.74-4.29-0.69-5.36C292.47,146.33,272.46,133.89,261.42,130.59z"/>
	</g>
	<g>
		<path class="st0" d="M224.5,370.28c-1.6-6.02-0.82-11.94-0.78-12.2l1.49,0.19c0,0.06-0.77,5.9,0.75,11.66L224.5,370.28
			L224.5,370.28z"/>
	</g>
	<g>
		<path class="st0" d="M246.91,370.47c-2.77-4.41-1.12-12.24-1.04-12.57l1.49,0.3c-0.02,0.07-1.62,7.59,0.85,11.52L246.91,370.47
			L246.91,370.47z"/>
	</g>
	<g>
		<path class="st0" d="M240.89,371.74c-3.06-6.01-0.14-13.03-0.01-13.33l1.4,0.54c-0.02,0.09-2.79,6.74-0.02,12.15L240.89,371.74
			L240.89,371.74z"/>
	</g>
	<g>
		<path class="st0" d="M234.06,372.65c-2.36-4.53-0.16-13.74-0.07-14.13l1.46,0.33c-0.02,0.1-2.18,9.09-0.06,13.15L234.06,372.65
			L234.06,372.65z"/>
	</g>
	<g>
		<path class="st0" d="M228.93,371.67c-1.36-3.35-1.2-12.9-1.19-13.3l1.51,0.03c0,0.08-0.17,9.68,1.07,12.76L228.93,371.67
			L228.93,371.67z"/>
	</g>
	<g>
		<path class="st0" d="M221.36,370.35c-2.29-5.95-0.1-12.27-0.01-12.55l1.42,0.48c-0.02,0.05-2.08,6.09,0,11.55L221.36,370.35
			L221.36,370.35z"/>
	</g>
</g>
</svg>
