<?xml version="1.0" encoding="utf-8"?>
<!-- Generator: Adobe Illustrator 23.0.5, SVG Export Plug-In . SVG Version: 6.00 Build 0)  -->
<svg version="1.1" id="Layer_1" xmlns="http://www.w3.org/2000/svg" xmlns:xlink="http://www.w3.org/1999/xlink" x="0px" y="0px"
	 viewBox="0 0 480 640" style="enable-background:new 0 0 480 640;" xml:space="preserve">
<style type="text/css">
	.st0{fill:#0A0A0A;}
	.st1{fill:#FFC3D6;}
	.st2{fill:#A85802;}
	.st3{fill:#6B4F4A;}
	.st4{fill:#D92231;}
	.st5{fill:#FFFFFF;}
	.st6{opacity:0.5;}
	.st7{fill:#D76B2A;}
	.st8{fill:#B0DBE4;}
	.st9{fill:#73BED0;}
	.st10{fill:#9F77B9;}
	.st11{fill:#FFEF43;}
</style>
<g>
	<g>
		<g>
			<polygon class="st0" points="96.43,595.72 170.53,514.42 170.25,513.63 137.9,423.05 133.29,423.97 165.35,513.76 92.5,593.67 
				96.43,595.72 			"/>
		</g>
		<g>
			<path class="st0" d="M173.08,595.16l4.61-0.92c-10.31-29.6,42.73-152.62,43.27-153.87l-4.54-1.11
				C214.22,444.37,162.42,564.53,173.08,595.16L173.08,595.16z"/>
		</g>
		<g>
			<path class="st0" d="M374.73,317.04l0.1-3.6c-102.11-1.76-136.28-45.92-136.63-46.36l-4.16,1.76
				C234.38,269.29,269.71,315.22,374.73,317.04L374.73,317.04z"/>
		</g>
		<g>
			<g>
				<path class="st1" d="M207.88,258.66c0,0-0.44,5.52-18.14,6.06c-17.67,0.54-43.94,25.15-65.81,49.77
					c-21.9,24.61-50.15,55.83-49.75,61.53c0.39,5.71,7.55,45.92,77.2,69.34c69.65,23.42,124.69,10.81,125.22,2.11
					c0.52-8.72-13.53-140.79-34.76-179.5C220.6,229.24,207.88,258.66,207.88,258.66z"/>
			</g>
			<g>
				<path class="st0" d="M229.21,459.66c-17.46,0-45.2-2.34-78.33-13.48c-73.93-24.85-77.78-68.28-77.91-70.11
					c-0.36-5.17,18.38-26.64,44.91-56.42l5.02-5.66c29.18-32.82,51.66-49.7,66.79-50.17c16.15-0.49,16.99-5.2,17.05-5.45
					c0.19-0.46,5-11.32,14.1-11.32c7.18,0,14.61,6.93,22.09,20.55c21.84,39.83,35.28,172.28,34.83,179.9
					C277.4,453.38,257.82,459.66,229.21,459.66L229.21,459.66z M220.85,248.86c-7.34,0-11.74,9.85-11.79,9.85l0,0
					c-0.01,0.26-0.72,6.35-19.27,6.91c-14.12,0.42-36.55,17.51-64.89,49.36l-5.03,5.68C99.88,343.09,75.03,371,75.39,375.98
					c0.12,1.78,3.86,44.15,76.46,68.55c32.75,11.02,60.14,13.32,77.36,13.32c30.32,0,45.94-6.69,46.17-10.44
					c0.51-8.11-13.7-140.89-34.65-179.12C231.93,252.23,225.05,248.86,220.85,248.86L220.85,248.86z"/>
			</g>
		</g>
		<g>
			<g>
				<path class="st2" d="M195.54,260.05c0.41,1,11.15,44.23,34.22,41.23c23.07-3.01,7.96-32.41-3.18-35.73
					C215.42,262.26,195.54,260.05,195.54,260.05z"/>
			</g>
			<g>
				<path class="st0" d="M227.47,302.33c-18.99,0-29.33-28.96-32.89-41.41l-0.72-1.97l1.86,0.2c0.82,0.1,20.15,2.27,31.29,5.56
					c7.85,2.32,17.3,16.11,15.9,26.53c-0.84,6.14-5.3,9.92-12.93,10.92C229.13,302.28,228.29,302.33,227.47,302.33L227.47,302.33z
					 M197.07,261.15c3.05,10.4,13.73,41.7,32.47,39.24c6.56-0.84,10.25-3.99,10.97-9.32c1.25-9.29-7.5-22.62-14.38-24.67
					C217.15,263.75,202.14,261.76,197.07,261.15L197.07,261.15z"/>
			</g>
		</g>
		<g>
			<g>
				<g>
					<g>
						<path class="st2" d="M129.89,148.42l13.13,9.23v-26.11l20.29,23.86c7.76-5.41,37.01-13.06,37.01-13.06l-9.55-33.32
							l32.84,29.72c14.92-10.35,53.71-13.51,53.71-13.51l-10.15-28.81c10.15,5.85,29.84,27.92,29.84,27.92
							c26.27-7.67,50.8-1.58,50.8-1.58c29.25,45.01,20.83,85.32,20.83,85.32s-13.14,50.88-87.75,64.84
							c-74.61,13.97-139.68-31.07-142.64-34.66c-10.12-7.13-18.5-24.32-18.5-24.32C131.09,204.92,129.89,148.42,129.89,148.42z"/>
					</g>
					<g>
						<path class="st0" d="M251.66,276.49c-62.05,0-111.89-34.72-114.24-37.59c-10.2-7.2-18.46-23.94-18.81-24.67l-0.24-0.53
							l0.5-0.41c10.88-8.62,9.84-64.32,9.82-64.88l-0.04-2.13l13.18,9.28v-27.12l21.74,25.58c8.2-4.86,30.3-10.94,35.35-12.29
							l-9.33-32.55l2.07-0.76l32.05,29c14.09-8.98,45.06-12.33,52.08-12.99l-10.7-30.35l2.77,1.6c9.39,5.4,26.32,23.9,29.59,27.53
							c8.71-2.44,18.08-3.67,27.92-3.67c13.22,0,22.39,2.22,22.77,2.32l0.49,0.12l0.22,0.33c29.07,44.75,21.02,85.47,20.94,85.91
							c-0.15,0.52-14.15,51.59-88.65,65.53C271.59,275.57,261.66,276.49,251.66,276.49L251.66,276.49L251.66,276.49z M346.96,123.48
							c-2.03-0.45-10.4-2.13-21.57-2.13c-9.88,0-19.28,1.29-27.97,3.82l-0.88,0.26l-0.52-0.6c-0.18-0.2-16.35-18.26-26.71-25.8
							l9.51,26.97l-1.38,0.12c-0.4,0.02-38.58,3.24-53.04,13.28l-0.92,0.64l-30.52-27.62l8.75,30.5l-1,0.26
							c-0.29,0.09-29.1,7.65-36.58,12.87l-1.06,0.73L144.2,134.6v25.13l-13.09-9.23c0.08,10.36-0.08,54.31-10.01,63.62
							c1.45,2.85,9.12,17.25,18.15,23.65c2.48,2.99,51.35,36.91,112.4,36.91c9.82,0,19.56-0.88,28.94-2.63
							c72.97-13.65,86.73-63.64,86.86-64.11C367.53,207.54,375.44,167.61,346.96,123.48L346.96,123.48z"/>
					</g>
				</g>
				<g>
					<g>
						<path class="st3" d="M30.22,197.28c0,0,22.08-12.62,23.27-59.88c1.12-44.59,43.58-75.65,43.58-75.65H87.5
							c0,0,6.58-7.21,17.32-8.12l7.75-13.95l-0.59,11.71c0,0,22.67-29.72,105.05-30.16c82.35-0.45,123.11,52.01,134.88,63.03
							c10.37,9.68,47.15,47.72,71.03,53.57c0,0-16.12,57.62-54.31,70.23c0,0,8.41-40.31-20.83-85.32c0,0-24.53-6.08-50.8,1.58
							c0,0-19.69-22.07-29.84-27.92l10.15,28.81c0,0-38.79,3.16-53.71,13.51l-32.84-29.72l9.55,33.32c0,0-29.25,7.65-37.01,13.06
							l-20.29-23.86v26.11l-13.13-9.23c0,0,1.2,56.5-10.14,65.51c0,0,8.38,17.19,18.5,24.32
							C138.25,238.25,42.74,216.18,30.22,197.28z"/>
					</g>
					<g>
						<path class="st0" d="M137.9,239.1c-3.94-0.9-96.15-22.38-108.77-41.42l-0.44-0.68l0.77-0.46c0.22-0.1,21.65-13.02,22.82-59.17
							C53.27,98.5,85.85,69.5,94.26,62.64h-9.03l1.3-1.41c0.27-0.29,6.72-7.24,17.45-8.43l7.5-13.46l2.28,0.37l-0.43,8.65
							c7.63-7.35,34.98-27.67,103.69-28.04l1.07-0.01c73.58,0,114.6,42.59,130.05,58.61c1.91,1.97,3.47,3.6,4.71,4.74
							c1.29,1.2,2.97,2.83,4.99,4.8c14.58,14.11,44.9,43.45,65.47,48.51l1.04,0.23l-0.23,0.8c-0.65,2.36-16.68,58.22-54.99,70.88
							l-2,0.64l0.33-1.62c0.07-0.4,7.96-40.37-20.5-84.45c-2.03-0.45-10.4-2.13-21.57-2.13c-9.88,0-19.28,1.29-27.97,3.82
							l-0.88,0.26l-0.52-0.6c-0.18-0.2-16.35-18.26-26.71-25.8l9.51,26.97l-1.38,0.12c-0.4,0.02-38.58,3.23-53.04,13.28l-0.92,0.64
							l-30.52-27.62l8.75,30.5l-1,0.26c-0.29,0.09-29.1,7.65-36.58,12.87l-1.06,0.73L144.2,134.6v25.13l-13.09-9.23
							c0.08,10.36-0.08,54.31-10.01,63.62c1.45,2.85,9.09,17.24,17.95,23.47L137.9,239.1L137.9,239.1z M128.65,146.3l13.18,9.28
							v-27.12l21.74,25.58c8.2-4.86,30.3-10.94,35.35-12.29l-9.33-32.55l2.07-0.76l32.05,29c14.09-8.98,45.06-12.33,52.08-12.99
							l-10.7-30.35l2.77,1.6c9.39,5.4,26.32,23.9,29.59,27.53c8.71-2.44,18.08-3.67,27.92-3.67c13.22,0,22.39,2.22,22.77,2.32
							l0.49,0.12l0.22,0.33c25.77,39.67,22.37,76.16,21.21,84.22c33.5-12.67,49.41-61.39,51.47-68.14
							c-21.23-5.88-51.11-34.83-65.62-48.84c-1.99-1.94-3.68-3.57-4.94-4.76c-1.27-1.18-2.86-2.82-4.79-4.82
							c-16.69-17.33-55.76-57.89-128.12-57.89l-1.06,0.01c-80.61,0.45-103.8,29.42-104.02,29.72l-2.23-0.49l0.34-6.73l-5.48,9.85
							l-0.69,0.06c-7.18,0.6-12.47,4.25-14.92,6.3H100l-2.12,1.54c-0.42,0.31-42.1,31.35-43.21,75.02
							c-1.07,42.69-18.9,57.3-22.96,60.08c12.09,15.94,84.11,34.36,102.57,38.88c-8.72-7.99-15.36-21.48-15.68-22.13l-0.24-0.53
							l0.5-0.41c10.88-8.62,9.84-64.32,9.82-64.88L128.65,146.3L128.65,146.3z"/>
					</g>
				</g>
			</g>
			<g>
				<path class="st0" d="M364.11,127.89c0.69,0,1.24-0.15,1.69-0.45c1.1-0.76,0.57-2.05,0.39-2.49
					c-8.18-19.59-30.63-32.73-30.84-32.84l-1.46,1.42c0.21,0.14,22.07,12.94,30.01,31.97c0.5,1.21,0.17,0.73,0.17,0.73
					c-0.57,0-3.65-0.97-5.89-1.7c-2.96-0.92-6.61-2.09-10.12-2.67l-0.5,1.77c3.29,0.55,6.7,1.63,9.69,2.58
					C360.33,127.16,362.56,127.89,364.11,127.89L364.11,127.89z"/>
			</g>
			<g>
				<path d="M250.48,201c0.55,4.35,3.27,7.69,6.05,7.48c2.8-0.21,4.61-3.87,4.03-8.22c-0.54-4.33-3.26-7.67-6.05-7.46
					C251.72,193.02,249.92,196.69,250.48,201z"/>
			</g>
			<g>
				<path d="M347.17,190.81c0.56,4.34,3.27,7.67,6.06,7.47c2.79-0.2,4.6-3.88,4.03-8.22c-0.57-4.33-3.26-7.67-6.06-7.47
					C348.42,182.8,346.61,186.47,347.17,190.81z"/>
			</g>
			<g>
				<g>
					<path class="st4" d="M218.22,233.29c0,0,27.85,19.82,67.24,15.91c39.4-3.9,49.14-18.63,49.14-18.63s-4.85,15.69-17.33,31.04
						c-10.11,4.75-22.11,8.77-36.38,11.46c-23.89,4.47-46.82,2.87-67.03-1.46C210.99,263.28,210.67,250.99,218.22,233.29z"/>
				</g>
				<g>
					<path class="st0" d="M251.7,276.62c-12.44,0-25.26-1.38-38.16-4.16l-0.65-0.14l-0.17-0.5c-3.61-10.48-2.15-23.55,4.37-38.81
						l0.57-1.36l1.37,0.99c0.22,0.16,23.14,16.17,56.12,16.17c3.37,0,6.79-0.16,10.15-0.49c38.19-3.79,48.14-17.98,48.23-18.13
						l2.23,0.61c-0.05,0.17-5.05,16-17.49,31.28l-0.38,0.3c-10.98,5.17-23.34,9.05-36.74,11.55
						C271.6,275.73,261.71,276.62,251.7,276.62L251.7,276.62L251.7,276.62z M316.39,260.95c8.1-9.99,12.96-20.2,15.32-25.93
						c-5.85,4.78-19.11,12.4-46.1,15.07c-3.47,0.34-6.99,0.52-10.47,0.52c-29.22,0-50.78-12.24-56.34-15.75
						c-5.79,14.14-7.14,26.25-3.95,36c12.46,2.63,24.84,3.96,36.84,3.96l0,0c9.81,0,19.52-0.89,28.89-2.65
						C293.64,269.75,305.7,265.97,316.39,260.95L316.39,260.95z"/>
				</g>
			</g>
			<g>
				<path class="st5" d="M302.79,247.25c0,0-1.01,10.2-9.77,12.16c-8.75,1.94-37.4-1.06-40.18-2.25c-2.78-1.2-2.46-9.46-2.46-9.46
					S274.65,254.33,302.79,247.25z"/>
			</g>
		</g>
		<g class="st6">
			<path class="st7" d="M180.01,148.35c0,0-68.61,73.22,32.08,114.05l1.78,9.2c0,0-75.22-15.65-94.12-57.67
				c0,0,13.32-8.28,10.14-65.51l13.92,10.88l0.74-25.97l18.76,22.07C163.3,155.4,176.84,149.39,180.01,148.35z"/>
		</g>
		<g>
			<g>
				<path class="st2" d="M358.72,311.33c-3.77,7.04-0.28,25.7,19.6,22.07c19.9-3.61,16.02-22.07,3.33-28.83
					C368.95,297.82,361.62,305.93,358.72,311.33z"/>
			</g>
			<g>
				<path class="st0" d="M373.49,334.77c-5.4,0-9.88-1.83-12.98-5.28c-4.78-5.37-5.37-13.88-2.89-18.5
					c1.58-2.97,6.21-9.89,14.89-9.89c3.11,0,6.42,0.92,9.83,2.73c7.86,4.19,12.45,12.61,10.68,19.6c-1.4,5.56-6.54,9.42-14.42,10.84
					C376.83,334.61,375.1,334.77,373.49,334.77L373.49,334.77z M372.51,302.91c-7.22,0-11.27,6.12-12.68,8.76
					c-2.19,4.08-1.62,11.99,2.67,16.79c3.48,3.91,8.78,5.29,15.54,4.07c8.85-1.61,11.76-6.03,12.62-9.45
					c1.62-6.33-2.55-13.96-9.7-17.77C377.97,303.71,375.13,302.91,372.51,302.91L372.51,302.91z"/>
			</g>
		</g>
		<g>
			<g>
				<path class="st8" d="M315.5,291.6c0,0-62.05,58.31-82.95,101.08c0,0,92.37,36.47,137.21,34.67c0,0,57.37-54.59,77.67-93.48
					C447.43,333.87,343.56,307.12,315.5,291.6z"/>
			</g>
			<g>
				<path class="st0" d="M366.43,428.31c-45.66,0-133.55-34.48-134.44-34.84l-0.92-0.37l0.36-0.75
					c20.73-42.41,82.55-100.75,83.16-101.33l0.71-0.68l0.92,0.51c27.58,15.28,130.56,41.88,131.59,42.15l1.2,0.3l-0.48,0.88
					c-20.11,38.58-77.26,93.17-77.82,93.73l-0.33,0.31l-0.55,0.02C368.72,428.29,367.58,428.31,366.43,428.31L366.43,428.31z
					 M369.16,426.47c4.69-4.53,57.12-55.34,76.68-92.06c-12.02-3.11-102.35-26.83-130.11-41.57c-6.89,6.55-61.99,59.77-81.7,99.4
					C243.81,396.03,327.45,427.79,369.16,426.47L369.16,426.47z"/>
			</g>
		</g>
		<g>
			<g>
				<path class="st9" d="M447.43,333.87c0,0-15.52-86.62-19.1-92.92l-53.54,72.46C374.79,313.41,430.11,330.44,447.43,333.87z"/>
			</g>
			<g>
				<path class="st0" d="M448.84,335.08l-1.72-0.34c-17.2-3.39-72.23-20.32-72.79-20.5l-1.24-0.37l55.38-74.96l0.95,1.7
					c3.61,6.34,18.55,89.6,19.18,93.14L448.84,335.08L448.84,335.08z M427.99,243.26l-51.5,69.7c8.04,2.44,52.42,15.95,69.5,19.67
					C440.96,304.65,431.53,254.52,427.99,243.26L427.99,243.26z"/>
			</g>
		</g>
		<g>
			<path class="st0" d="M253.24,372.93c2.48,0,5.02-0.08,7.61-0.23l-0.33-3.58c-24.67,1.27-44.68-3.81-59.52-15.07
				c-35.26-26.77-30.45-80.03-30.39-80.57l-4.78-0.26c-0.22,2.25-5,55.44,31.79,83.37C211.91,367.42,230.6,372.93,253.24,372.93
				L253.24,372.93z"/>
		</g>
		<g>
			<g>
				<path class="st2" d="M250.37,364.31c-3.78,7.05-0.28,25.7,19.6,22.08c19.88-3.62,16.02-22.08,3.34-28.83
					C260.61,350.81,253.25,358.91,250.37,364.31z"/>
			</g>
			<g>
				<path class="st0" d="M265.14,387.74c-5.4,0-9.89-1.82-12.98-5.28c-4.79-5.37-5.37-13.88-2.92-18.49
					c1.6-2.97,6.24-9.88,14.91-9.88c3.12,0,6.42,0.92,9.84,2.72c7.85,4.19,12.43,12.61,10.67,19.59c-1.4,5.56-6.54,9.43-14.42,10.86
					C268.48,387.59,266.75,387.74,265.14,387.74L265.14,387.74z M264.15,355.89c-7.21,0-11.28,6.13-12.68,8.76
					c-2.19,4.09-1.62,12,2.67,16.81c3.49,3.89,8.78,5.27,15.54,4.05c8.87-1.62,11.76-6.03,12.64-9.45c1.6-6.34-2.58-13.98-9.7-17.77
					C269.61,356.7,266.76,355.89,264.15,355.89L264.15,355.89z"/>
			</g>
		</g>
		<g>
			<path class="st10" d="M93.62,350.25c-7.38,13.63-4.61,20.59-2.04,23.7c2.68,3.29,7.37,3.58,7.52,3.6l7.25,0.27l-3.23,4.92
				c-4.28,6.54-5.03,11.63-2.22,15.16c4.09,5.14,15.52,6.52,19.57,6.63l4.18,0.1l0.43,3.14c0.95,7.08,4.48,12.35,10.52,15.74
				c12.08,6.8,30.58,4.25,30.76,4.21l3.09-0.45l1.76,1.94c7.31,8.03,15.92,12.64,25.56,13.69c15.98,1.72,30.21-6.85,30.36-6.93
				l3.04-1.89l3.03,1.89c10.33,6.46,18.81,8.8,25.2,6.96c9.26-2.66,14.36-14.46,15.17-18.62c0,0,1.76,9.53,1.57,16.2
				c-3.04,3.85-7.32,7.41-13.3,9.15c-2.52,0.73-5.18,1.1-7.92,1.1c-7.22,0-15.22-2.51-23.92-7.49c-5.87,2.95-19.19,8.37-34.51,6.76
				c-11.62-1.23-21.84-6.24-30.41-14.89c-6.71,0.56-22.91,1.03-35.15-5.83c-7.38-4.12-12.03-10.13-13.82-17.86
				c-6.2-0.68-17.83-2.84-23.41-9.81c-3.9-4.9-4.05-10.98-0.45-18.13c-2.89-0.96-6.19-2.64-8.68-5.6c-2.46-2.9-3.59-6.52-3.57-10.76
				C82.88,362.26,93.62,350.25,93.62,350.25z"/>
		</g>
		<g>
			<g>
				<g>
					<path class="st11" d="M229.04,595.61c15.24,4.69,26.95,9.7,24.99,12.28c-4.78,6.31-97.28,11.27-92.51-2.24
						c0.82-2.31,1.48-4.29,2.1-6.13l0,0C220,618,235.52,597.73,229.04,595.61z"/>
				</g>
				<g>
					<path class="st0" d="M199.62,615.12c-12.05,0-33.06-0.76-38.23-5.83c-1.17-1.15-1.53-2.46-1.03-3.89
						c0.82-2.3,1.49-4.27,2.1-6.11l0.33-1.01l1.31,0.41c15.44,5.07,29.09,7.63,40.55,7.63c16.17,0,23.59-5.13,24.49-8.4
						c0.13-0.45,0.21-1.24-0.59-1.48l0.92-1.67c8.89,2.73,24.03,7.88,25.77,11.69c0.4,0.86,0.13,1.49-0.17,1.88
						C251.76,612.72,220.18,615.12,199.62,615.12L199.62,615.12z M231.61,597.4c0,0.29-0.04,0.59-0.12,0.89
						c-1.1,3.96-9.14,9.84-26.83,9.84c-11.47,0-24.99-2.48-40.22-7.36c-0.53,1.55-1.1,3.22-1.77,5.11c-0.3,0.88-0.13,1.61,0.61,2.32
						c3.28,3.22,16.87,5.14,36.34,5.14c26.34,0,51.37-3.24,53.38-5.88c0.04-0.06,0.13-0.16,0-0.4
						C252.24,605.4,246.2,602.06,231.61,597.4L231.61,597.4z"/>
				</g>
			</g>
			<g>
				<g>
					<path class="st2" d="M171.68,585.38c6.64-2.52,35.62,3.53,57.37,10.22c6.48,2.13-9.04,22.39-65.43,3.91l0,0
						C166.58,590.62,167.7,586.86,171.68,585.38z"/>
				</g>
				<g>
					<path class="st0" d="M204.66,608.13c-11.79,0-25.76-2.62-41.53-7.78l-0.92-0.31l0.57-1.71c2.79-8.33,4.05-12.14,8.34-13.75
						c7.25-2.72,37.26,3.71,58.39,10.2c1.67,0.53,2.42,1.88,1.99,3.5C230.4,602.24,222.36,608.13,204.66,608.13L204.66,608.13
						L204.66,608.13z M176.38,585.69c-2.4,0-3.59,0.27-4.17,0.49c-3.33,1.27-4.42,4.56-7.11,12.57l-0.09,0.23
						c15.09,4.86,28.41,7.33,39.65,7.33c16.17,0,23.59-5.13,24.49-8.4c0.13-0.45,0.21-1.24-0.56-1.48
						C211.64,591.24,187.6,585.69,176.38,585.69L176.38,585.69z"/>
				</g>
			</g>
		</g>
		<g>
			<g>
				<g>
					<path class="st2" d="M84.56,597.09c5.22-7.11,13.85-13.57,20.85-12.29c4.03,0.74,20.11,5.56,34.52,11.05l0,0
						C163.89,613.68,90.5,599.64,84.56,597.09z"/>
				</g>
				<g>
					<path class="st0" d="M134.44,605.64c-16.35,0-46.56-6.08-50.47-7.78l-1.02-0.45l0.58-0.78c4.36-5.95,12.25-12.9,20.05-12.9
						c0.71,0,1.44,0.07,2.13,0.18c4.33,0.8,20.82,5.83,35.06,11.3c4.27,3.18,5.87,5.65,4.85,7.53c-1.07,1.95-4.71,2.9-11.16,2.9
						C134.44,605.64,134.44,605.64,134.44,605.64L134.44,605.64z M103.58,585.54c-5.98,0-13,5.63-17.33,11.14
						c6.57,2.01,33.63,7.18,48.2,7.18c0,0,0,0,0.01,0c7.21,0,8.65-1.26,8.95-1.79c0.33-0.63,0.23-2.18-4.01-5.41
						c-14.75-5.62-30.56-10.3-34.27-10.98C104.63,585.58,104.1,585.54,103.58,585.54L103.58,585.54z"/>
				</g>
			</g>
			<g>
				<g>
					<path class="st11" d="M139.93,595.84L139.93,595.84c17.01,6.48,31.67,13.88,21.42,16.56c-18.92,4.94-82.82,3.15-81.32-5.86
						c0.48-2.83,2.17-6.21,4.54-9.46C90.5,599.64,163.89,613.68,139.93,595.84z"/>
				</g>
				<g>
					<path class="st0" d="M128.31,616c-20.09,0-42.79-2.06-48.15-6.66c-1.05-0.9-1.5-1.88-1.32-2.91c0.48-2.87,2.14-6.33,4.68-9.79
						l0.57-0.8l1.06,0.45c3.69,1.59,33.66,7.55,49.3,7.55c7.21,0,8.67-1.25,8.95-1.79c0.33-0.62,0.23-2.18-4.32-5.57l1.37-1.45
						c25.91,9.87,25.57,13.76,25.45,15.03c-0.11,1.42-1.52,2.48-4.18,3.18C155.15,614.97,142.66,616,128.31,616L128.31,616z
						 M144.62,598.72c1.29,1.58,1.6,2.91,0.99,4.04c-1.07,1.94-4.71,2.89-11.16,2.89c-15.27,0-42.64-5.31-49.38-7.4
						c-2.09,3.02-3.46,5.97-3.86,8.41c-0.08,0.51,0.15,1,0.73,1.49c4.17,3.57,23.23,6.06,46.37,6.06c14.09,0,26.29-1,32.64-2.66
						c1.66-0.43,2.52-0.96,2.58-1.6C163.6,609.1,162.36,605.91,144.62,598.72L144.62,598.72z"/>
				</g>
			</g>
		</g>
	</g>
	<g class="st6">
		<path class="st8" d="M435.62,331.05c0,0-71.28,97.51-160.45,75.29c0,0,57.51,22.81,94.59,21.01c0,0,63.73-62.99,77.67-93.48
			L435.62,331.05z"/>
	</g>
</g>
</svg>
